<svg width="297" height="199" viewBox="0 0 297 199" fill="none" xmlns="http://www.w3.org/2000/svg">
<path d="M122.038 198.361H0V117.421H20.8879L23.055 115.123C25.3788 116.559 27.4415 117.917 29.5825 119.17C31.2274 120.136 32.9507 120.998 34.6217 121.781L35.7967 122.826L37.2588 129.17L44.909 126.559C48.6688 127.682 52.4548 128.831 56.2407 129.927C57.3391 130.358 58.5472 130.423 59.6856 130.113C60.8239 129.802 61.8317 129.133 62.5593 128.204C63.1859 127.421 63.7342 126.585 64.2826 125.776C72.4811 130.502 72.7422 130.502 76.3453 125.202L80.549 126.794C82.0148 126.515 83.3378 125.735 84.2907 124.586C85.2436 123.438 85.767 121.994 85.771 120.502C91.8546 123.844 91.8546 123.844 95.9277 123.635L97.2854 119.51H108.069C109.228 119.584 110.389 119.386 111.459 118.933C112.528 118.48 113.478 117.783 114.231 116.899V77.5771L105.823 79.5876C102.455 76.6894 104.1 71.5196 101.28 69.1436L77.3897 80.0054C71.8544 78.5954 66.3191 77.1333 60.7577 75.8278C59.0595 75.3583 57.292 75.1904 55.5357 75.3317C49.3216 76.115 43.2119 77.0288 37.8855 80.9453C35.124 82.6709 32.1242 83.9817 28.982 84.8357C26.9494 85.4093 24.8826 85.854 22.7939 86.1673L20.7313 83.8957H0V0.761841H93.9956C94.3917 6.97826 93.7475 13.2172 92.0896 19.2215C90.9174 23.3305 90.0448 27.5191 89.4786 31.7543C88.7475 35.958 88.852 40.2922 86.7109 44.1826C86.5183 44.4395 86.3859 44.7364 86.3235 45.0513C86.2612 45.3663 86.2704 45.6913 86.3507 46.0022C86.4309 46.3131 86.58 46.602 86.787 46.8474C86.994 47.0929 87.2536 47.2887 87.5465 47.4202L85.3532 51.9633C93.8128 58.2036 150.315 91.4676 154.048 92.3814C154.229 91.7132 154.36 91.0325 154.44 90.3449C154.806 83.9218 155.223 77.4988 155.458 71.0758C155.928 57.2898 156.294 43.4776 156.79 29.6916C156.79 27.2112 157.443 24.7307 157.495 22.2503C158.01 19.1171 157.895 15.9126 157.155 12.8246C148.108 12.1924 139.023 13.3003 130.393 16.0883C124.779 12.8246 121.333 7.60263 117.886 2.35454C117.625 1.9629 117.886 1.28404 117.729 0.761841H197.652V2.82452C189.235 5.66506 181.126 9.3478 173.448 13.8168C169.793 14.0779 166.216 11.5452 162.508 13.399C162.038 21.8325 161.437 30.2138 161.098 38.5951C160.576 51.65 160.263 64.705 159.766 77.7599C159.766 80.6059 159.166 83.4258 159.035 86.2717C158.585 88.3149 158.73 90.4443 159.453 92.4076C170.55 88.7522 229.245 61.9373 232.039 59.248C228.521 50.9977 223.38 43.5391 216.921 37.3157C216.386 35.0947 216.166 32.8094 216.268 30.5271C216.982 26.5245 218.048 22.5928 219.454 18.7777C220.48 16.45 221.703 14.2139 223.109 12.0935L232.378 9.84808C233.892 8.22927 236.033 6.06215 238.018 3.79059C238.712 2.84947 239.299 1.83356 239.767 0.761841L297 0.761841V122.773C291.987 123.322 287.627 120.632 282.901 119.797L280.133 119.353L277.966 121.337C276.634 121.337 275.042 120.632 274.337 121.181C273.547 121.796 272.568 122.116 271.567 122.088C270.566 122.059 269.607 121.683 268.854 121.024C261.517 116.324 254.859 110.893 251.464 102.486C249.976 98.8306 248.853 95.0708 247.156 91.4676C246.347 89.5877 245.616 87.3422 242.979 87.0811C240.681 88.0211 240.812 89.6921 241.464 91.5459C242.613 94.9402 243.84 98.3084 244.78 101.755C245.041 102.669 244.389 103.818 244.049 105.254C243.024 104.871 242.099 104.262 241.344 103.47C240.589 102.679 240.023 101.726 239.689 100.684C240.327 88.9194 237.936 77.1874 232.744 66.611L159.27 99.405C165.876 111.416 172.195 122.904 178.618 134.523C185.041 146.142 191.177 158.022 198.044 169.301C198.585 169.16 199.116 168.985 199.636 168.779C208.638 163.891 216.49 157.134 222.665 148.962C231.625 148.679 240.556 147.806 249.402 146.351C253.661 145.801 257.954 145.565 262.248 145.646C263.703 145.702 265.113 146.163 266.321 146.977C267.892 148.148 269.392 149.412 270.812 150.763L271.308 152.852L297 159.588V198.361H145.798C146.642 192.505 148.822 186.922 152.168 182.043C166.816 182.382 184.623 177.761 192.064 171.599C179.358 148.518 166.581 125.315 153.735 101.99L89.3219 149.745C93.7523 155.827 98.9673 161.296 104.831 166.011L105.954 167.056H105.797C106.164 167.967 106.583 168.856 107.051 169.719C108.121 171.547 109.4 173.244 110.419 175.098C112.638 179.118 114.727 183.244 116.92 187.291C118.696 190.529 120.523 193.766 122.351 197.004L122.038 198.361Z" fill="#DDE6F6"/>
<path d="M239.689 100.684C240.029 101.716 240.598 102.658 241.353 103.44C242.108 104.223 243.03 104.824 244.049 105.201C244.388 103.765 245.041 102.59 244.78 101.702C243.84 98.256 242.613 94.8878 241.464 91.4935C240.811 89.6136 240.681 87.9687 242.979 87.0287C245.59 87.2898 246.347 89.6397 247.156 91.4152C248.749 95.0183 249.976 98.7782 251.464 102.434C254.859 110.841 261.517 116.272 268.853 120.972C269.607 121.631 270.566 122.007 271.567 122.035C272.567 122.064 273.547 121.743 274.337 121.128C275.041 120.58 276.634 121.128 277.966 121.285L280.133 119.301L282.901 119.744C287.626 120.58 291.987 123.269 297 122.721V159.484L271.308 152.747L270.812 150.659C269.389 149.343 267.889 148.114 266.321 146.977C265.143 146.181 263.771 145.721 262.352 145.645C258.059 145.565 253.765 145.8 249.506 146.35C240.661 147.806 231.729 148.678 222.769 148.961L229.898 138.961L233.762 138.465C234.676 135.854 235.119 134 233.318 132.225C232.519 130.674 231.508 129.242 230.315 127.969C224.754 123.452 219.036 119.118 213.318 114.914C210.519 113.327 208.359 110.817 207.208 107.812C209.819 105.567 212.012 106.507 214.284 107.943C218.07 110.345 221.934 112.564 225.85 114.757C226.789 115.095 227.778 115.272 228.775 115.28C228.644 114.496 228.775 114.052 228.54 113.87C224.545 109.64 220.55 105.567 216.712 101.415C215.63 100.433 214.744 99.255 214.101 97.9426C213.722 96.7715 213.722 95.5106 214.101 94.3395C214.284 93.6867 215.38 93.269 216.399 92.5118C218.461 94.0784 220.524 95.4622 222.404 97.081C226.059 100.24 229.636 103.504 233.24 106.716L234.284 107.368L233.945 106.063L223.501 89.718C223.72 89.1344 224.028 88.5884 224.414 88.0992C225.066 87.5769 225.787 87.1464 226.555 86.8198C228.253 88.0802 229.866 89.4495 231.386 90.9191C234.232 94.0784 236.921 97.3682 239.689 100.684Z" fill="#020302"/>
<path d="M239.767 0.761719C239.315 1.83106 238.746 2.84688 238.07 3.79047C236.086 5.9837 233.945 8.22915 232.378 9.84796L223.057 12.0934C221.651 14.2138 220.428 16.4499 219.401 18.7775C217.99 22.6265 216.924 26.5935 216.216 30.6314C216.114 32.9137 216.334 35.199 216.869 37.42C217.13 39.3782 217.417 41.3104 217.6 43.2686C217.929 45.3933 218.077 47.542 218.044 49.6917C218.044 50.6577 216.921 51.5716 215.824 53.2687C214.989 51.8236 214.273 50.313 213.683 48.7517C213.109 46.689 213.083 44.4697 212.404 42.4331C211.856 40.8143 212.065 38.36 209.062 38.0989C208.147 40.7899 207.593 43.5909 207.417 46.4279C206.999 49.6394 206.581 52.8509 205.85 55.9841C205.406 57.8379 204.623 59.8223 201.803 59.5351C199.192 57.3419 200.55 54.4698 201.098 52.0938C201.816 48.14 201.816 44.0892 201.098 40.1354C197.704 46.5324 197.652 54.287 192.795 60.3184L189.793 58.5951C189.323 50.971 192.926 44.2086 193.344 35.984C192.408 36.9532 191.535 37.9824 190.733 39.0649C188.853 42.3374 187.025 45.6272 185.25 48.9345C184.205 50.8666 183.213 52.7465 180.524 52.3026C180.058 50.9488 179.891 49.51 180.036 48.0855C180.18 46.6611 180.631 45.2849 181.359 44.0519C183.97 37.8117 186.581 31.4931 188.931 25.1484C189.504 23.8802 189.686 22.47 189.453 21.098C189.221 19.726 188.584 18.4545 187.626 17.4459L173.448 13.8167C181.109 9.35086 189.2 5.66818 197.6 2.8244C198.305 2.93689 199.027 2.78984 199.632 2.41054C200.237 2.03124 200.684 1.44542 200.889 0.761719L239.767 0.761719Z" fill="#040402"/>
<path d="M87.4681 47.4201C87.1752 47.2885 86.9156 47.0928 86.7086 46.8473C86.5016 46.6018 86.3525 46.313 86.2723 46.0021C86.192 45.6912 86.1828 45.3662 86.2451 45.0512C86.3075 44.7362 86.4399 44.4393 86.6326 44.1825C88.7736 40.2921 88.6691 35.9579 89.4002 31.7542C89.9664 27.519 90.8391 23.3304 92.0112 19.2214C93.6955 13.2215 94.3662 6.98251 93.9955 0.761719L117.756 0.761719C117.756 1.28392 117.756 1.96277 117.912 2.35442C121.359 7.5764 124.805 12.7984 130.419 16.0882C131.62 16.8454 132.769 17.6548 133.996 18.2815C137.051 19.7697 140.184 21.0752 143.187 22.6679C144.858 23.5557 146.816 24.4173 146.685 27.0544C144.466 28.7776 142.377 27.7332 140.236 26.8194C137.798 25.7273 135.305 24.76 132.769 23.9212C132.038 23.6862 131.019 24.3912 129.531 24.8611C134.962 31.1797 142.586 34.6262 145.693 41.8065C144.544 44.4175 143.082 44.6263 141.463 43.5819C139.845 42.5375 139.061 41.467 137.808 40.4749C135.197 38.5166 132.586 36.6106 130.184 34.6785L127.938 33.138L127.364 33.7907L129.166 35.8795C130.471 37.5767 131.777 39.2738 133.108 41.1015C135.066 43.7125 137.103 46.1668 138.878 48.9345C140.262 50.9972 139.74 52.6943 136.685 53.582C130.027 49.9789 126.241 42.9553 119.792 37.4983C120.575 44.6786 125.014 49.5872 127.442 55.5664L124.831 58.9346C122.847 56.5063 121.019 54.5742 119.609 52.4071C117.129 48.6734 115.118 44.5741 112.455 41.0232C109.792 37.4722 107.05 32.433 101.829 31.2581C98.6692 31.2581 98.6692 31.2581 98.1992 34.4435L87.4681 47.4201Z" fill="#040402"/>
<path d="M0 83.8959H20.7313L22.7939 86.1675C24.8826 85.8542 26.9494 85.4094 28.982 84.8359C32.0837 83.9968 35.0475 82.7128 37.781 81.0238C43.003 77.1073 49.2171 76.1935 55.4313 75.4102C57.1876 75.2689 58.955 75.4368 60.6533 75.9063C66.2147 77.2118 71.75 78.6739 77.2853 80.0839C78.5647 82.1727 76.737 83.7131 76.3453 85.5147C71.4196 87.1541 66.1717 87.5839 61.0449 86.768L57.4418 86.4286C50.1023 85.4181 42.6271 86.2158 35.6661 88.7524V96.2459L29.0864 99.9796C30.0264 103.4 30.9402 106.455 31.6974 109.536C32.6896 113.635 33.5773 117.76 34.5173 121.886C32.8462 120.998 31.123 120.136 29.4781 119.275C27.3371 118.022 25.2744 116.664 22.9506 115.228L20.8879 117.369H0V83.8959Z" fill="#020302"/>
<path d="M152.169 182.043C148.822 186.922 146.642 192.505 145.798 198.361H123.108L122.273 197.004C120.445 193.766 118.617 190.528 116.842 187.291C114.649 183.244 112.56 179.118 110.34 175.097C109.322 173.244 108.043 171.546 106.972 169.719C106.527 168.82 106.135 167.896 105.797 166.951L121.463 175.776C125.38 173.844 126.32 173.165 127.442 169.719C129.453 163.452 131.098 157.029 132.847 150.659C133.552 148.048 134.022 145.437 136.79 144.235C139.27 145.776 139.114 147.656 138.539 149.98C137.215 154.715 136.798 159.659 137.312 164.549C137.987 163.657 138.606 162.724 139.166 161.755C141.176 157.369 143.004 152.904 145.119 148.7C146.685 145.489 147.26 145.358 151.464 146.089C151.269 147.78 150.955 149.456 150.524 151.102C149.218 155.176 147.704 159.223 146.294 163.27L145.328 164.915L144.884 166.507L145.458 166.821L146.92 165.123L147.312 164.105C149.14 161.494 151.046 158.883 152.821 156.272C154.048 154.392 154.571 151.912 157.051 151.05C160.106 152.147 159.662 154.34 158.748 156.272C156.738 160.293 154.466 164.105 152.325 168.074C151.62 169.405 150.941 170.685 149.923 172.721C156.712 172.721 158.461 166.011 163.787 164.888L165.354 166.69C163.686 169.732 161.411 172.398 158.67 174.523C156.294 177.16 154.283 179.667 152.169 182.043Z" fill="#040402"/>
<path d="M200.889 0.761719C200.684 1.44542 200.237 2.03124 199.632 2.41054C199.027 2.78984 198.305 2.93689 197.6 2.8244V0.761719H200.889Z" fill="#468F70"/>
<path d="M122.273 197.003L123.108 198.361H122.038L122.273 197.003Z" fill="#468F70"/>
<path d="M239.689 100.684C236.921 97.4205 234.232 94.0784 231.334 90.9191C229.811 89.4854 228.197 88.151 226.503 86.9243C225.734 87.2509 225.014 87.6814 224.362 88.2037C223.976 88.6929 223.668 89.2389 223.448 89.8225L233.892 106.167C233.633 106.357 233.396 106.576 233.187 106.82C229.584 103.609 226.007 100.345 222.352 97.1855C220.472 95.5667 218.409 94.1829 216.346 92.6163C215.328 93.3735 214.232 93.7912 214.049 94.444C213.67 95.6151 213.67 96.876 214.049 98.0471C214.691 99.3595 215.577 100.538 216.66 101.52C220.629 105.671 224.649 109.744 228.618 113.896C228.801 114.079 228.618 114.522 228.853 115.306C227.856 115.298 226.867 115.121 225.929 114.784C222.012 112.59 218.096 110.371 214.362 107.969C212.091 106.533 209.976 105.593 207.286 107.838C208.442 110.833 210.602 113.334 213.396 114.914C219.114 119.222 224.832 123.557 230.394 127.969C231.587 129.242 232.597 130.674 233.396 132.225L229.976 138.961L222.848 148.961C216.672 157.134 208.82 163.891 199.819 168.779C199.299 168.985 198.767 169.16 198.226 169.301C191.359 158.048 185.171 146.168 178.8 134.523C172.43 122.878 165.981 111.415 159.27 99.4049L232.639 66.6108C237.867 77.1778 240.295 88.9102 239.689 100.684Z" fill="#FDBD33"/>
<path d="M152.168 182.043C154.283 179.667 156.294 177.16 158.565 174.941C161.307 172.816 163.582 170.15 165.249 167.108L163.683 165.306C158.461 166.299 156.607 173.139 149.819 173.139C150.837 171.155 151.516 169.823 152.221 168.492C154.362 164.575 156.633 160.659 158.644 156.69C159.636 154.68 160.001 152.486 156.947 151.468C154.336 152.251 153.944 154.732 152.717 156.69C150.941 159.301 149.035 161.912 147.208 164.523L146.215 163.27C147.625 159.223 149.14 155.176 150.445 151.103C150.894 149.457 151.226 147.782 151.437 146.089C147.234 145.228 146.659 145.358 145.093 148.7C142.978 153.035 141.15 157.499 139.14 161.755C138.58 162.724 137.961 163.657 137.286 164.549C136.73 159.667 137.102 154.724 138.382 149.98C138.957 147.656 139.114 145.776 136.633 144.236C133.865 145.463 133.395 148.126 132.69 150.659C130.941 157.03 129.296 163.453 127.286 169.719C126.163 173.296 125.223 173.844 121.307 175.776L105.641 166.951H105.797L104.675 165.907C98.8106 161.192 93.5957 155.722 89.1653 149.64L153.735 101.99C166.581 125.35 179.358 148.561 192.064 171.625C184.623 177.761 166.816 182.382 152.168 182.043Z" fill="#FDBD33"/>
<path d="M173.448 13.8166L187.835 17.5503C188.82 18.5698 189.473 19.8648 189.706 21.2637C189.939 22.6625 189.742 24.0991 189.14 25.3833C186.686 31.728 184.205 38.0466 181.568 44.2868C180.84 45.5198 180.389 46.896 180.244 48.3204C180.1 49.7449 180.267 51.1837 180.733 52.5375C183.344 52.9814 184.414 51.1015 185.459 49.1694C187.199 45.8621 189.027 42.5723 190.942 39.2998C191.744 38.2173 192.616 37.1881 193.553 36.2189C193.135 44.4435 189.532 51.2059 190.002 58.83L193.004 60.5533C197.861 54.5219 197.913 46.7673 201.307 40.3703C202.025 44.3241 202.025 48.3749 201.307 52.3287C200.759 54.7047 199.506 57.5506 202.012 59.77C204.832 60.0572 205.615 58.0728 206.059 56.219C206.79 53.0859 207.208 49.8743 207.626 46.6628C207.802 43.8258 208.355 41.0249 209.271 38.3338C212.273 38.5949 212.064 40.9448 212.613 42.668C213.292 44.7046 213.318 46.9239 213.892 48.9866C214.482 50.5479 215.198 52.0585 216.033 53.5036C217.13 51.8065 218.2 50.8926 218.253 49.9266C218.286 47.7769 218.137 45.6282 217.809 43.5035C217.626 41.5453 217.339 39.6132 217.078 37.6549C223.525 43.8476 228.665 51.2698 232.195 59.4828C229.401 62.0938 170.706 88.9869 159.61 92.5901C158.887 90.6269 158.742 88.4974 159.192 86.4543C159.323 83.6083 159.819 80.7884 159.923 77.9425C160.419 64.8875 160.732 51.8326 161.255 38.7776C161.594 30.3964 162.195 22.0151 162.665 13.5816C166.216 11.4406 169.714 13.9732 173.448 13.8166Z" fill="#FDAD00"/>
<path d="M87.4681 47.42L98.1993 34.3651L101.829 31.258C107.051 32.4329 109.4 37.0283 112.273 40.8403C115.145 44.6524 116.946 48.4905 119.427 52.2242C120.889 54.3913 122.716 56.3235 124.649 58.7517L127.26 55.3835C124.962 49.4044 120.393 44.4957 119.609 37.3155C126.006 42.7724 129.844 49.796 136.503 53.3992C139.557 52.5114 140.08 50.7882 138.696 48.7516C136.92 46.1406 134.884 43.5296 132.925 40.9186C131.646 39.1954 130.314 37.4982 128.983 35.6967L130.079 34.4956C132.69 36.4277 135.171 38.3338 137.704 40.292C138.957 41.2842 140.027 42.5374 141.359 43.3991C142.691 44.2607 144.44 44.1301 145.589 41.6236C142.638 34.7045 134.936 31.1796 129.505 24.8611C130.993 24.3911 132.116 23.6861 132.743 23.9211C135.28 24.7769 137.773 25.7617 140.21 26.8715C142.351 27.7854 144.44 28.8298 146.659 27.1065C146.659 24.4955 144.832 23.6078 143.161 22.72C140.158 21.1273 137.025 19.8218 133.97 18.3336C132.743 17.7069 131.594 16.8975 130.393 16.1403C138.987 13.3479 148.035 12.2224 157.051 12.8244C157.79 15.9124 157.905 19.1169 157.39 22.2501C157.39 24.7305 156.764 27.2109 156.685 29.6914C156.189 43.4774 155.824 57.2895 155.354 71.0756C155.119 77.4986 154.701 83.9216 154.336 90.3447C154.256 91.0323 154.125 91.713 153.944 92.3812C150.315 91.4674 93.8912 58.1773 85.2749 51.9631L87.4681 47.42Z" fill="#FDAD00"/>
<path d="M97.2331 119.535L95.8754 123.661C91.8023 123.87 91.8023 123.87 85.7187 120.527C85.7147 122.02 85.1913 123.464 84.2384 124.612C83.2855 125.76 81.9625 126.541 80.4967 126.82L76.293 125.227C72.6898 130.449 72.4287 130.449 64.2302 125.802C63.6819 126.611 63.1336 127.447 62.507 128.23C61.7794 129.159 60.7716 129.828 59.6332 130.139C58.4949 130.449 57.2868 130.384 56.1884 129.953C52.4024 128.857 48.6165 127.708 44.8567 126.585C45.2744 126.011 45.5878 125.175 46.1361 124.966C47.2849 124.47 47.8332 123.896 47.3632 122.642L49.6348 118.987L56.9456 120.084C60.0526 115.645 60.0526 115.645 63.7341 115.044C64.5697 116.663 66.0579 116.924 67.9117 117.212L68.3034 114.601V114.444C70.1572 112.982 71.306 110.188 74.857 111.337L78.669 114.313L82.6377 116.924C83.4732 118.752 84.9093 118.674 86.4758 118.125L89.5829 118.334C90.2357 118.726 90.8362 119.405 91.5151 119.457C93.4994 119.561 95.3793 119.509 97.2331 119.535Z" fill="#040402"/>
<path d="M97.2332 119.536C95.3794 119.536 93.4994 119.536 91.6195 119.379C90.9407 119.379 90.3401 118.648 89.6874 118.256C90.9665 117.866 92.2768 117.586 93.6039 117.421C97.1548 117.421 100.68 117.421 103.917 117.421C104.472 115.197 105.352 113.068 106.528 111.102C108.184 109.574 110.037 108.275 112.037 107.238V89.3525C110.194 89.0983 108.436 88.4125 106.907 87.3509C105.378 86.2893 104.121 84.8817 103.238 83.2428L76.3975 85.5144C76.7891 83.7128 78.6168 82.1723 77.3374 80.0835L101.228 69.2218C104.048 71.5195 102.403 76.6892 105.771 79.6658L114.178 77.6553V116.977C113.425 117.861 112.476 118.558 111.406 119.011C110.337 119.464 109.176 119.662 108.017 119.588L97.2332 119.536ZM96.0582 81.7023L101.828 80.4229V79.6135H96.1104L92.6378 76.4804L79.1129 81.9895C80.079 82.6421 81.2423 82.9376 82.4027 82.8251C86.9459 82.4856 91.5151 82.094 96.0582 81.7023Z" fill="#10B981"/>
<path d="M47.2589 122.643C47.7289 123.896 47.2589 124.471 46.0317 124.967C45.4834 125.176 45.1701 126.011 44.7523 126.586L37.1021 129.197L35.64 122.852L34.465 121.807C33.5251 117.682 32.6373 113.557 31.6452 109.457C30.888 106.377 29.9741 103.322 29.0342 99.9013L35.5617 96.2198V88.7523C42.5549 86.1987 50.0681 85.4008 57.4417 86.4286C56.7107 87.003 55.9796 88.0213 55.1963 88.0735C52.5853 88.2824 49.8438 88.0735 46.7367 88.0735C44.4651 91.3372 42.298 94.8621 38.1726 95.7498V110.554L42.5852 111.024L46.1623 114.027C48.9299 114.027 51.3842 114.027 53.9952 114.027C55.1963 114.027 56.3712 113.322 57.5984 113.243C58.1467 113.243 58.7733 113.87 59.8961 114.497C55.3007 115.149 51.4626 115.828 47.6244 116.194C43.5554 116.207 39.5895 117.475 36.2666 119.823C37.1153 120.126 37.989 120.353 38.8776 120.502C39.9355 120.305 41.0252 120.363 42.056 120.672C43.0869 120.981 44.0292 121.531 44.8046 122.277C45.144 122.8 46.3973 122.565 47.2589 122.643ZM35.4572 113.661V104.34C31.7496 107.813 34.3084 110.737 35.4572 113.661Z" fill="#10B981"/>
<path d="M34.4651 121.703L35.64 122.747L34.4651 121.703Z" fill="#020302"/>
<path d="M104.831 166.011L105.954 167.056L104.831 166.011Z" fill="#040402"/>
<path d="M229.897 138.962L233.318 132.225C235.119 134.001 234.676 135.985 233.762 138.466L229.897 138.962Z" fill="#DDE6F6"/>
<path d="M233.866 106.063L234.206 107.369L233.161 106.716C233.37 106.472 233.607 106.253 233.866 106.063Z" fill="#FDBD33"/>
<path d="M101.828 31.2579L98.1992 34.4433C98.6692 31.284 98.6692 31.284 101.828 31.2579Z" fill="#468F70"/>
<path d="M129.061 35.8792L127.26 33.7904L127.938 33.1377L130.262 34.6782L129.061 35.8792Z" fill="#FDAD00"/>
<path d="M47.259 122.643C46.3974 122.643 45.1441 122.8 44.648 122.33C43.8726 121.584 42.9304 121.033 41.8995 120.724C40.8687 120.416 39.779 120.357 38.7211 120.554C37.8325 120.405 36.9588 120.178 36.1101 119.875C39.4329 117.527 43.3989 116.26 47.4679 116.246C51.3061 115.881 55.1442 115.202 59.7396 114.549C58.6168 113.922 57.9902 113.243 57.4419 113.296C56.2147 113.296 55.0398 114.001 53.8387 114.079C51.2277 114.21 48.8256 114.079 46.0058 114.079L42.4287 111.076L38.0161 110.606V95.8282C42.1415 94.9404 44.3086 91.4156 46.5802 88.1519C49.6873 88.1519 52.3766 88.2824 55.0398 88.1519C55.8231 88.1519 56.5542 87.0814 57.2852 86.5069L60.9928 86.8464C66.1196 87.6623 71.3675 87.2325 76.2932 85.5931L103.134 83.3215C104.017 84.9605 105.273 86.368 106.802 87.4296C108.331 88.4913 110.089 89.1771 111.933 89.4312V107.29C109.933 108.327 108.08 109.627 106.424 111.155C105.247 113.121 104.367 115.25 103.813 117.473C100.575 117.473 97.0506 117.473 93.4997 117.473C92.1726 117.639 90.8623 117.918 89.5832 118.309L86.4761 118.1C85.8494 115.672 84.2045 116.377 82.6379 116.899L78.6692 114.288C79.2436 113.635 79.6875 112.695 80.3925 112.356C81.9482 111.591 83.3163 110.492 84.3993 109.138C85.4824 107.784 86.2538 106.209 86.6589 104.523C89.061 96.0632 86.7894 89.3007 76.2149 88.178C72.7918 88.0082 69.3899 88.8044 66.3976 90.4756C64.7798 91.1517 63.3582 92.2241 62.2639 93.5941C61.1696 94.9641 60.4379 96.5876 60.1361 98.3148C59.8344 100.042 59.9723 101.817 60.5373 103.477C61.1023 105.137 62.076 106.628 63.3688 107.813C64.7004 109.223 66.2931 110.424 67.912 111.86L68.408 114.262V114.418C66.8415 114.21 65.1965 113.348 63.8388 114.967C60.0529 115.646 60.0529 115.646 56.8414 120.084L49.6089 118.988L47.259 122.643ZM101.359 98.2042C101.241 97.7281 101.021 97.2836 100.712 96.9024C100.404 96.5211 100.015 96.2124 99.5744 95.9981C99.1333 95.7838 98.6505 95.6692 98.1602 95.6624C97.6699 95.6556 97.1841 95.7567 96.7373 95.9587C96.1314 96.2097 95.5856 96.5861 95.1356 97.0631C94.6856 97.5401 94.3416 98.1069 94.1263 98.7264C93.9328 99.189 93.8495 99.6903 93.8828 100.191C93.9162 100.691 94.0653 101.177 94.3185 101.61C94.5716 102.043 94.9219 102.411 95.3416 102.685C95.7614 102.96 96.2392 103.133 96.7373 103.191C97.9762 103.049 99.1232 102.468 99.9708 101.553C100.818 100.638 101.311 99.4503 101.359 98.2042ZM47.9901 102.956C48.5642 103.203 49.1843 103.323 49.8089 103.311C50.4335 103.298 51.0481 103.152 51.6118 102.883C52.1754 102.613 52.6749 102.226 53.077 101.748C53.4791 101.27 53.7744 100.712 53.9432 100.11C53.8158 99.6534 53.5873 99.2312 53.2745 98.8748C52.9617 98.5183 52.5727 98.2369 52.1364 98.0513C51.7 97.8657 51.2274 97.7808 50.7537 97.8027C50.2801 97.8246 49.8174 97.9529 49.4 98.1781C47.494 98.9614 46.9979 100.554 47.9901 102.956Z" fill="#DDE6F6"/>
<path d="M146.816 165.254L145.354 166.951L144.779 166.638L145.223 165.045L146.816 165.254Z" fill="#10B981"/>
<path d="M146.816 165.254L145.223 165.045L146.189 163.4L147.208 164.236L146.816 165.254Z" fill="#FDBD33"/>
<path d="M68.4079 114.34L67.8857 111.938C66.2669 110.502 64.6742 109.327 63.3426 107.891C62.0433 106.693 61.0694 105.184 60.5119 103.507C59.9544 101.83 59.8317 100.039 60.1552 98.3012C60.4787 96.5637 61.2379 94.9367 62.3616 93.5726C63.4853 92.2084 64.9368 91.1517 66.5802 90.5015C69.5725 88.8303 72.9744 88.0341 76.3976 88.2038C86.8415 89.3266 89.1392 96.0368 86.8415 104.549C86.4365 106.234 85.665 107.81 84.582 109.164C83.4989 110.518 82.1309 111.616 80.5751 112.382C79.8702 112.721 79.4263 113.661 78.8519 114.314L75.0398 111.337C71.4106 110.084 70.2617 112.878 68.4079 114.34ZM70.2617 102.59L67.6507 106.768C70.6079 108.51 73.984 109.412 77.4158 109.379L75.7187 104.314L79.9224 102.825L80.9407 99.9794L79.4524 92.1464C71.6194 90.136 68.7212 91.4153 66.8413 97.8906L70.2617 102.59Z" fill="#10B981"/>
<path d="M63.7341 115.045C65.0918 113.426 66.7368 114.287 68.3034 114.496L67.9117 117.107C66.0579 116.925 64.5696 116.663 63.7341 115.045Z" fill="#10B981"/>
<path d="M82.7422 116.846C84.3088 116.324 85.9537 115.619 86.5803 118.047C85.0137 118.596 83.5516 118.674 82.7422 116.846Z" fill="#10B981"/>
<path d="M96.0584 81.7024C91.5152 82.0941 86.946 82.4857 82.4029 82.8252C81.2425 82.9377 80.0791 82.6422 79.113 81.9897L92.638 76.4805L96.1106 79.6659L96.0584 81.7024Z" fill="#DDE6F6"/>
<path d="M96.0581 81.7023V79.6135H101.828V80.4229L96.0581 81.7023Z" fill="#468F70"/>
<path d="M35.4571 113.661C34.3083 110.736 31.7495 107.812 35.4571 104.339V113.661Z" fill="#DDE6F6"/>
<path d="M101.359 98.2037C101.307 99.4701 100.796 100.674 99.9214 101.592C99.0471 102.509 97.8689 103.078 96.6065 103.191C96.1084 103.132 95.6306 102.959 95.2109 102.685C94.7911 102.41 94.4409 102.042 94.1877 101.609C93.9345 101.176 93.7854 100.691 93.752 100.19C93.7187 99.6899 93.802 99.1886 93.9955 98.7259C94.2108 98.1065 94.5548 97.5397 95.0048 97.0627C95.4548 96.5857 96.0007 96.2093 96.6065 95.9583C97.0593 95.732 97.5575 95.6116 98.0637 95.606C98.5698 95.6005 99.0706 95.71 99.5282 95.9262C99.9858 96.1424 100.388 96.4598 100.705 96.8543C101.022 97.2489 101.246 97.7103 101.359 98.2037Z" fill="#D1FAE5"/>
<path d="M47.99 102.956C46.8934 100.554 47.4939 98.9612 49.4 98.1779C49.8173 97.9528 50.28 97.8245 50.7537 97.8026C51.2274 97.7806 51.6999 97.8656 52.1363 98.0512C52.5726 98.2368 52.9616 98.5182 53.2744 98.8746C53.5872 99.231 53.8157 99.6533 53.9431 100.11C53.7743 100.712 53.479 101.27 53.0769 101.748C52.6749 102.226 52.1753 102.613 51.6117 102.882C51.0481 103.152 50.4334 103.298 49.8088 103.311C49.1842 103.323 48.5641 103.202 47.99 102.956Z" fill="#D1FAE5"/>
<path d="M70.2617 102.591L66.8413 97.8386C68.7212 91.3634 71.6455 90.0057 79.4524 92.0944L80.9406 99.9796L79.844 102.904L75.7187 104.314C76.3192 106.115 76.8675 107.708 77.4158 109.301C73.984 109.334 70.6079 108.432 67.6507 106.69L70.2617 102.591Z" fill="#D1FAE5"/>
</svg>
