<svg width="930" height="131" viewBox="0 0 930 131" fill="none" xmlns="http://www.w3.org/2000/svg">
<rect x="225.5" y="29.2617" width="38" height="73" rx="3" fill="#F1F5F9" stroke="#0050DB" stroke-width="2"/>
<rect x="233.5" y="28.2617" width="22" height="4" rx="2" fill="#0050DB"/>
<path d="M253.007 67.7222C250.776 65.4902 247.755 64.2617 244.5 64.2617C241.245 64.2617 238.224 65.4902 235.994 67.7222L238.115 69.8432C239.78 68.1782 242.046 67.2602 244.5 67.2602C246.954 67.2617 249.221 68.1782 250.886 69.8432L253.007 67.7222Z" fill="#10B981"/>
<path d="M257.155 63.1998C250.297 56.3403 238.704 56.3403 231.846 63.1998L233.967 65.3208C239.677 59.6103 249.324 59.6103 255.034 65.3208L257.155 63.1998Z" fill="#10B981"/>
<path d="M244.5 76.2617C246.157 76.2617 247.5 74.9186 247.5 73.2617C247.5 71.6049 246.157 70.2617 244.5 70.2617C242.843 70.2617 241.5 71.6049 241.5 73.2617C241.5 74.9186 242.843 76.2617 244.5 76.2617Z" fill="#10B981"/>
<path fill-rule="evenodd" clip-rule="evenodd" d="M302.5 53.7617H298.5V63.7617H288.5V67.7617H298.5V77.7617H302.5V67.7617H312.5V63.7617H302.5V53.7617Z" fill="#CEDDF8"/>
<g clip-path="url(#clip0_355_26661)">
<path d="M417 37.6616H341C338.7 37.6616 336.8 39.5616 336.8 41.8616V89.6616C336.8 91.9616 338.7 93.8616 341 93.8616H416.9C419.2 93.8616 421.1 91.9616 421.1 89.6616V41.8616C421.2 39.5616 419.3 37.6616 417 37.6616Z" fill="#F1F5F9"/>
<path d="M357.9 77.8618C358.7 77.8618 359.3 78.4618 359.3 79.2618C359.3 80.0618 358.7 80.6618 357.9 80.6618H349.5C348.7 80.6618 348.1 80.0618 348.1 79.2618C348.1 78.4618 348.7 77.8618 349.5 77.8618H357.9Z" fill="#98B8F1"/>
<path d="M370.6 84.8619C370.6 85.6619 370 86.2619 369.2 86.2619H349.5C348.7 86.2619 348.1 85.6619 348.1 84.8619C348.1 84.0619 348.7 83.4619 349.5 83.4619H369.2C369.9 83.4619 370.6 84.0619 370.6 84.8619Z" fill="#98B8F1"/>
<path d="M365.4 61.2619C367.7 59.6619 369.3 56.9619 369.3 53.8619C369.3 48.9619 365.4 44.9619 360.5 44.9619C355.6 44.9619 351.7 48.9619 351.7 53.8619C351.7 56.9619 353.2 59.6619 355.6 61.2619C351.1 63.1619 348 67.7619 348 72.9619H350.5C350.5 67.3619 355 62.7619 360.5 62.7619C366 62.7619 370.5 67.2619 370.5 72.9619H373C373 67.6619 369.8 63.1619 365.4 61.2619ZM360.5 60.2619C357 60.2619 354.3 57.4619 354.3 53.8619C354.3 50.3619 357.1 47.4619 360.5 47.4619C364 47.4619 366.7 50.2619 366.7 53.8619C366.7 57.3619 364 60.2619 360.5 60.2619Z" fill="#10B981"/>
<path d="M366.3 77.8618H374.7C375.5 77.8618 376.1 78.4618 376.1 79.2618C376.1 80.0618 375.5 80.6618 374.7 80.6618H366.3C365.5 80.6618 364.9 80.0618 364.9 79.2618C364.9 78.4618 365.6 77.8618 366.3 77.8618Z" fill="#98B8F1"/>
<path d="M381.8 84.8619C381.8 85.6619 381.2 86.2619 380.4 86.2619H374.8C374 86.2619 373.4 85.6619 373.4 84.8619C373.4 84.0619 374 83.4619 374.8 83.4619H380.4C381.2 83.4619 381.8 84.0619 381.8 84.8619Z" fill="#98B8F1"/>
<path d="M393.1 79.2618C393.1 80.0618 392.5 80.6618 391.7 80.6618H383.3C382.5 80.6618 381.9 80.0618 381.9 79.2618C381.9 78.4618 382.5 77.8618 383.3 77.8618H391.7C392.4 77.8618 393.1 78.4618 393.1 79.2618Z" fill="#98B8F1"/>
<path d="M409.9 79.2618C409.9 80.0618 409.3 80.6618 408.5 80.6618H400.1C399.3 80.6618 398.7 80.0618 398.7 79.2618C398.7 78.4618 399.3 77.8618 400.1 77.8618H408.5C409.3 77.8618 409.9 78.4618 409.9 79.2618Z" fill="#98B8F1"/>
<path d="M417 37.6616H341C338.7 37.6616 336.8 39.5616 336.8 41.8616V89.6616C336.8 91.9616 338.7 93.8616 341 93.8616H416.9C419.2 93.8616 421.1 91.9616 421.1 89.6616V41.8616C421.2 39.5616 419.3 37.6616 417 37.6616ZM418.4 89.6616C418.4 90.4616 417.8 91.0616 417 91.0616H341C340.2 91.0616 339.6 90.4616 339.6 89.6616V41.8616C339.6 41.0616 340.2 40.4616 341 40.4616H416.9C417.7 40.4616 418.3 41.0616 418.3 41.8616V89.6616H418.4Z" fill="#0050DB"/>
<path d="M409.9 53.4615C409.9 54.2615 409.3 54.8615 408.5 54.8615H383.2C382.4 54.8615 381.8 54.2615 381.8 53.4615C381.8 52.6615 382.4 52.0615 383.2 52.0615H408.5C409.3 52.0615 409.9 52.6615 409.9 53.4615Z" fill="#98B8F1"/>
<path d="M409.9 59.5616C409.9 60.3616 409.3 60.9616 408.5 60.9616H383.2C382.4 60.9616 381.8 60.3616 381.8 59.5616C381.8 58.7616 382.4 58.1616 383.2 58.1616H408.5C409.3 58.1616 409.9 58.7616 409.9 59.5616Z" fill="#98B8F1"/>
<path d="M409.9 65.4615C409.9 66.2615 409.3 66.8615 408.5 66.8615H383.2C382.4 66.8615 381.8 66.2615 381.8 65.4615C381.8 64.6615 382.4 64.0615 383.2 64.0615H408.5C409.3 64.0615 409.9 64.6615 409.9 65.4615Z" fill="#98B8F1"/>
</g>
<path fill-rule="evenodd" clip-rule="evenodd" d="M459.5 53.7617H455.5V63.7617H445.5V67.7617H455.5V77.7617H459.5V67.7617H469.5V63.7617H459.5V53.7617Z" fill="#CEDDF8"/>
<g clip-path="url(#clip1_355_26661)">
<path d="M578 89.2617C578 100.662 568.7 109.962 557.3 109.962C553.8 109.962 550.5 109.062 547.6 107.562C544.7 106.062 542.2 103.862 540.4 101.162C540 100.662 539.7 100.162 539.4 99.6617L539.3 99.5617H494V21.2617L497.9 23.1617L500.3 21.8617L503 23.1617L505.5 21.9617L508.2 23.2617L510.8 21.9617L513.3 23.2617L515.8 21.9617L518.5 23.2617L521.1 21.9617L523.7 23.2617L526.2 21.9617L528.9 23.2617L531.5 21.9617L534.1 23.2617L536.7 21.8617L539.2 23.1617L541.8 21.8617L544.4 23.2617L547 21.9617L549.6 23.2617L552.3 21.8617L554.8 23.1617L558.7 21.2617V68.5617C560.8 68.6617 562.8 69.1617 564.7 69.8617C564.9 69.9617 565.1 70.0617 565.3 70.1617C565.9 70.3617 566.4 70.6617 567 70.9617C567.2 71.0617 567.4 71.2617 567.6 71.3617C573.8 74.9617 578 81.6617 578 89.2617Z" fill="#F1F5F9"/>
<path d="M494 21.5615V99.8615H536.5L535.6 97.2615H496.6V25.7615L497.9 26.3615L500.4 25.0615L503.1 26.3615L505.6 25.0615L508.3 26.3615L511 25.0615L513.5 26.3615L516 25.0615L518.7 26.3615L521.3 25.0615L523.9 26.3615L526.4 25.0615L529.1 26.3615L531.7 25.0615L534.3 26.3615L537 25.0615L539.5 26.3615L541.8 25.0615L544.4 26.3615L547 25.0615L549.6 26.3615L552.3 25.0615L554.8 26.3615L556.1 25.7615V66.3615C556.5 66.3615 557 66.3615 557.4 66.3615C557.8 66.3615 558.3 66.3615 558.7 66.3615V21.5615L554.8 23.4615L552.3 22.1615L549.6 23.5615L547 22.2615L544.4 23.5615L541.8 22.1615L539.2 23.4615L536.7 22.1615L534.1 23.5615L531.5 22.2615L528.9 23.5615L526.2 22.2615L523.7 23.5615L521.1 22.2615L518.5 23.5615L515.8 22.2615L513.3 23.5615L510.8 22.2615L508.2 23.5615L505.5 22.2615L503 23.4615L500.3 22.1615L497.9 23.4615L494 21.5615ZM557.3 68.8615C556.9 68.8615 556.4 68.8615 556 68.8615C545.2 69.5615 536.6 78.5615 536.6 89.5615C536.6 89.8615 536.6 90.0615 536.6 90.3615C536.6 91.3615 536.7 92.4615 536.9 93.3615C537.1 94.5615 537.4 95.7615 537.9 96.8615C538 97.0615 538 97.1615 538.1 97.3615C538.3 97.9615 538.6 98.5615 538.9 99.1615C538.9 99.1615 538.9 99.2615 539 99.2615C539.1 99.4615 539.2 99.7615 539.4 99.9615C539.7 100.462 540 100.962 540.4 101.462C544.1 106.762 550.3 110.262 557.3 110.262C568.7 110.262 578 100.962 578 89.5615C578 81.9615 573.8 75.2615 567.6 71.6615C567.4 71.5615 567.2 71.3615 567 71.2615C566.4 70.9615 565.9 70.6615 565.3 70.4615C565.1 70.3615 564.9 70.2615 564.7 70.1615C562.8 69.4615 560.8 68.9615 558.7 68.8615C558.2 68.8615 557.8 68.8615 557.3 68.8615Z" fill="#0050DB"/>
<path d="M557.3 71.4619C557.7 71.4619 558.2 71.4619 558.6 71.5619C560.4 71.6619 562.2 72.0619 563.8 72.7619C564.6 73.0619 565.4 73.4619 566.2 73.8619C571.7 76.9619 575.5 82.8619 575.5 89.6619C575.5 99.6619 567.4 107.762 557.4 107.762C551.3 107.762 545.9 104.762 542.7 100.162L542.6 100.062L541.3 97.9619C541.2 97.8619 541.1 97.6619 541.1 97.5619C540.9 97.1619 540.7 96.7619 540.6 96.2619C539.8 94.2619 539.4 92.0619 539.4 89.7619C539.4 80.2619 546.8 72.3619 556.2 71.7619C556.4 71.4619 556.9 71.4619 557.3 71.4619Z" fill="white"/>
<path d="M501.7 77.9619C501.4 77.9619 501 78.0619 500.8 78.3619C500.6 78.5619 500.4 78.9619 500.4 79.2619C500.4 79.5619 500.5 79.9619 500.8 80.1619C501.1 80.3619 501.4 80.5619 501.7 80.5619C502 80.5619 502.4 80.4619 502.6 80.1619C502.8 79.9619 503 79.5619 503 79.2619C503 78.9619 502.9 78.5619 502.6 78.3619C502.4 78.0619 502.1 77.9619 501.7 77.9619Z" fill="#DDE6F6"/>
<path d="M506.9 77.9619C506.6 77.9619 506.2 78.0619 506 78.3619C505.8 78.5619 505.6 78.9619 505.6 79.2619C505.6 79.5619 505.7 79.9619 506 80.1619C506.2 80.3619 506.6 80.5619 506.9 80.5619C507.2 80.5619 507.6 80.4619 507.8 80.1619C508 79.9619 508.2 79.5619 508.2 79.2619C508.2 78.9619 508.1 78.5619 507.8 78.3619C507.6 78.0619 507.3 77.9619 506.9 77.9619Z" fill="#DDE6F6"/>
<path d="M512.1 77.9619C511.8 77.9619 511.4 78.0619 511.2 78.3619C510.9 78.5619 510.8 78.8619 510.8 79.2619C510.8 79.5619 510.9 79.9619 511.2 80.1619C511.4 80.3619 511.8 80.5619 512.1 80.5619C512.4 80.5619 512.8 80.4619 513 80.1619C513.2 79.9619 513.4 79.5619 513.4 79.2619C513.4 78.9619 513.3 78.5619 513 78.3619C512.8 78.0619 512.4 77.9619 512.1 77.9619Z" fill="#DDE6F6"/>
<path d="M517.2 77.9619C516.9 77.9619 516.5 78.0619 516.3 78.3619C516.1 78.5619 515.9 78.9619 515.9 79.2619C515.9 79.5619 516 79.9619 516.3 80.1619C516.5 80.3619 516.9 80.5619 517.2 80.5619C517.5 80.5619 517.9 80.4619 518.1 80.1619C518.3 79.9619 518.5 79.5619 518.5 79.2619C518.5 78.9619 518.4 78.5619 518.1 78.3619C517.9 78.0619 517.6 77.9619 517.2 77.9619Z" fill="#DDE6F6"/>
<path d="M522.4 77.9619C522.1 77.9619 521.7 78.0619 521.5 78.3619C521.3 78.5619 521.1 78.9619 521.1 79.2619C521.1 79.5619 521.2 79.9619 521.5 80.1619C521.7 80.3619 522.1 80.5619 522.4 80.5619C522.7 80.5619 523.1 80.4619 523.3 80.1619C523.5 79.9619 523.7 79.5619 523.7 79.2619C523.7 78.9619 523.6 78.5619 523.3 78.3619C523.1 78.0619 522.8 77.9619 522.4 77.9619Z" fill="#DDE6F6"/>
<path d="M527.6 77.9619C527.3 77.9619 526.9 78.0619 526.7 78.3619C526.5 78.5619 526.3 78.9619 526.3 79.2619C526.3 79.5619 526.4 79.9619 526.7 80.1619C526.9 80.3619 527.3 80.5619 527.6 80.5619C527.9 80.5619 528.3 80.4619 528.5 80.1619C528.7 79.9619 528.9 79.5619 528.9 79.2619C528.9 78.9619 528.8 78.5619 528.5 78.3619C528.3 78.0619 527.9 77.9619 527.6 77.9619Z" fill="#DDE6F6"/>
<path d="M532.8 77.9619C532.5 77.9619 532.1 78.0619 531.9 78.3619C531.7 78.5619 531.5 78.9619 531.5 79.2619C531.5 79.5619 531.6 79.9619 531.9 80.1619C532.1 80.3619 532.5 80.5619 532.8 80.5619C533.1 80.5619 533.5 80.4619 533.7 80.1619C533.9 79.9619 534.1 79.5619 534.1 79.2619C534.1 78.9619 534 78.5619 533.7 78.3619C533.4 78.0619 533.1 77.9619 532.8 77.9619Z" fill="#DDE6F6"/>
<path d="M561 91.5615C562.3 90.4615 563.1 88.8615 563.1 87.0615C563.1 83.7615 560.4 81.0615 557.1 81.0615C553.8 81.0615 551.1 83.7615 551.1 87.0615C551.1 88.8615 551.9 90.5615 553.2 91.5615C550.5 92.9615 548.7 95.7615 548.7 99.0615H551.1C551.1 95.7615 553.8 93.0615 557.1 93.0615C560.4 93.0615 563.1 95.7615 563.1 99.0615H565.5C565.5 95.8615 563.7 93.0615 561 91.5615ZM557.1 90.6615C555.1 90.6615 553.5 89.0615 553.5 87.0615C553.5 85.0615 555.1 83.4615 557.1 83.4615C559.1 83.4615 560.7 85.0615 560.7 87.0615C560.7 89.0615 559.1 90.6615 557.1 90.6615Z" fill="#98B8F1"/>
<path d="M548.5 36.1616H540.7V38.7616H548.5V36.1616Z" fill="#98B8F1"/>
<path d="M548.5 43.9619H540.7V46.5619H548.5V43.9619Z" fill="#98B8F1"/>
<path d="M533 51.6616H504.5V54.2616H533V51.6616Z" fill="#98B8F1"/>
<path d="M548.5 51.6616H540.7V54.2616H548.5V51.6616Z" fill="#98B8F1"/>
<path d="M527.8 59.4619H504.5V62.0619H527.8V59.4619Z" fill="#98B8F1"/>
<path d="M548.5 59.4619H540.7V62.0619H548.5V59.4619Z" fill="#98B8F1"/>
<path d="M533 67.1616H504.5V69.7616H533V67.1616Z" fill="#98B8F1"/>
<rect x="505.5" y="39.7617" width="2" height="8" fill="#10B981"/>
<rect x="520.5" y="45.7617" width="2" height="16" transform="rotate(90 520.5 45.7617)" fill="#10B981"/>
<rect x="509.5" y="39.7617" width="2" height="8" fill="#10B981"/>
<rect x="513.5" y="39.7617" width="2" height="8" fill="#10B981"/>
<rect x="517.5" y="39.7617" width="2" height="8" fill="#10B981"/>
<path fill-rule="evenodd" clip-rule="evenodd" d="M513.348 34.9856C512.845 34.6094 512.155 34.6094 511.652 34.9856C510.564 35.8006 511.14 37.5324 512.5 37.5324C513.86 37.5324 514.436 35.8006 513.348 34.9856ZM513.344 32.0338C512.86 31.671 512.14 31.671 511.656 32.0338L503.948 37.8045C503.045 38.4801 503.598 39.7617 504.792 39.7617H520.208C521.402 39.7617 521.955 38.4801 521.052 37.8045L513.344 32.0338Z" fill="#10B981"/>
</g>
<path fill-rule="evenodd" clip-rule="evenodd" d="M616.5 53.7617H612.5V63.7617H602.5V67.7617H612.5V77.7617H616.5V67.7617H626.5V63.7617H616.5V53.7617Z" fill="#CEDDF8"/>
<circle cx="678" cy="51.7617" r="18" fill="#F1F5F9" stroke="#0050DB" stroke-width="3"/>
<rect x="676.5" y="40.2617" width="3" height="12" fill="#10B981"/>
<rect x="687.107" y="58.7471" width="3" height="12" transform="rotate(135 687.107 58.7471)" fill="#10B981"/>
<path d="M650.986 90.3277H656.602V93.2617H659.104V90.3277H660.58V88.1677H659.104V80.6617H656.152L650.986 88.5097V90.3277ZM653.596 88.1677L656.602 83.4877V88.1677H653.596ZM665.726 87.1777C667.094 87.1777 667.724 88.1857 667.724 89.1757C667.724 90.3277 666.968 91.1737 665.87 91.1737C664.808 91.1737 664.142 90.5797 663.908 89.7157L661.712 90.3997C662.054 91.7317 663.296 93.4957 665.996 93.4957C668.498 93.4957 670.28 91.6057 670.28 88.9777C670.28 86.6377 668.462 85.0357 666.338 85.0357C665.69 85.0357 665.096 85.1617 664.538 85.4677L664.646 82.8937H669.506V80.6617H662.396L662.126 87.5017L664.232 87.8617C664.502 87.5737 664.97 87.1777 665.726 87.1777ZM689.703 87.0517C689.703 85.0357 688.641 83.6137 686.499 83.6137C685.239 83.6137 684.267 84.1537 683.709 85.0177C683.223 84.1537 682.341 83.6137 681.135 83.6137C679.857 83.6137 679.029 84.2977 678.687 84.9457V83.8477H676.257V93.2617H678.741V87.6277C678.741 86.5117 679.389 85.8457 680.271 85.8457C681.189 85.8457 681.729 86.4757 681.729 87.5377V93.2617H684.213V87.6457C684.213 86.5117 684.843 85.8457 685.743 85.8457C686.661 85.8457 687.219 86.5117 687.219 87.6277V93.2617H689.703V87.0517ZM691.568 93.2617H694.052V83.8477H691.568V93.2617ZM691.352 81.5797C691.352 82.3897 691.982 83.0017 692.792 83.0017C693.62 83.0017 694.25 82.3897 694.25 81.5797C694.25 80.7697 693.62 80.1577 692.792 80.1577C691.982 80.1577 691.352 80.7697 691.352 81.5797ZM700.965 83.6137C699.741 83.6137 698.841 84.2977 698.445 84.9457V83.8477H696.015V93.2617H698.499V87.6097C698.499 86.6017 699.147 85.8457 700.173 85.8457C701.019 85.8457 701.739 86.4937 701.739 87.5377V93.2617H704.223V87.8257C704.223 85.8277 703.647 83.6137 700.965 83.6137Z" fill="#0050DB"/>
<defs>
<clipPath id="clip0_355_26661">
<rect width="85" height="57" fill="white" transform="translate(336.5 37.2617)"/>
</clipPath>
<clipPath id="clip1_355_26661">
<rect width="85" height="90" fill="white" transform="translate(493.5 20.7617)"/>
</clipPath>
</defs>
</svg>
