<svg width="105" height="60" viewBox="0 0 105 60" fill="none" xmlns="http://www.w3.org/2000/svg">
<path d="M22.8413 37.7064C20.533 36.6458 17.9921 36.1298 15.4326 36.1995C13.8547 36.2127 10.4305 37.217 10.5011 37.7396C10.618 38.6069 15.0795 39.8299 16.4721 39.8333C21.7995 39.8333 22.6723 38.2799 22.8147 37.8291C22.8263 37.7893 22.8367 37.7473 22.8413 37.7064Z" fill="#A8A8A8"/>
<path d="M16.5474 33.9975C14.6929 32.2993 12.4367 31.0542 9.97093 30.3681C8.4475 29.9051 4.77899 29.8156 4.65397 30.3217C4.44791 31.1647 8.29122 33.6439 9.6329 34.0627C15.6282 35.9332 16.5474 33.9975 16.5474 33.9975Z" fill="#A8A8A8"/>
<path d="M12.1898 28.8158C10.7532 26.5796 8.77248 24.7069 6.4144 23.3579C4.96853 22.4851 1.19931 21.4421 0.924955 21.9338C0.472325 22.7525 3.74493 26.3122 5.01484 27.0934C10.6895 30.5824 12.1898 28.8158 12.1898 28.8158Z" fill="#A8A8A8"/>
<path d="M3.62229 19.7075C8.5445 24.1633 10.3712 22.6873 10.3712 22.6873C9.38956 20.2224 7.80015 18.0193 5.73495 16.267C4.47777 15.1456 0.959754 13.4442 0.592787 13.8806C-0.0149647 14.6087 2.52023 18.7087 3.62229 19.7075Z" fill="#A8A8A8"/>
<path d="M11.0344 17.5221C10.826 15.0285 9.97977 12.6244 8.56863 10.523L8.56631 10.5197C7.71662 9.1762 4.92559 6.69474 4.45907 6.98421C3.68346 7.46702 4.85961 11.819 5.60048 13.0166C8.9055 18.3419 11.0344 17.5221 11.0344 17.5221Z" fill="#A8A8A8"/>
<path d="M12.7804 12.0477C13.2296 10.1231 13.1601 8.12002 12.5779 6.22744L12.5744 6.22523C12.2445 5.0099 10.684 2.4522 10.2499 2.54391C9.52983 2.7019 9.38166 6.23628 9.66412 7.31018C10.9282 12.1074 12.7804 12.0477 12.7804 12.0477Z" fill="#A8A8A8"/>
<path d="M16.0909 8.15751C16.9371 6.74995 17.3909 5.16009 17.4106 3.53929L17.4083 3.53598C17.4615 2.4908 16.9024 0.0502175 16.5424 0.00270945C15.9439 -0.0746291 14.9344 2.65432 14.88 3.57354C14.6415 7.68685 16.0909 8.15751 16.0909 8.15751Z" fill="#A8A8A8"/>
<path d="M25.6844 37.7539C24.5198 38.0854 22.2104 39.5261 22.3794 39.8984C22.6595 40.516 26.2343 40.5127 27.2669 40.231C31.2097 39.1449 31.5084 37.818 31.5119 37.4556C31.5119 37.4236 31.5107 37.3915 31.5049 37.3595C29.559 37.0446 27.5632 37.1805 25.6844 37.7539Z" fill="#A8A8A8"/>
<path d="M35.5397 37.7555C34.6324 38.1379 32.9172 39.5304 33.0941 39.8154C33.3873 40.288 36.2814 39.9355 37.0872 39.6063C40.163 38.341 40.2622 37.2374 40.2261 36.9437C40.2227 36.9177 40.2183 36.8919 40.2102 36.8665C38.6007 36.802 36.9994 37.1074 35.5397 37.7555Z" fill="#A8A8A8"/>
<path d="M45.3411 35.4388C44.826 35.9588 44.0578 37.4084 44.2684 37.5575C44.6177 37.805 46.5264 36.7509 46.9871 36.2964C48.7426 34.5554 48.4733 33.7585 48.358 33.5639C48.3477 33.5468 48.3367 33.53 48.3233 33.5146C47.1818 33.9193 46.1595 34.5794 45.3411 35.4388Z" fill="#A8A8A8"/>
<path d="M59.3461 35.3716C59.844 35.8741 60.5866 37.2754 60.383 37.4195C60.0454 37.6588 58.2003 36.6398 57.7551 36.2005C56.0582 34.5176 56.3185 33.7474 56.4299 33.5592C56.4399 33.5427 56.4505 33.5265 56.4635 33.5116C57.5668 33.9027 58.555 34.5408 59.3461 35.3716Z" fill="#A8A8A8"/>
<path d="M69.4696 37.7555C70.3769 38.1379 72.092 39.5304 71.9152 39.8154C71.622 40.288 68.7279 39.9355 67.9221 39.6063C64.8463 38.341 64.747 37.2374 64.7832 36.9437C64.7866 36.9177 64.791 36.8919 64.7991 36.8665C66.4086 36.802 68.0099 37.1074 69.4696 37.7555Z" fill="#A8A8A8"/>
<path d="M89.5675 36.1994C87.008 36.1298 84.467 36.6469 82.1587 37.7065C82.1633 37.7473 82.1737 37.7893 82.1853 37.8291C82.3265 38.2799 83.1994 39.8333 88.5279 39.8333C89.9205 39.83 94.382 38.6069 94.4989 37.7396C94.5696 37.217 91.1453 36.2116 89.5675 36.1994Z" fill="#A8A8A8"/>
<path d="M83.2368 36.2392C84.3088 36.237 87.74 35.383 87.8291 34.7775C87.8789 34.4383 85.6065 33.8086 84.3111 33.7147C85.1168 33.2164 85.8762 32.6551 86.5789 32.032C87.2364 32.074 88.2135 31.9834 89.6547 31.5823C90.5032 31.3459 92.9331 29.9472 92.8023 29.4721C92.7236 29.187 90.4048 29.2368 89.4405 29.4975C89.1928 29.5594 88.9485 29.629 88.7089 29.7063C89.0053 29.3053 89.2819 28.8865 89.5378 28.4501C90.2671 28.3275 91.2962 27.9739 92.7201 27.1552C93.5652 26.6691 95.7426 24.4528 95.4417 23.9435C95.2599 23.6374 92.7513 24.286 91.7894 24.8296C91.4849 24.992 91.1897 25.1676 90.9049 25.3544C91.1006 24.7246 91.2615 24.0683 91.3819 23.3855C91.9503 23.1016 92.6356 22.6641 93.4563 21.9934C94.1671 21.4123 95.8028 19.0258 95.4104 18.6016C95.1742 18.3475 92.9041 19.3374 92.0938 19.9904C91.941 20.1075 91.7928 20.2279 91.6481 20.3517C91.6528 19.5794 91.6122 18.7784 91.5243 17.9497C91.9757 17.5608 92.4932 16.9963 93.0662 16.1743C93.5432 15.4882 94.3014 12.9945 93.8013 12.7183C93.5003 12.5526 91.7037 13.9734 91.1561 14.7435L91.155 14.7457C91.0867 14.8352 91.0219 14.9269 90.9582 15.0186C90.7452 14.338 90.4847 13.6884 90.1837 13.0663C90.3805 12.7073 90.575 12.2499 90.7521 11.6643C90.9362 11.0533 90.8401 9.04032 90.369 8.94972C90.1015 8.9 89.1812 10.1916 88.8953 10.9196C81.8593 1.23353 63.3211 0.934122 56.556 11.535C54.1851 9.97943 50.8767 9.95181 48.4781 11.535C41.7558 1.13189 23.2674 0.933017 16.1341 10.9981C15.8887 10.2888 14.9082 8.8989 14.6315 8.94972C14.1603 9.03921 14.0643 11.0522 14.2483 11.6643C14.4382 12.2941 14.65 12.7758 14.8619 13.1459C14.5505 13.7757 14.2854 14.412 14.0666 15.054C13.996 14.9501 13.923 14.8473 13.8466 14.7468L13.8455 14.7446C13.2991 13.9745 11.5013 12.5526 11.2003 12.7194C10.7002 12.9956 11.4584 15.4893 11.9354 16.1754C12.4725 16.9454 12.9622 17.4912 13.3928 17.8768C13.2805 18.6734 13.2308 19.47 13.2447 20.2611C13.1347 20.1694 13.0224 20.0788 12.9078 19.9915C12.0963 19.3396 9.82736 18.3486 9.5912 18.6027C9.19877 19.0258 10.8345 21.4134 11.5453 21.9945C12.3649 22.6641 13.0502 23.1027 13.6174 23.3855C13.7737 24.0838 13.9763 24.7699 14.224 25.4416C13.8999 25.2229 13.563 25.0174 13.2122 24.8307C12.2503 24.2871 9.7417 23.6385 9.55995 23.9446C9.25897 24.4539 11.4365 26.6702 12.2815 27.1563C13.8825 28.0767 14.9823 28.4081 15.7208 28.4855C16.0079 28.9462 16.3193 29.3948 16.6515 29.8278C16.2962 29.7008 15.9327 29.5903 15.5611 29.4975C14.5979 29.2368 12.278 29.1859 12.1993 29.4721C12.0697 29.9472 14.4995 31.3459 15.3469 31.5823C16.9606 32.0309 17.9921 32.0906 18.645 32.011C19.3129 32.6264 20.0341 33.1943 20.8051 33.708C19.5352 33.771 17.1204 34.4284 17.1725 34.7786C17.2628 35.3841 20.694 36.2381 21.7648 36.2403C23.4097 36.2403 24.5025 36.0658 25.2284 35.836C26.7182 36.3144 28.3146 36.6138 29.9978 36.701C43.3162 38.2854 54.5556 26.9553 50.0015 14.5756C51.4601 13.4796 53.5751 13.4796 55.0337 14.5756C49.9945 32.1215 67.1239 39.514 79.6355 35.7896C80.3578 36.0403 81.483 36.2392 83.2368 36.2392ZM46.9234 23.8308C45.2726 29.9604 38.5758 33.6252 32.129 33.465C18.7445 34.0627 11.3334 18.9573 21.4545 10.3286C32.2748 2.0246 51.0816 9.59384 46.9234 23.8308ZM72.9039 33.465C59.5866 34.0428 52.1281 19.0546 62.1681 10.3949C73.1389 1.9572 91.9642 9.57948 87.6497 24.0109C85.9364 30.061 79.2836 33.6208 72.9039 33.465Z" fill="#A8A8A8"/>
<path d="M95.0296 30.3682C92.5638 31.0543 90.3076 32.2994 88.4531 33.9975C88.4531 33.9975 89.3711 35.9332 95.3676 34.0638C96.7093 33.6451 100.553 31.1659 100.347 30.3229C100.222 29.8169 96.5542 29.9064 95.0296 30.3682Z" fill="#A8A8A8"/>
<path d="M98.5854 23.359C96.2285 24.708 94.2467 26.5807 92.8101 28.8169C92.8101 28.8169 94.3103 30.5835 99.985 27.0955C101.255 26.3144 104.527 22.7546 104.075 21.9359C103.801 21.4432 100.031 22.4851 98.5854 23.359Z" fill="#A8A8A8"/>
<path d="M94.6289 22.6862C94.6289 22.6862 96.4556 24.1633 101.378 19.7064C102.48 18.7087 105.015 14.6076 104.407 13.8806C104.042 13.4442 100.522 15.1456 99.2652 16.2659C97.2 18.0182 95.6106 20.2213 94.6289 22.6862Z" fill="#A8A8A8"/>
<path d="M99.3992 13.0166C100.14 11.8201 101.316 7.46813 100.541 6.98421C100.074 6.69474 97.2831 9.17621 96.4334 10.5197L96.4311 10.523C95.0199 12.6244 94.1725 15.0285 93.9653 17.5221C93.9653 17.5221 96.0942 18.3419 99.3992 13.0166Z" fill="#A8A8A8"/>
<path d="M95.3362 7.31018C95.6187 6.23738 95.4705 2.7019 94.7505 2.54391C94.3164 2.4522 92.7571 5.0088 92.426 6.22523L92.4225 6.22744C91.8403 8.12003 91.772 10.122 92.22 12.0477C92.2211 12.0477 94.0721 12.1074 95.3362 7.31018Z" fill="#A8A8A8"/>
<path d="M87.5901 3.53935C87.6098 5.16125 88.0636 6.75111 88.9098 8.15757C88.9098 8.15757 90.3581 7.68691 90.1196 3.57249C90.0652 2.65216 89.0557 -0.0767868 88.4572 0.0016567C88.0972 0.0502696 87.5392 2.49086 87.5913 3.53493L87.5901 3.53935Z" fill="#A8A8A8"/>
<path d="M79.3158 37.7539C77.4369 37.1805 75.4412 37.0457 73.4952 37.3595C73.4894 37.3904 73.4883 37.4236 73.4883 37.4556C73.4929 37.818 73.7904 39.1449 77.7333 40.231C78.7647 40.5116 82.3395 40.516 82.6208 39.8984C82.7898 39.5261 80.4815 38.0843 79.3158 37.7539Z" fill="#A8A8A8"/>
<path d="M52.4886 35.0194C53.1079 35.0194 53.61 34.5594 53.61 33.9919C53.61 33.4245 53.1079 32.9645 52.4886 32.9645C51.8693 32.9645 51.3672 33.4245 51.3672 33.9919C51.3672 34.5594 51.8693 35.0194 52.4886 35.0194Z" fill="#A8A8A8"/>
<path d="M32.3386 38.38C21.6384 38.38 13.8774 31.0497 13.8774 20.959C13.8774 10.8915 21.6384 3.59607 32.3386 3.59607C43.0388 3.59607 50.7997 10.9031 50.7997 20.959C50.7754 31.0497 43.0145 38.38 32.3386 38.38ZM32.3386 10.7175C25.7072 10.7175 22.2335 15.8673 22.2335 20.9706C22.2335 26.0856 25.7072 31.2701 32.3386 31.2701C38.8971 31.2701 42.4436 25.9696 42.4436 20.9706C42.4436 15.8673 38.9579 10.7175 32.3386 10.7175Z" fill="black"/>
<path d="M72.2848 38.38C61.5847 38.38 53.8237 31.0497 53.8237 20.959C53.8237 10.8915 61.5847 3.59607 72.2848 3.59607C82.9728 3.59607 90.7459 10.9031 90.7459 20.959C90.7338 31.0497 82.9728 38.38 72.2848 38.38ZM72.2848 10.7175C65.6413 10.7175 62.1798 15.8673 62.1798 20.9706C62.1798 26.0856 65.6534 31.2701 72.2848 31.2701C78.8434 31.2701 82.3898 25.9696 82.3898 20.9706C82.3898 15.8673 78.9163 10.7175 72.2848 10.7175Z" fill="black"/>
<path d="M52.2934 15.8789C54.7711 15.8789 57.1759 16.2501 59.4349 16.9228C60.941 17.3751 62.532 16.4705 62.8478 14.9627C62.8478 14.9511 62.86 14.9279 62.86 14.9163C63.1393 13.652 62.4713 12.3646 61.2446 11.8891C58.4754 10.822 55.4634 10.2305 52.3056 10.2305C49.1477 10.2305 46.1478 10.822 43.3786 11.8891C42.1519 12.353 41.4839 13.652 41.7633 14.9163C41.7633 14.9279 41.7754 14.9511 41.7754 14.9627C42.1033 16.4705 43.6823 17.3751 45.1883 16.9228C47.4231 16.2501 49.8157 15.8789 52.2934 15.8789Z" fill="black"/>
<path d="M5.25195 52.9976V45.2378H8.28091C9.8671 45.2378 10.8486 45.9701 10.8486 47.1499C10.8486 47.7656 10.5871 48.2538 10.0977 48.5685L9.84179 48.7285L10.1287 48.8234C11.0708 49.1326 11.5855 49.8188 11.5855 50.7491C11.5855 52.1161 10.4296 53.0003 8.64652 53.0003H5.25195V52.9976ZM7.18407 51.6659H8.25559C9.10494 51.6659 9.60836 51.2563 9.60836 50.5674C9.60836 49.9029 9.074 49.4879 8.21622 49.4879H7.18407V51.6659ZM7.18126 48.224H7.94061C8.65495 48.224 9.04869 47.9229 9.04869 47.3778C9.04869 46.8435 8.6887 46.5749 7.97717 46.5749H7.17845V48.224H7.18126Z" fill="black"/>
<path d="M16.5381 52.9976L14.3556 50.0412H14.0294V52.9976H12.1001V45.2378H15.25C16.6393 45.2378 18.1327 45.9918 18.1327 47.6463C18.1327 48.6417 17.573 49.374 16.5156 49.7619L16.3243 49.8297L18.8948 52.9976H16.5381ZM14.0294 48.6417H14.8562C15.6915 48.6417 16.1499 48.2945 16.1499 47.6653C16.1499 47.0306 15.6606 46.6699 14.8084 46.6699H14.0266V48.6417H14.0294Z" fill="black"/>
<path d="M22.7731 53.1712C20.2391 53.1712 18.397 51.457 18.397 49.0974C18.397 46.7458 20.2391 45.0371 22.7731 45.0371C25.307 45.0371 27.1463 46.7458 27.1463 49.0974C27.1492 51.457 25.307 53.1712 22.7731 53.1712ZM22.7731 46.7024C21.2009 46.7024 20.3769 47.9094 20.3769 49.1001C20.3769 50.2962 21.1981 51.5086 22.7731 51.5086C24.3283 51.5086 25.1692 50.2691 25.1692 49.1001C25.1692 47.9067 24.3452 46.7024 22.7731 46.7024Z" fill="black"/>
<path d="M32.462 52.9976L29.6524 49.7103V52.9976H27.7231V45.2378H29.6524V48.1019L32.1724 45.2378H34.7035L31.1796 48.8939L34.9791 52.9976H32.462Z" fill="black"/>
<path d="M35.2295 52.9976V45.2378H40.5927V46.7838L37.1588 46.7811V48.4545H39.9768V49.7808H37.1588V51.4516H40.5927V52.9976H35.2295Z" fill="black"/>
<path d="M45.7109 52.9976L43.5285 50.0412H43.2023V52.9976H41.2729V45.2378H44.4228C45.8122 45.2378 47.3055 45.9918 47.3055 47.6463C47.3055 48.6417 46.7487 49.374 45.6884 49.7619L45.4972 49.8297L48.0677 52.9976H45.7109ZM43.2051 48.6417H44.0319C44.8672 48.6417 45.3256 48.2945 45.3256 47.6653C45.3256 47.0306 44.8363 46.6699 43.9841 46.6699H43.2023V48.6417H43.2051Z" fill="black"/>
<path d="M52.4439 53.0844C49.9746 53.0844 48.1831 51.3919 48.1831 49.0594C48.1831 46.7295 49.9746 45.0398 52.4439 45.0398C53.4029 45.0398 54.2917 45.2975 55.006 45.7884L55.0566 45.8236L54.0413 47.2774L53.9879 47.2286C53.5829 46.876 53.0458 46.6834 52.4692 46.6834C50.9421 46.6834 50.1405 47.8822 50.1405 49.0621C50.1405 50.2392 50.9393 51.4326 52.4692 51.4326C53.0401 51.4326 53.5801 51.2373 53.9879 50.882L54.0413 50.8332L55.0566 52.287L55.006 52.3222C54.286 52.8213 53.4001 53.0844 52.4439 53.0844Z" fill="black"/>
<path d="M60.3522 52.9135V49.7537H57.478V52.9135H55.5684V45.2378H57.478V48.2457H60.3522V45.2378H62.2591V52.9135H60.3522Z" fill="black"/>
<path d="M83.4394 53.0844C82.1063 53.0844 81.0517 52.702 80.2164 51.9181L80.1714 51.8747L81.3582 50.6379L81.406 50.6895C82.036 51.3947 82.7672 51.5438 83.2706 51.5438C83.8387 51.5438 84.4181 51.297 84.4181 50.7491C84.4181 50.1524 83.7881 49.9192 83.0822 49.7131C81.451 49.2574 80.7226 48.5305 80.7226 47.3398C80.7226 45.8969 82.1822 45.0371 83.5941 45.0371C84.6206 45.0371 85.5093 45.3409 86.2996 45.9647L86.3502 46.0054L85.2253 47.2232L85.1775 47.1825C84.6768 46.7621 84.2184 46.575 83.6756 46.575C83.1806 46.575 82.6744 46.8245 82.6744 47.3046C82.6744 47.7575 82.9922 47.9908 84.0834 48.3325C85.6359 48.7909 86.4205 49.6019 86.4205 50.7383C86.4261 52.3521 84.8765 53.0844 83.4394 53.0844Z" fill="black"/>
<path d="M87.0474 52.9135V45.2378H92.3515V46.7675L88.9542 46.7648V48.4193H91.7413V49.732H88.9542V51.3838H92.3515V52.9135H87.0474Z" fill="black"/>
<path d="M97.417 52.9135L95.2599 49.9897H94.9365V52.9135H93.0269V45.2378H96.143C97.5183 45.2378 98.9948 45.9837 98.9948 47.6192C98.9948 48.6037 98.4436 49.3279 97.3945 49.7103L97.2061 49.7781L99.7485 52.9135H97.417ZM94.9365 48.6037H95.7549C96.5789 48.6037 97.0346 48.2593 97.0346 47.6381C97.0346 47.0116 96.5508 46.6536 95.7071 46.6536H94.9337V48.6037H94.9365Z" fill="black"/>
<path d="M67.0908 53.1712C64.613 53.1712 62.8159 51.457 62.8159 49.0974C62.8159 46.7431 64.613 45.0371 67.0908 45.0371C69.5685 45.0371 71.3656 46.7458 71.3656 49.0974C71.36 51.457 69.5629 53.1712 67.0908 53.1712ZM67.0908 46.7024C65.5552 46.7024 64.7508 47.9067 64.7508 49.1001C64.7508 50.2962 65.5552 51.5086 67.0908 51.5086C68.6095 51.5086 69.4307 50.2691 69.4307 49.1001C69.4307 47.9067 68.6235 46.7024 67.0908 46.7024Z" fill="black"/>
<path d="M76.3408 53.1712C73.863 53.1712 72.0659 51.457 72.0659 49.0974C72.0659 46.7431 73.863 45.0371 76.3408 45.0371C78.8157 45.0371 80.6156 46.7458 80.6156 49.0974C80.6128 51.457 78.8157 53.1712 76.3408 53.1712ZM76.3408 46.7024C74.8024 46.7024 74.0008 47.9067 74.0008 49.1001C74.0008 50.2962 74.8052 51.5086 76.3408 51.5086C77.8595 51.5086 78.6807 50.2691 78.6807 49.1001C78.6807 47.9067 77.8763 46.7024 76.3408 46.7024Z" fill="black"/>
<path d="M71.7117 47.9094C72.2855 47.9094 72.8423 47.9962 73.3654 48.1535C73.7142 48.2593 74.0826 48.0477 74.1557 47.6951C74.1557 47.6924 74.1585 47.687 74.1585 47.6843C74.2232 47.3886 74.0685 47.0876 73.7845 46.9764C73.1433 46.7268 72.4458 46.5885 71.7146 46.5885C70.9833 46.5885 70.2887 46.7268 69.6474 46.9764C69.3634 47.0848 69.2087 47.3886 69.2734 47.6843C69.2734 47.687 69.2762 47.6924 69.2762 47.6951C69.3521 48.0477 69.7178 48.2593 70.0665 48.1535C70.584 47.9962 71.138 47.9094 71.7117 47.9094Z" fill="black"/>
</svg>
