<svg width="17" height="18" viewBox="0 0 17 18" fill="none" xmlns="http://www.w3.org/2000/svg">
<path fill-rule="evenodd" clip-rule="evenodd" d="M0.666107 3.99891C3.67437 3.95809 6.41528 2.81033 8.5 0.944458C10.5847 2.81033 13.3256 3.95809 16.3339 3.99891C16.4431 4.64968 16.5 5.31821 16.5 6.00003C16.5 11.2249 13.1608 15.6698 8.5 17.3172C3.83923 15.6698 0.5 11.2249 0.5 6.00003C0.5 5.31821 0.556864 4.64968 0.666107 3.99891ZM12.2071 7.70711C12.5976 7.31658 12.5976 6.68342 12.2071 6.29289C11.8166 5.90237 11.1834 5.90237 10.7929 6.29289L7.5 9.58579L6.20711 8.29289C5.81658 7.90237 5.18342 7.90237 4.79289 8.29289C4.40237 8.68342 4.40237 9.31658 4.79289 9.70711L6.79289 11.7071C7.18342 12.0976 7.81658 12.0976 8.20711 11.7071L12.2071 7.70711Z" fill="#0050DB"/>
</svg>
