<svg width="167" height="179" viewBox="0 0 167 179" fill="none" xmlns="http://www.w3.org/2000/svg">
<path d="M147.217 26.662C147.914 26.8521 148.611 27.1056 149.308 27.3592C150.005 27.6761 150.701 28.0563 151.335 28.5C151.842 28.8803 152.285 29.2606 152.729 29.7676C153.615 28.5 154.502 27.4859 155.452 26.5352C156.023 25.9648 156.593 25.4577 157.226 25.0775C157.796 24.6338 158.43 24.2535 159 24L157.416 25.9648C156.91 26.5986 156.403 27.2958 155.896 27.9296C155.389 28.5634 154.882 29.2606 154.439 29.9577C153.932 30.6549 153.489 31.3521 153.045 32.0493L152.538 32.8732L152.095 32.3028C151.588 31.7324 151.018 31.2254 150.448 30.7183C149.878 30.338 149.244 29.8944 148.611 29.3873C147.407 28.4366 146.204 27.5493 145 26.4085C145.76 26.3451 146.52 26.4718 147.217 26.662Z" fill="#9AB8E7" fill-opacity="0.2"/>
<path d="M56.2172 2.66197C56.914 2.85211 57.6109 3.10563 58.3077 3.35916C59.0045 3.67606 59.7014 4.05634 60.3348 4.5C60.8416 4.88028 61.2851 5.26056 61.7285 5.76761C62.6154 4.5 63.5023 3.48592 64.4525 2.53521C65.0226 1.96479 65.5928 1.45775 66.2262 1.07746C66.7964 0.633803 67.4299 0.253521 68 0L66.4163 1.96479C65.9095 2.59859 65.4027 3.29577 64.8959 3.92958C64.3891 4.56338 63.8824 5.26056 63.4389 5.95775C62.9321 6.65493 62.4887 7.35211 62.0452 8.0493L61.5385 8.87324L61.095 8.30282C60.5882 7.73239 60.0181 7.22535 59.448 6.71831C58.8778 6.33803 58.2443 5.89437 57.6109 5.38732C56.4072 4.43662 55.2036 3.5493 54 2.40845C54.7602 2.34507 55.5204 2.47183 56.2172 2.66197Z" fill="#9AB8E7" fill-opacity="0.1"/>
<ellipse cx="99.5" cy="175" rx="67.5" ry="4" fill="#EBF3FF"/>
<path d="M99.7409 153.544C134.944 153.544 163.482 124.993 163.482 89.7722C163.482 54.5518 134.944 26 99.7409 26C64.5378 26 36 54.5518 36 89.7722C36 124.993 64.5378 153.544 99.7409 153.544Z" fill="#5479B8"/>
<mask id="mask0" mask-type="alpha" maskUnits="userSpaceOnUse" x="36" y="26" width="128" height="128">
<path d="M99.905 153.544C135.108 153.544 163.646 124.993 163.646 89.7722C163.646 54.5518 135.108 26 99.905 26C64.7018 26 36.1641 54.5518 36.1641 89.7722C36.1641 124.993 64.7018 153.544 99.905 153.544Z" fill="#407BFF"/>
</mask>
<g mask="url(#mask0)">
<path d="M148.736 37.4932L154.459 38.589C153.958 38.9699 153.611 39.5579 153.083 39.9254C157.177 39.9722 161.498 39.5044 165.432 40.5936C169.112 41.6226 172.278 40.3062 176.038 40.7072C178.242 40.9477 202.565 42.5848 201.864 45.8856C200.154 45.6184 197.91 44.7631 196.294 45.7052L199.166 46.9347C197.623 47.7833 193.482 48.505 193.509 49.9683C193.509 51.0174 194.952 51.4851 195.339 52.4206C195.726 53.356 195.553 54.8394 195.633 55.8217C194.491 54.7325 191.205 52.8081 190.757 51.3915C190.31 49.975 192.948 47.2554 189.054 47.8301C187.639 48.0372 187.785 49.3135 187.411 49.4538C186.51 49.8079 184.82 49.5473 183.825 49.5807C180.553 49.6943 180.766 50.3158 179.317 53.1489C181.287 53.503 183.858 53.4763 185.154 54.7726C186.45 56.0689 187.432 60.3587 185.996 61.675C185.281 62.3432 184.266 61.822 183.825 62.1762C183.384 62.5303 182.583 64.4079 182.73 64.9224C183.144 66.3724 187.685 67.9961 183.625 69.0652C183.11 68.2166 181.968 65.2164 181.08 64.8623C179.811 64.3611 178.315 66.3457 178.275 63.7264L176.459 65.2632C176.892 65.7868 177.463 66.1779 178.108 66.3918C178.753 66.6057 179.445 66.6337 180.105 66.4726C177.534 67.1408 179.29 69.1454 180.065 70.0608C181.254 71.464 181.321 71.5041 181.401 73.0744C181.534 75.9609 179.564 78.2729 176.599 78.9277C175.109 79.2551 174.028 78.7607 173.059 79.8097C171.603 81.3933 173.019 81.5203 173.847 82.8366C174.422 83.7654 175.584 85.6363 175.39 86.7589C175.23 87.7144 173.386 88.8904 172.598 89.6321C171.59 88.1621 170.835 86.1976 168.885 85.7232C168.711 88.1621 168.491 89.0976 170.221 90.9886C170.748 91.5699 171.416 91.8639 171.783 92.492C172.151 93.1201 172.051 94.4498 172.451 95.2717C167.342 92.5321 168.144 87.3068 166.394 82.4624C165.232 85.4292 164.096 81.3733 163.595 80.4579C162.447 78.4533 161.251 77.7851 158.981 79.1215C157.892 79.7897 154.973 82.5627 154.506 83.712C153.497 86.3446 155.327 87.4071 153.17 89.7257C151.554 88.5831 151.167 86.0774 150.572 84.3801C149.904 82.5226 148.715 80.4579 148.902 78.4333C147.714 80.9791 146.031 77.8252 144.929 76.8964C143.319 75.56 142.257 76.148 140.1 75.9476C139.258 75.7888 138.433 75.5517 137.636 75.2393C138.063 75.3529 136.681 74.4241 136.868 74.5043C136.58 74.3773 136.133 74.9252 135.726 74.7649C134.47 74.2771 132.106 71.7246 130.99 72.3594C131.478 73.3082 132.433 76.0211 133.408 76.5623C134.924 77.4042 136.079 75.687 137.242 75.8941C138.144 76.5051 138.936 77.2642 139.586 78.1392C139.786 79.0146 139.586 78.7005 138.918 79.8431C138.155 81.3195 136.917 82.4961 135.405 83.1841C134.223 83.8523 131.478 85.5896 130.062 85.623C128.212 85.6631 128.252 84.8746 127.464 83.3912C126.676 81.9078 123.029 73.0677 121.28 74.1101C122.675 77.1169 123.851 80.3576 125.574 83.2108C126.188 84.2332 127.932 87.5607 129.047 88.0151C130.383 88.5564 132.927 87.3469 134.103 86.9928C133.528 92.3383 129.147 94.3429 126.576 98.459C124.258 102.161 128.486 106.444 125.688 109.725C124.94 110.6 122.862 111.008 122.348 112.003C121.921 112.825 122.736 114.081 122.482 114.997C122.148 116.193 121.427 115.758 120.685 116.814C120.091 117.669 120.285 118.899 119.597 119.874C119.044 120.778 118.309 121.557 117.438 122.16C116.568 122.762 115.581 123.177 114.541 123.376C111.348 124.097 111.075 123.997 110.026 121.198C108.94 118.284 107.849 115.373 106.754 112.464C105.939 110.293 106.286 109.431 106.941 107.119C107.595 104.807 107.836 104.279 106.86 102.181C106.147 100.864 105.524 99.5 104.997 98.0981C104.636 96.9087 104.997 96.0267 104.844 94.7572C104.71 93.7816 104.743 93.2537 103.842 92.4586C103.595 92.2381 102.74 92.6925 102.426 92.5321C102.112 92.3717 101.838 91.3962 101.457 91.3227C99.8612 91.022 97.6706 92.0911 95.8273 92.1646C93.0156 92.2715 91.1523 92.2247 89.309 90.5008C87.4657 88.7769 85.8561 86.819 85.7092 84.2198C85.3886 78.5602 89.5962 76.4888 91.9337 71.9184C92.7151 70.4016 91.9337 69.847 93.9373 68.6843C94.9391 68.0896 95.2129 68.1431 96.4618 67.9092C99.4271 67.3546 102.546 67.241 105.545 66.8802C105.284 69.1387 105.097 68.7979 106.934 69.9071C108.397 70.7891 110.093 71.4373 111.609 72.1857C112.13 68.9717 116.431 71.317 118.795 71.5175C122.415 71.8382 121.774 70.1143 122.388 67.0874C120.966 67.1609 119.109 67.5818 117.753 67.1341C115.783 66.4659 116.064 65.6173 115.75 63.7531L113.519 64.1607C113.753 64.6089 113.888 65.1027 113.913 65.6079C113.939 66.1131 113.854 66.6179 113.666 67.0874C112.908 66.3959 112.211 65.6403 111.582 64.8289C111.288 64.3478 111.255 63.4123 110.995 63.0582C110.033 61.7819 108.196 60.7329 106.941 59.7172C105.445 61.8487 108.944 63.5059 110.474 64.3277C109.024 66.0383 108.617 67.7489 106.533 65.9047C108.877 66.0517 109.131 65.4503 107.989 63.84C106.76 62.116 105.151 61.1672 103.414 61.2674C103.147 61.2674 102.94 61.9957 102.673 62.0225C102.406 62.0492 101.584 61.4812 101.337 61.6082C101.09 61.7351 100.629 61.4478 100.396 61.5481C100.262 61.6082 100.516 62.4635 100.396 62.5704C99.3804 63.4791 98.6324 64.869 97.7241 65.7978C96.5353 67.0473 95.253 68.1698 93.4164 67.1341C92.0806 66.3524 91.5864 63.6929 92.4747 62.2964C93.5433 60.5925 95.9142 62.7174 97.4636 61.5681C99.0131 60.4188 96.936 58.6548 96.1279 57.7661C97.3907 57.3904 98.6232 56.9191 99.8145 56.3562C101.15 55.5878 100.776 54.9797 101.858 54.1779C102.7 53.5498 103.267 53.9374 103.822 53.2224C104.623 52.1733 102.853 51.0641 105.231 50.9572C103.929 54.2982 109.779 53.8839 111.469 52.6878C111.823 52.4339 111.509 51.5853 111.769 51.2245C112.089 50.9011 112.438 50.6081 112.811 50.3492V49.4605H113.946C114.708 48.8992 115.229 49.9215 115.596 48.545C113.953 48.8257 113.018 49.4204 111.97 48.358C110.48 46.8478 111.749 46.487 113.072 45.4313C110.661 43.7073 107.108 48.5851 110.06 49.0195C109.512 49.6877 108.023 52.3604 107.201 52.5676C105.558 52.9217 105.865 50.6432 105.638 49.534C104.55 49.9683 103.808 50.5095 103.067 50.0418C102.212 49.5072 102.239 48.0773 102.486 47.6363C102.994 46.7343 105.311 46.4269 106.199 45.7253C107.088 45.0237 107.535 43.5737 108.55 42.9256C111.936 40.7072 118.628 41.5224 121.727 43.8944C120.318 44.7497 118.561 44.1884 117.012 44.008C117.92 45.2108 119.189 46.6808 120.839 46.1663C121.046 46.0995 121.433 45.0437 121.821 44.7965C122.709 44.2152 124.232 43.9479 125.247 43.5871C128.653 42.391 131.298 42.3643 134.844 43.0191C133.101 38.3418 135.919 41.0145 139.158 40.4332C140.708 40.1592 142.124 38.9365 143.626 38.4286C145.31 38.0188 147.016 37.7064 148.736 37.4932Z" fill="white"/>
<path d="M51.1272 92.0511C49.8383 94.1893 48.6227 95.9066 48.182 98.3187C47.6009 101.526 48.4424 102.328 50.1388 105.221C50.5994 106.218 51.1755 107.158 51.8552 108.021C52.8503 109.03 54.5667 109.397 55.5619 110.4C57.1313 111.963 56.7707 113.38 56.8976 115.745C57.2115 120.777 57.0111 125.828 58.6674 130.632C59.5022 133.058 59.9631 135.069 61.6261 136.987C64.017 139.74 64.8919 139.82 68.4917 139.82C65.5598 137.501 64.3443 137.147 64.2708 133.619C64.2107 130.372 63.9369 129.436 65.9405 126.937C69.7072 122.26 74.9232 117.583 76.9335 112.003L78.9037 106.511C79.2844 105.455 81.0008 102.548 80.727 101.433C80.3329 99.8756 75.0434 98.7063 73.1667 97.998C72.372 97.6906 70.6756 97.3833 70.1012 96.7752C69.0393 95.6326 69.4334 93.3407 68.3915 92.1446C67.0558 90.5343 61.6394 88.67 59.5223 88.0553C58.0129 87.6143 57.4586 87.6811 55.7221 87.9284C54.1927 88.1422 52.5097 88.944 51.1873 89.1244C50.0448 89.1301 48.9072 88.9749 47.808 88.6634C45.9179 87.6744 46.8062 85.6966 47.0666 84.1531L43.3533 83.7187L45.3569 79.0414C43.7874 79.4891 43.4134 80.1172 42.278 80.6985C41.5501 81.0727 39.9939 81.9614 39.0923 81.4937C37.0887 80.4513 37.4293 76.1481 38.6248 74.5846C39.6199 73.2482 43.3399 72.306 45.2567 72.1123C49.0635 71.7314 48.9099 73.4486 49.9318 76.4021C51.3677 74.5913 49.7448 72.6936 50.5996 70.9897C51.3677 69.6466 54.2395 68.7646 55.4216 67.5686C58.6875 64.2677 59.9631 61.6217 64.578 59.998V60.9735L68.5384 59.4099H65.7134C65.8002 58.6333 66.0905 57.8934 66.5549 57.2651L63.5896 57.7061C66.0874 56.3697 69.9276 56.8575 72.0514 55.5077C74.3088 54.0644 71.4971 50.5163 70.6689 48.7189L67.944 50.3292C66.9222 48.8659 68.819 48.4783 66.4347 47.583C64.4311 46.8413 64.1305 47.583 63.0486 48.8124C61.9667 50.0419 59.0414 55.8485 57.2449 55.8418C57.7725 53.6234 58.427 53.3561 56.6772 52.3806C55.5285 51.7124 51.6949 52.0197 52.2492 49.7078C52.6299 48.1242 59.3152 45.4982 61.0049 44.536C60.7044 45.0973 60.6376 45.7722 60.3371 46.3401L63.5896 46.2867L61.586 44.5293C64.1038 44.2153 64.558 44.3957 65.8002 42.2842C64.1573 41.9635 63.0352 42.9524 61.7329 43.7475C62.0869 41.9434 60.0699 42.5582 58.7409 42.5381L49.6446 42.3978C47.2937 42.3644 44.876 42.1706 42.5252 42.2909C40.7687 42.3844 38.9855 43.0526 37.2357 43.0393C32.8278 43.0393 29.8157 41.1349 25.4011 42.1639C20.7261 43.2464 18.0546 45.3913 14.1276 48.0908L15.5034 49.7479L12.1641 52.0932C15.637 50.9239 20.4589 48.2578 24.0721 48.4382C26.1825 48.5452 28.4265 49.1866 28.9475 50.7368C29.4684 52.287 29.1211 55.0333 28.6737 56.5367C27.6585 59.9579 22.6028 65.0963 24.9937 68.9718C25.3009 69.4729 26.3295 69.533 26.6567 70.0676C27.2244 70.9697 26.7302 72.9408 26.9773 73.9899C27.2912 75.3263 28.313 78.126 30.0495 78.0458C28.9141 75.4933 28.1527 73.7026 27.919 70.9763C29.9226 71.5309 31.8727 76.3219 32.24 77.9656C32.4003 78.6873 32.0664 79.7029 32.3536 80.2776C32.7409 81.0527 35.5193 82.5895 36.2673 82.9036C37.3091 83.3379 38.6716 82.9036 39.66 83.3646C40.3947 83.692 41.5968 85.0551 42.3315 85.5763C42.8791 85.9572 43.567 85.877 44.0546 86.3046C44.5421 86.7323 44.7224 87.7079 45.1899 88.2357C46.0448 89.1445 47.4874 89.7057 48.6094 90.3405C49.3106 87.5475 50.8 91.276 51.1272 92.0511Z" fill="white"/>
<path opacity="0.2" d="M47.0869 43.0658C47.0869 42.264 48.229 40.9142 48.623 40.1859C47.4676 40.4933 45.7579 41.5757 45.2837 40.1859C47.3875 39.4776 48.5228 38.9163 50.6266 39.3039C53.0376 39.7582 53.7455 40.2193 56.2166 39.7983C55.7691 40.9343 55.2015 41.843 55.5488 43.0658H47.0869Z" fill="black"/>
<path opacity="0.2" d="M50.4595 38.0276C53.4715 39.4509 55.1345 39.0165 58.4738 38.6357C57.3451 38.3818 55.8024 37.5265 54.7605 37.3928C53.4916 37.2458 51.7351 37.8539 50.4595 38.0276Z" fill="black"/>
<path opacity="0.2" d="M59.0747 39.2638C58.4164 39.3831 57.7704 39.5621 57.1445 39.7983C57.341 40.2305 57.6098 40.626 57.9393 40.9676L60.7109 39.2638C60.1659 39.2337 59.6197 39.2337 59.0747 39.2638Z" fill="black"/>
</g>
<g clip-path="url(#clip0)">
<path d="M3.5 40.2C4.6 40.5 5.7 40.9 6.8 41.3C7.9 41.8 9 42.4 10 43.1C10.8 43.7 11.5 44.3 12.2 45.1C13.6 43.1 15 41.5 16.5 40C17.4 39.1 18.3 38.3 19.3 37.7C20.2 37 21.2 36.4 22.1 36L19.6 39.1C18.8 40.1 18 41.2 17.2 42.2C16.4 43.2 15.6 44.3 14.9 45.4C14.1 46.5 13.4 47.6 12.7 48.7L11.9 50L11.2 49.1C10.4 48.2 9.5 47.4 8.6 46.6C7.7 46 6.7 45.3 5.7 44.5C3.8 43 1.9 41.6 0 39.8C1.2 39.7 2.4 39.9 3.5 40.2Z" fill="#9AB8E7" fill-opacity="0.8"/>
</g>
<defs>
<clipPath id="clip0">
<rect width="22.1" height="14.2" fill="white" transform="translate(0 36)"/>
</clipPath>
</defs>
</svg>
