<svg width="125" height="26" viewBox="0 0 125 26" fill="none" xmlns="http://www.w3.org/2000/svg">
    <path
        d="M0.214722 1.17004H9.34731C11.0868 1.17004 12.3915 1.60493 13.3579 2.32974C14.421 3.19951 15.0008 4.45584 15.0008 6.0021C15.0008 7.78996 14.276 8.90134 12.8264 9.57783V9.67447C14.7592 10.3026 15.8706 12.0422 15.8706 14.12C15.8706 16.1011 15.0975 17.6474 13.8411 18.6138C12.7781 19.3869 11.4251 19.7251 9.58891 19.7251H0.214722V1.17004ZM8.42922 8.41813C9.39563 8.41813 10.1204 7.8866 10.1204 6.77523C10.1204 5.71218 9.39563 5.18065 8.3809 5.18065H5.24006V8.36981H8.42922V8.41813ZM8.8641 15.6179C9.97548 15.6179 10.7969 14.9414 10.7969 13.7334C10.7969 12.4287 9.92716 11.8489 8.8641 11.8489H5.28838V15.6662H8.8641V15.6179Z"
        fill="black"/>
    <path d="M16.6921 1.17004H21.4758V19.7735H16.6921V1.17004Z" fill="black"/>
    <path
        d="M22.4422 13.1536C22.4422 8.94969 25.1481 6.14709 29.352 6.14709C33.5559 6.14709 36.2135 8.99801 36.2135 13.1536C36.2135 17.3575 33.5559 20.1601 29.352 20.1601C25.1481 20.1601 22.4422 17.3575 22.4422 13.1536ZM31.4298 13.1536C31.4298 10.8342 30.705 9.38457 29.2554 9.38457C27.8058 9.38457 27.1293 10.8342 27.1293 13.1536C27.1293 15.473 27.8058 16.9709 29.2554 16.9709C30.705 16.9226 31.4298 15.473 31.4298 13.1536Z"
        fill="black"/>
    <path
        d="M36.7451 13.1536C36.7451 8.94969 39.451 6.14709 43.6549 6.14709C47.8588 6.14709 50.4681 8.94969 50.4681 13.1536C50.4681 17.3575 47.8105 20.1601 43.6066 20.1601C39.451 20.1601 36.7451 17.3575 36.7451 13.1536ZM45.7327 13.1536C45.7327 10.8342 45.0079 9.38457 43.5583 9.38457C42.1086 9.38457 41.4322 10.8342 41.4322 13.1536C41.4322 15.473 42.1086 16.9709 43.5583 16.9709C45.0079 16.9226 45.7327 15.473 45.7327 13.1536Z"
        fill="black"/>
    <path
        d="M51.4345 6.48532H55.88V8.46646H55.9767C56.8464 6.9202 58.0545 6.09875 59.9873 6.09875C61.6785 6.09875 62.9348 6.9202 63.563 8.36982H63.6596C64.7227 6.63028 66.124 6.09875 67.7669 6.09875C70.8594 6.09875 72.1641 8.36982 72.1641 11.414V19.7252H67.5253V12.2355C67.5253 10.8825 67.0904 10.0127 65.9307 10.0127C64.771 10.0127 64.1912 11.0758 64.1912 12.5254V19.7252H59.5524V12.2355C59.5524 10.8825 59.1175 10.0127 57.9578 10.0127C56.7981 10.0127 56.2183 11.0758 56.2183 12.5254V19.7252H51.4345C51.4345 19.7252 51.4345 6.48532 51.4345 6.48532Z"
        fill="black"/>
    <path
        d="M78.0108 17.9856H77.9625V19.7251H73.517V1.17004H78.1558V7.83828H78.2524C79.1222 6.67859 80.3302 6.05042 82.0214 6.05042C85.3556 6.05042 87.2884 9.0463 87.2884 13.0569C87.2884 17.5507 85.2106 20.16 81.7315 20.16C80.2819 20.16 78.784 19.4835 78.0108 17.9856ZM82.5046 13.0086C82.5046 10.8825 81.7315 9.48118 80.3302 9.48118C78.8806 9.48118 78.0108 10.8825 78.0108 13.0086C78.0108 15.1347 78.9289 16.536 80.3302 16.536C81.7315 16.536 82.5046 15.183 82.5046 13.0086Z"
        fill="black"/>
    <path
        d="M87.8199 13.1052C87.8199 8.94967 90.5742 6.09875 94.5365 6.09875C96.5176 6.09875 98.0155 6.72692 99.1752 7.8383C100.721 9.33623 101.398 11.6556 101.35 14.3616H92.4587C92.6519 16.0045 93.4251 16.8742 94.8264 16.8742C95.6478 16.8742 96.3726 16.4877 96.6626 15.6179H101.156C100.383 18.6621 98.0155 20.16 94.6814 20.16C90.5742 20.1117 87.8199 17.3091 87.8199 13.1052ZM92.4587 11.7039H96.7109C96.6142 10.1094 95.7445 9.28791 94.6331 9.28791C93.3284 9.23959 92.6036 10.1577 92.4587 11.7039Z"
        fill="black"/>
    <path
        d="M106.617 8.7563H106.713C107.68 6.92012 108.936 6.19531 110.531 6.19531C110.917 6.19531 111.159 6.24363 111.304 6.34027V10.3992H111.207C108.453 9.916 106.858 11.2207 106.858 14.2165V19.7734H102.171V6.48524H106.617V8.7563Z"
        fill="black"/>
    <path
        d="M111.787 19.7735H116.281C116.474 20.3533 117.054 20.8848 118.165 20.8848C119.663 20.8848 120.195 19.9667 120.195 18.5654V17.599H120.098C119.373 18.4688 118.359 19.097 116.909 19.097C114.058 19.097 111.545 16.9709 111.545 12.8153C111.545 8.99797 113.575 6.05042 116.667 6.05042C118.455 6.05042 119.518 6.77522 120.243 7.8866H120.34V6.43698H124.785V17.9373C124.785 20.0634 124.06 21.7063 122.949 22.6727C121.789 23.6874 120.147 24.1223 118.262 24.1223C114.686 24.1706 112.222 22.721 111.787 19.7735ZM120.388 12.622C120.388 10.9791 119.615 9.62614 118.262 9.62614C116.957 9.62614 116.136 10.7858 116.136 12.622C116.136 14.4099 116.957 15.6662 118.262 15.6662C119.567 15.6662 120.388 14.3616 120.388 12.622Z"
        fill="black"/>
</svg>
