<svg width="89" height="29" viewBox="0 0 89 29" fill="none" xmlns="http://www.w3.org/2000/svg">
    <g clip-path="url(#clip0_456_8898)">
        <path fill-rule="evenodd" clip-rule="evenodd"
              d="M6.8988 28.6941H8.96913V17.6339H6.8988V28.6941ZM14.488 28.5282H16.3423V21.5499L24.1475 28.6941V17.7998H22.2984V24.6588L14.488 17.6339V28.5282ZM28.3806 25.8495C29.3899 26.6358 30.6013 27.0903 31.9 27.0903C33.165 27.0903 34.0524 26.6548 34.0524 25.6931C34.0524 24.855 33.4865 24.5266 32.4954 24.1594L30.8908 23.6021C29.4115 23.0767 28.2864 22.3094 28.2864 20.5458C28.2864 18.6595 29.9895 17.6339 32.0262 17.6339C33.2739 17.6339 34.411 17.9475 35.2993 18.5031V20.3739C34.3756 19.6912 33.3646 19.2212 32.0659 19.2212C30.9478 19.2212 30.1122 19.6385 30.1122 20.5087C30.1122 21.295 30.6367 21.6095 31.5604 21.9257L33.3482 22.5531C35.0807 23.1622 35.8756 24.1067 35.8756 25.6603C35.8756 27.6148 34.1561 28.6941 31.9 28.6941C30.4173 28.6941 29.1566 28.2793 28.3806 27.7557V25.8495ZM40.7058 28.6941H42.7753V17.6339H40.7058V28.6941ZM52.4841 27.0203C54.8171 27.0203 56.064 25.5238 56.064 23.1614C56.064 20.7817 54.8162 19.2903 52.4841 19.2903H50.177V27.0203H52.4841V27.0203ZM48.2933 17.6339H52.5532C55.8324 17.6339 57.9528 19.7941 57.9528 23.1614C57.9528 26.5313 55.8324 28.6941 52.5532 28.6941H48.2933V17.6339ZM68.3027 17.6339V19.2903H63.2937V21.9517H67.786V23.5891H63.2928V27.0203H68.3027V28.6941H61.4031V17.6339H68.3027ZM75.6491 22.6421H77.7031C78.9188 22.6421 79.604 21.975 79.604 20.9493C79.604 19.9237 78.9188 19.2557 77.7031 19.2557H75.6491V22.6429V22.6421ZM75.6491 24.206V28.6941H73.8216V17.6339H77.7376C79.9704 17.6339 81.4151 18.784 81.4151 20.9493C81.4151 22.8011 80.6133 23.8647 78.905 24.1378L82.7907 28.6941H80.7118L76.9496 24.2069H75.65L75.6491 24.206ZM6.17556 6.73785C6.9852 6.44147 7.61598 5.55234 7.61598 4.32967C7.61598 2.29217 6.17556 1.23627 3.87107 1.23627H0V12.6101H4.23052C6.53502 12.6101 7.97544 11.4799 7.97544 9.34996C7.97544 8.14543 7.21937 7.08953 6.17556 6.73785ZM1.81802 6.01548V2.90394H3.85379C5.13262 2.90394 5.81611 3.36708 5.81611 4.44113C5.81611 5.51518 5.13176 6.01548 3.85379 6.01548H1.81802ZM1.81802 7.60884H4.19423C5.45579 7.60884 6.13927 8.23789 6.13927 9.27565C6.13927 10.2944 5.45492 10.9433 4.1951 10.9433H1.81888V7.60798L1.81802 7.60884ZM16.4218 12.795C19.0685 12.795 20.8511 11.2017 20.8511 8.09013V1.23627H18.9786V7.8672C18.9786 10.0533 18.0782 11.0729 16.4218 11.0729C14.7654 11.0729 13.8659 10.0533 13.8659 7.8672V1.23627H11.9934V8.07112C11.9934 11.2017 13.7933 12.795 16.4218 12.795V12.795ZM25.2596 11.7944C26.0338 12.3509 27.2945 12.795 28.7703 12.795C31.0213 12.795 32.7313 11.6458 32.7313 9.57203C32.7313 7.92337 31.9398 6.92276 30.2107 6.27471L28.429 5.60764C27.5105 5.27497 26.9886 4.94143 26.9886 4.1076C26.9886 3.18131 27.8164 2.73717 28.9328 2.73717C30.2289 2.73717 31.2373 3.23661 32.1558 3.95984V1.97678C31.2736 1.38489 30.139 1.05136 28.8965 1.05136C26.8624 1.05136 25.1697 2.14441 25.1697 4.14475C25.1697 6.01548 26.2861 6.83031 27.762 7.38591L29.3648 7.97867C30.3551 8.3675 30.9132 8.72005 30.9132 9.60918C30.9132 10.6279 30.031 11.0911 28.7703 11.0911C27.4742 11.0911 26.268 10.6089 25.2596 9.77595V11.7944V11.7944ZM39.4218 1.23627H37.5502V12.6093H39.4218V1.23627ZM44.7635 12.5954H46.5677V5.19634L54.1613 12.7717V1.21899H52.3622V8.49193L44.7635 1.04358V12.5954V12.5954ZM65.8617 1.23886V2.94196H61.0004V5.67936H65.3597V7.36344H61.0004V10.8915H65.8617V12.6127H59.1651V1.23886H65.8617ZM70.221 11.7867C70.9952 12.3431 72.255 12.7873 73.7318 12.7873C75.9818 12.7873 77.6927 11.6389 77.6927 9.56425C77.6927 7.91559 76.9003 6.91585 75.1722 6.26693L73.3896 5.60072C72.4711 5.26719 71.9492 4.93366 71.9492 4.09982C71.9492 3.17353 72.7769 2.72939 73.8933 2.72939C75.1894 2.72939 76.1978 3.2297 77.1163 3.95206V1.96987C76.2341 1.37711 75.0996 1.04358 73.857 1.04358C71.823 1.04358 70.1303 2.13664 70.1303 4.13698C70.1303 6.00771 71.2467 6.82253 72.7225 7.37813L74.3254 7.97089C75.3156 8.35973 75.8738 8.71227 75.8738 9.6014C75.8738 10.6202 74.9924 11.0833 73.7309 11.0833C72.4348 11.0833 71.2285 10.602 70.221 9.76817V11.7867V11.7867ZM81.5283 11.7867C82.3025 12.3431 83.5632 12.7873 85.0391 12.7873C87.29 12.7873 89 11.6389 89 9.56425C89 7.91559 88.2076 6.91585 86.4795 6.26693L84.6969 5.60072C83.7792 5.26719 83.2565 4.93366 83.2565 4.09982C83.2565 3.17353 84.0851 2.72939 85.2006 2.72939C86.4968 2.72939 87.506 3.2297 88.4237 3.95206V1.96987C87.5423 1.37711 86.4078 1.04358 85.1652 1.04358C83.1303 1.04358 81.4385 2.13664 81.4385 4.13698C81.4385 6.00771 82.5548 6.82253 84.0307 7.37813L85.6336 7.97089C86.6238 8.35973 87.182 8.71227 87.182 9.6014C87.182 10.6202 86.2998 11.0833 85.0391 11.0833C83.743 11.0833 82.5367 10.602 81.5283 9.76817V11.7867V11.7867Z"
              fill="#111111"/>
    </g>
    <defs>
        <clipPath id="clip0_456_8898">
            <rect width="89" height="27.8795" fill="white" transform="translate(0 0.971436)"/>
        </clipPath>
    </defs>
</svg>
