<svg width="46" height="38" viewBox="0 0 46 38" fill="none" xmlns="http://www.w3.org/2000/svg">
    <g clip-path="url(#clip0_456_8922)">
        <path
            d="M22.9984 3.7436C22.2813 1.95311 20.5343 0.0193996 17.2624 0.285039C13.0944 0.738143 11.7955 4.73245 12.4255 7.11533C10.7655 5.99127 7.94281 5.49701 5.47907 7.60742C2.29796 10.7962 3.99951 15.1087 5.74825 16.1431C3.82097 15.9647 0.774942 17.2669 0.101096 20.6736C-0.615743 24.9032 2.60856 27.3689 5.74825 27.3689H40.5638C44.1944 27.3689 46.2088 24.228 45.9828 21.2659C45.6267 17.4 42.0891 15.9168 40.1594 16.2346C41.7716 15.3351 43.9247 11.1098 40.6507 7.78813C38.0517 5.31604 34.7386 6.21555 33.5736 7.29373C34.2016 5.22861 33.1718 0.959738 28.9566 0.284579C28.6651 0.251957 28.3846 0.234497 28.1172 0.234497C24.8994 0.234957 23.4525 2.58718 22.9984 3.7436Z"
            fill="white"/>
        <path
            d="M6.05885 8.28041C4.22077 9.94435 3.55178 13.7146 6.86528 15.9186L20.0843 24.9879L13.6748 10.3037C12.3317 6.83852 8.65741 6.08289 6.05885 8.28041Z"
            fill="#F37021"/>
        <path
            d="M17.438 1.1411C15.2892 1.18489 12.0626 3.74368 13.4985 7.65101L20.1277 23.2852L22.4572 6.84103C22.9962 2.75503 19.904 0.868835 17.438 1.1411Z"
            fill="#CC004C"/>
        <path
            d="M23.4917 6.21386H24.7452C24.7452 6.21386 25.4145 6.21386 25.5056 6.52965C25.0124 6.93248 23.6697 6.98295 23.848 9.13465L25.9552 23.283L32.5391 7.60777C33.8858 4.10778 31.0591 1.18476 28.5516 1.09543C28.4345 1.08703 28.317 1.0802 28.1953 1.0802C25.9447 1.08013 23.3656 2.71578 23.4917 6.21386Z"
            fill="#6460AA"/>
        <path
            d="M32.2741 10.437L26.0468 24.945L39.2619 15.8279C42.3082 13.6673 41.8169 10.2128 40.1117 8.5053C39.3968 7.70162 38.0843 7.08081 36.6938 7.08081C35.0512 7.08048 33.2932 7.95177 32.2741 10.437Z"
            fill="#0089D0"/>
        <path
            d="M37.7822 17.8921L25.3716 26.5608H40.6527C43.7878 26.5608 45.8025 23.3283 44.9068 20.362C44.307 18.4974 42.5322 17.0338 40.4723 17.0317C39.6052 17.0321 38.6857 17.2932 37.7822 17.8921Z"
            fill="#0DB14B"/>
        <path
            d="M5.70275 26.561H20.7583L8.34457 17.8923C5.47669 16.0497 2.25199 17.1278 1.08783 20.1856C0.101017 23.6859 2.56489 26.561 5.70275 26.561Z"
            fill="#FCB711"/>
        <path
            d="M0.048624 32.8346C0.048624 34.3109 1.25552 36.9982 5.86388 36.9982C10.1127 36.9982 11.4546 35.0486 11.4546 34.1547H8.16524C8.16524 34.1547 8.00902 35.3357 6.15348 35.3357C4.29676 35.3357 3.79462 33.7859 3.79462 32.8898C3.79462 31.997 4.29676 30.5309 6.15348 30.5309C8.00902 30.5309 8.16524 31.5591 8.16524 31.5591H11.4546C11.4546 30.6642 10.47 28.7421 5.86388 28.7421C1.25552 28.7421 0.048624 31.604 0.048624 32.8346Z"
            fill="#292526"/>
        <path
            d="M34.5453 32.8346C34.5453 34.3109 35.7535 36.9982 40.3606 36.9982C44.609 36.9982 45.9514 35.0486 45.9514 34.1547H42.6644C42.6644 34.1547 42.5074 35.3357 40.6514 35.3357C38.7945 35.3357 38.2918 33.7859 38.2918 32.8898C38.2918 31.997 38.7945 30.5309 40.6514 30.5309C42.5074 30.5309 42.6644 31.5591 42.6644 31.5591H45.9514C45.9514 30.6642 44.9679 28.7421 40.3606 28.7421C35.7535 28.7421 34.5453 31.604 34.5453 32.8346Z"
            fill="#292526"/>
        <path
            d="M20.4443 28.8799V33.8777L16.6162 28.8799H12.3099V36.796H15.2622V31.7407L19.0233 36.796H23.3968V28.8799H20.4443Z"
            fill="#292526"/>
        <path
            d="M29.9046 34.9048V34.9152H27.4448V33.4617H29.9046V33.4664C30.4299 33.4664 30.8544 33.7893 30.8544 34.1868C30.8544 34.5833 30.4299 34.9048 29.9046 34.9048ZM27.4673 30.4195H29.8376V30.4229C30.2391 30.4229 30.5648 30.687 30.5648 31.0122C30.5648 31.3386 30.2391 31.6005 29.8376 31.6005V31.6041H27.4673V30.4195ZM32.3206 32.5875C32.858 32.5875 33.9818 31.9636 33.9818 30.7549C33.9818 29.0338 30.7768 28.8799 30.2852 28.8799H24.3802V36.796H30.2852C33.1253 36.796 34.2661 35.8988 34.2661 34.4005C34.2661 32.9022 32.3206 32.5875 32.3206 32.5875Z"
            fill="#292526"/>
    </g>
    <defs>
        <clipPath id="clip0_456_8922">
            <rect width="46" height="37.8222" fill="white"/>
        </clipPath>
    </defs>
</svg>
