<svg width="104" height="34" viewBox="0 0 104 34" fill="none" xmlns="http://www.w3.org/2000/svg">
    <g clip-path="url(#clip0_456_8894)">
        <path d="M32.1051 33.2314H0.178787V1.30518H32.1051V33.2314Z" fill="#FCD0AF"/>
        <path
            d="M8.34228 17.9603C8.34228 19.4732 8.7419 19.6302 10.4688 19.7015V20.2581H3.63255V19.7015C5.05974 19.6444 5.45936 19.4732 5.45936 17.9603V8.127C5.45936 6.61418 5.05974 6.44292 3.67537 6.38583V5.82922H15.7209L15.8065 9.01186H15.2071C14.6933 7.39913 14.1509 6.88534 11.3251 6.88534H9.14151C8.485 6.88534 8.34228 7.02806 8.34228 7.62748V12.1802H9.41268C11.6676 12.1802 12.1529 11.7806 12.424 10.2678H12.9807V15.3629H12.424C12.1243 13.6645 11.2823 13.2363 9.41268 13.2363H8.34228V17.9603ZM29.3648 5.82922H16.7342L16.4345 9.01186H17.1623C17.619 7.45622 18.3041 6.88534 19.8312 6.88534H21.6152V17.9603C21.6152 19.4732 21.2155 19.6302 19.5743 19.7015V20.2581H26.5247V19.7015C24.8977 19.6444 24.4838 19.4732 24.4838 17.9603V6.89962H26.2678C27.7949 6.89962 28.4657 7.45622 28.9366 9.02613H29.6645L29.3648 5.82922Z"
            fill="#3E474F"/>
        <path
            d="M38.142 19.2448C38.142 20.0583 38.356 20.1582 39.298 20.2011V20.4865H35.573V20.2011C36.3437 20.1582 36.572 20.0726 36.572 19.2448V13.8786C36.572 13.0508 36.358 12.9652 35.6016 12.9224V12.6227H42.1666L42.2095 14.3496H41.8812C41.61 13.479 41.3103 13.1935 39.769 13.1935H38.5701C38.2133 13.1935 38.1277 13.2792 38.1277 13.5932V16.0765H39.4692C40.6966 16.0765 40.9535 15.8624 41.1105 15.0346H41.4102V17.8176H41.1105C40.9535 16.89 40.4825 16.6616 39.4692 16.6616H38.142V19.2448ZM45.8916 19.2448C45.8916 20.0583 46.1057 20.1582 47.0476 20.2011V20.4865H43.1657V20.2011C44.1076 20.1582 44.3217 20.0726 44.3217 19.2448V13.8786C44.3217 13.0508 44.1076 12.9652 43.1657 12.9224V12.6227H47.0476V12.9224C46.1057 12.9509 45.8916 13.0508 45.8916 13.8786V19.2448ZM55.1541 14.0927C55.1541 13.322 54.94 13.0223 54.0837 12.9224V12.6227H56.8524V12.9224C55.9961 13.0223 55.7963 13.322 55.7963 14.0927V20.672H55.411L50.0447 14.478V19.0165C50.0447 19.7872 50.2445 20.0869 51.1008 20.1868V20.4722H48.3178V20.1868C49.1741 20.0869 49.3882 19.7872 49.3882 19.0165V13.7359C49.1171 13.2649 48.8031 13.0508 48.3178 12.9367V12.6369H50.4586L55.1398 18.046V14.0927H55.1541ZM59.35 17.6749L60.5346 14.5636L61.7049 17.6749H59.35ZM64.9874 20.4865V20.2011C64.4023 20.2153 64.2453 19.9584 63.9456 19.2163L61.1768 12.4371H60.7915L57.9086 19.4446C57.7087 19.9299 57.4518 20.0726 56.9523 20.1868V20.4722H59.4499V20.1868C58.9076 20.1868 58.6364 20.0726 58.6364 19.6873C58.6364 19.359 58.9932 18.4884 59.0931 18.2458H61.9332C62.0189 18.5027 62.4042 19.3733 62.4042 19.6873C62.4042 20.0726 62.1188 20.1868 61.5764 20.1868V20.4722L64.9874 20.4865ZM72.6086 14.0927C72.6086 13.322 72.3945 13.0223 71.5525 12.9224V12.6227H74.3212V12.9224C73.4649 13.0223 73.2509 13.322 73.2509 14.0927V20.672H72.8655L67.4993 14.478V19.0165C67.4993 19.7872 67.7134 20.0869 68.5697 20.1868V20.4722H65.7866V20.1868C66.643 20.0869 66.857 19.7872 66.857 19.0165V13.7359C66.5859 13.2649 66.2719 13.0508 65.7866 12.9367V12.6369H67.9274L72.6086 18.046V14.0927ZM82.5419 18.6311C81.7141 20.0298 80.6437 20.672 79.0167 20.672C76.462 20.672 74.9492 18.9879 74.9492 16.4761C74.9492 14.6921 76.3621 12.4371 79.1023 12.4371C79.9158 12.4371 81.0861 12.8938 81.2574 12.8938C81.4857 12.8938 81.5571 12.7654 81.7426 12.4371H82.128L82.285 15.0632H81.9424C81.4715 13.8501 80.658 12.9652 79.2879 12.9652C77.4325 12.9652 76.6333 14.9633 76.6333 16.4761C76.6333 18.6026 77.5467 20.0155 79.5019 20.0155C81.029 20.0155 81.8711 18.888 82.2279 18.3885L82.5419 18.6311ZM86.3525 19.2448C86.3525 20.0583 86.5665 20.1582 87.5085 20.2011V20.4865H83.6265V20.2011C84.5685 20.1582 84.7826 20.0726 84.7826 19.2448V13.8786C84.7826 13.0508 84.5685 12.9652 83.6265 12.9224V12.6227H87.5085V12.9224C86.5665 12.9509 86.3525 13.0508 86.3525 13.8786V19.2448ZM90.7197 17.6749L91.9042 14.5636L93.0745 17.6749H90.7197ZM96.3571 20.4865V20.2011C95.7719 20.2153 95.6149 19.9584 95.3152 19.2163L92.5465 12.4371H92.1611L89.2782 19.4446C89.0784 19.9299 88.8215 20.0726 88.322 20.1868V20.4722H90.8196V20.1868C90.2772 20.1868 90.0061 20.0726 90.0061 19.6873C90.0061 19.359 90.3629 18.4884 90.4628 18.2458H93.3029C93.3885 18.5027 93.7739 19.3733 93.7739 19.6873C93.7739 20.0726 93.4884 20.1868 92.9461 20.1868V20.4722L96.3571 20.4865ZM97.0421 20.4865V20.2011C97.7985 20.1725 98.0126 20.0726 98.0126 19.2448V13.8786C98.0126 13.0508 97.7985 12.9652 97.0421 12.9224V12.6227H100.667V12.9224C99.7966 12.9509 99.5825 13.0508 99.5825 13.8786V19.4018C99.5825 19.8728 99.7252 20.0298 100.596 20.0298C102.009 20.0298 102.837 19.7729 103.507 18.3885H103.807L103.279 20.4865C103.293 20.4865 97.0421 20.4865 97.0421 20.4865ZM37.2999 32.8745C38.199 32.8317 38.4131 32.7461 38.4131 31.9183V25.8813H37.4426C36.5292 25.8813 36.1724 26.2523 35.9155 27.3085H35.573L35.7585 25.2961H42.6519L42.8374 27.3085H42.4949C42.238 26.2381 41.8812 25.8813 40.9678 25.8813H39.9973V31.9183C39.9973 32.7318 40.2114 32.8317 41.1105 32.8745V33.1599H37.3142V32.8745H37.2999ZM46.3769 31.9326C46.3769 32.7461 46.5909 32.846 47.5329 32.8745V33.1742H43.6509V32.8745C44.5929 32.846 44.8069 32.7461 44.8069 31.9326V26.5663C44.8069 25.7528 44.5929 25.6529 43.6509 25.6244V25.3247H47.5329V25.6244C46.5909 25.6529 46.3769 25.7528 46.3769 26.5663C46.3769 26.5521 46.3769 31.9326 46.3769 31.9326ZM55.782 25.3104H58.4937V25.6101C57.7373 25.6387 57.5232 25.7386 57.5232 26.5521V31.9183C57.5232 32.7318 57.7373 32.8317 58.4937 32.8745V33.1599H54.9543V32.8745C55.7249 32.8317 55.9533 32.7461 55.9533 31.9183V26.3951H55.9248L53.2987 33.2741H52.9419L50.373 26.4093H50.3444V31.7042C50.3444 32.4749 50.5585 32.7746 51.4148 32.8745V33.1599H48.6461V32.8745C49.5024 32.7746 49.7022 32.4749 49.7022 31.7042V26.3665C49.7022 25.8242 49.4739 25.6101 48.6461 25.6101V25.3104H51.5005L53.5984 30.7623C53.5842 30.7623 55.782 25.3104 55.782 25.3104ZM59.6069 33.1742V32.8888C60.3633 32.846 60.5774 32.7603 60.5774 31.9326V26.5663C60.5774 25.7528 60.3633 25.6529 59.6069 25.6244V25.3247H66.172L66.2148 27.0516H65.8865C65.6011 26.181 65.3014 25.8955 63.7743 25.8955H62.5897C62.2329 25.8955 62.1473 25.9812 62.1473 26.2952V28.7785H63.4889C64.7163 28.7785 64.9731 28.5644 65.1301 27.7366H65.4298V30.5054H65.1301C64.9731 29.5777 64.5022 29.3493 63.4889 29.3493H62.1473V32.0753C62.1473 32.5463 62.29 32.7032 63.6744 32.7032C65.0873 32.7032 65.9151 32.4464 66.5859 31.062H66.8856L66.3575 33.1599H59.6069V33.1742ZM67.9132 30.7052H68.2129C68.5411 31.747 69.5402 32.8317 70.6962 32.8317C71.6952 32.8317 72.052 32.1466 72.052 31.5187C72.052 29.7204 67.9845 29.3779 67.9845 27.1372C67.9845 26.0525 69.0406 25.1249 70.2395 25.1249C71.424 25.1249 71.8379 25.5387 72.3517 25.5387C72.5658 25.5387 72.7085 25.3675 72.7656 25.1249H73.0653V27.6224H72.7656C72.4374 26.495 71.6381 25.6529 70.5677 25.6529C69.6971 25.6529 69.3689 26.2238 69.3689 26.7519C69.3689 28.3503 73.4364 28.4074 73.4364 31.1619C73.4364 32.4035 72.4231 33.3455 71.0102 33.3455C69.6258 33.3455 69.269 32.8602 68.7267 32.8602C68.5268 32.8602 68.3841 33.003 68.3413 33.2456H67.9274L67.9132 30.7052Z"
            fill="#3E474F"/>
    </g>
    <defs>
        <clipPath id="clip0_456_8894">
            <rect width="104" height="33.2371" fill="white" transform="translate(0 0.29248)"/>
        </clipPath>
    </defs>
</svg>
