<svg width="88" height="24" viewBox="0 0 88 24" fill="none" xmlns="http://www.w3.org/2000/svg">
<g clip-path="url(#clip0_456_8912)">
<path d="M9.51192 2.67918H11.4145C12.5731 2.50849 13.7563 2.65857 14.8357 3.11309C16.1898 3.92777 17.1719 5.23932 17.5727 6.76796C17.8564 7.56903 17.8564 7.56903 18.5406 7.28532H19.0747V0.943537H1.16747V2.06169H1.90178C2.22088 2.05948 2.53642 2.12879 2.82522 2.26453C3.11402 2.40026 3.36874 2.59898 3.57067 2.84607C4.25491 3.94754 4.37174 5.18252 4.37174 11.6077C4.37174 18.4335 4.22154 20.1024 3.57067 20.9535C3.40999 21.1723 3.20195 21.352 2.9621 21.4792C2.72225 21.6063 2.45677 21.6777 2.18549 21.6878C1.16747 21.8714 1.16747 21.8547 1.16747 22.3053C1.11117 22.456 1.11117 22.6219 1.16747 22.7726H12.4659C12.5406 22.6252 12.5796 22.4623 12.5796 22.297C12.5796 22.1317 12.5406 21.9687 12.4659 21.8213C12.1922 21.7452 11.9133 21.6894 11.6314 21.6545C11.3265 21.6182 11.025 21.5568 10.7302 21.4709C10.308 21.1626 9.97354 20.7496 9.75988 20.2725C9.54621 19.7954 9.46074 19.2708 9.51192 18.7506C9.34503 17.6491 9.26158 15.6298 9.26158 13.9609V12.6425H9.92914C10.7608 12.617 11.5921 12.7069 12.3991 12.9095C12.7857 13.1484 13.1148 13.4697 13.3629 13.8505C13.611 14.2313 13.772 14.6622 13.8343 15.1124L13.9845 15.6298H15.0026V8.23659H14.068L13.9178 8.95421C13.8546 9.4146 13.6843 9.85374 13.4205 10.2363C13.1567 10.6189 12.8069 10.9343 12.3991 11.1571C12.0042 11.2747 11.5881 11.3032 11.1808 11.2406H9.26158V9.43819C9.26158 7.56903 9.36172 3.63045 9.42847 3.01296L9.51192 2.67918ZM87.616 15.9135C86.8271 14.6438 85.5967 13.7106 84.1614 13.2933C83.061 12.9494 82.0438 12.3811 81.174 11.6244C80.9783 11.4351 80.8319 11.2008 80.7475 10.9419C80.6632 10.683 80.6434 10.4074 80.6901 10.1391C80.6914 9.6129 80.9014 9.1087 81.2742 8.73725C81.5268 8.47266 81.8466 8.28167 82.1993 8.18467C82.552 8.08767 82.9245 8.08831 83.2768 8.18652C84.0064 8.39445 84.6662 8.79585 85.1862 9.34819C85.7062 9.90054 86.0672 10.5833 86.2308 11.324C86.4978 12.075 86.5312 12.075 87.0152 11.8748L87.3156 11.7579V7.60241L87.0986 7.50227C85.4556 6.92522 83.7127 6.68679 81.9751 6.80134C80.4787 6.83925 79.0504 7.4344 77.9698 8.47023C77.4797 8.92899 77.0958 9.48933 76.845 10.112C76.5942 10.7347 76.4826 11.4047 76.5178 12.075C76.5272 13.0999 76.9341 14.0812 77.6527 14.812C78.4468 15.593 79.4213 16.1663 80.4898 16.4809C83.0766 17.4989 83.8276 18.1498 83.8276 19.3347C83.8387 19.8344 83.6795 20.323 83.3762 20.7203C83.073 21.1176 82.6436 21.3999 82.1587 21.5209C81.576 21.649 80.9724 21.649 80.3897 21.5209C79.6267 21.2248 78.9455 20.7508 78.4027 20.1383C77.8599 19.5258 77.4711 18.7926 77.2688 17.9996L77.0519 17.4655H76.7515C76.6079 17.4762 76.467 17.51 76.3343 17.5657H76.1674V22.3053H76.4511C77.5786 22.6804 78.7419 22.9377 79.9224 23.073H81.5913C82.315 23.1261 83.0426 23.0585 83.7441 22.8727C84.6348 22.7084 85.4669 22.3138 86.1579 21.7283C86.8488 21.1427 87.3745 20.3866 87.6827 19.535C87.8819 19.0593 87.984 18.5486 87.9831 18.033C88.0489 17.3065 87.9222 16.5755 87.616 15.9135V15.9135ZM71.895 7.28532C70.895 6.86544 69.8174 6.66176 68.7331 6.68765C67.6488 6.71354 66.5822 6.9684 65.6033 7.43552C64.6832 7.88559 63.8677 8.5236 63.2094 9.30836C62.5511 10.0931 62.0647 11.0072 61.7815 11.9916C61.4206 13.0654 61.2676 14.1982 61.3309 15.3294C61.319 15.9448 61.3693 16.5598 61.4811 17.1651C61.7507 18.6535 62.4692 20.0237 63.5402 21.0917C64.6112 22.1597 65.9834 22.8744 67.4725 23.1398C68.4421 23.2619 69.4233 23.2619 70.393 23.1398C71.3992 22.9624 72.3623 22.5942 73.2301 22.055C73.948 21.6525 74.5556 21.0793 74.9992 20.3861C74.9707 20.2773 74.9205 20.1754 74.8517 20.0865C74.7829 19.9976 74.6968 19.9235 74.5986 19.8687C74.4081 19.9377 74.2284 20.0332 74.0646 20.1525C73.2345 20.6995 72.2543 20.9737 71.2608 20.9368C70.6014 20.9814 69.9404 20.8787 69.3256 20.6363C68.7108 20.3938 68.1576 20.0176 67.7061 19.535C67.3569 19.2106 67.0686 18.8262 66.855 18.4001C66.3364 17.3626 66.0569 16.2221 66.0372 15.0623V14.4115H75.2829V14.0777C75.3033 13.7442 75.3033 13.4098 75.2829 13.0764C75.2795 11.898 74.9644 10.7414 74.3693 9.72431C73.7743 8.70718 72.9206 7.86568 71.895 7.28532V7.28532ZM67.2388 13.0597H66.0706V12.075C66.4544 9.55501 67.4057 8.05301 68.5739 8.05301C69.7421 8.05301 70.2428 9.53832 70.4598 12.2586V13.0263H69.4584L67.2388 13.0597ZM43.2402 6.73458C42.6635 6.71222 42.0902 6.83261 41.5713 7.08505C40.4433 7.63283 39.5323 8.54388 38.9845 9.67183L38.7676 10.0724V6.73458H38.6841C38.4838 6.73458 32.309 7.96956 32.1087 8.05301C31.9084 8.13645 31.9752 8.15314 31.9752 8.45354C31.9752 8.75394 31.9752 8.80401 32.1087 8.8207L32.7596 8.95421C32.9418 8.95868 33.1207 9.00458 33.2826 9.08843C33.4446 9.17229 33.5853 9.29189 33.6941 9.43819C34.1114 9.98892 34.1948 10.9569 34.1948 15.079C34.2772 16.9348 34.1991 18.7942 33.9612 20.6364C33.9051 20.9142 33.7643 21.1678 33.558 21.3621C33.3518 21.5564 33.0903 21.6819 32.8096 21.7212L32.2422 21.838H32.0252V22.3053C31.9647 22.461 31.9647 22.6337 32.0252 22.7893H41.3543V22.3053C41.3867 22.1456 41.3867 21.9811 41.3543 21.8213C40.7926 21.7995 40.2341 21.7268 39.6854 21.6044C39.3867 21.4481 39.1423 21.205 38.9844 20.9071C38.8265 20.6092 38.7625 20.2705 38.8009 19.9355C38.6674 18.9675 38.6007 16.1304 38.634 13.9609C38.6674 11.7913 38.634 11.6578 38.8176 11.5076C39.3761 11.0794 40.0671 10.8609 40.7702 10.8901C41.433 10.9046 42.0837 11.0701 42.6728 11.3741C42.877 11.4875 43.0961 11.5718 43.3236 11.6244C43.3236 11.6244 44.9925 7.58572 44.9925 7.40214C44.7789 7.15397 44.5069 6.96296 44.2009 6.8464C43.8949 6.72984 43.5647 6.69141 43.2402 6.73458V6.73458ZM31.9919 13.7439C31.9336 12.5513 31.5912 11.3899 30.9932 10.3565C30.3952 9.32304 29.5589 8.44745 28.554 7.80267C27.3597 7.1584 26.031 6.80315 24.6745 6.76547C23.3181 6.72779 21.9717 7.00873 20.7435 7.58572C19.007 8.5014 17.6959 10.058 17.0887 11.9248C16.4615 14.015 16.4615 16.2432 17.0887 18.3334C17.4175 19.4757 18.0321 20.5153 18.8744 21.3541C19.9234 22.3777 21.2761 23.0335 22.7295 23.2232C23.6625 23.3012 24.6003 23.3012 25.5333 23.2232C25.8766 23.171 26.2165 23.0985 26.5513 23.0063C27.9097 22.6263 29.1318 21.8673 30.0746 20.8181C31.0174 19.7689 31.6419 18.4729 31.875 17.0817C32.0417 15.9772 32.0808 14.8573 31.9919 13.7439V13.7439ZM25.0493 22.0884C23.3804 22.589 22.1287 20.9702 21.7115 17.5657C21.5583 15.7833 21.5583 13.991 21.7115 12.2085C22.0453 9.47156 22.8964 8.08639 24.2148 8.08639C24.4808 8.0699 24.7469 8.11736 24.9908 8.22479C25.2347 8.33222 25.4493 8.49649 25.6167 8.70387C26.7349 9.82203 27.2856 12.0417 27.2856 15.3794C27.4245 17.2684 27.1275 19.1641 26.4178 20.9201C26.1044 21.4323 25.6195 21.8167 25.0493 22.0049V22.0884V22.0884ZM55.0893 7.06836C54.6184 7.00777 54.1417 7.00777 53.6707 7.06836C52.7668 7.06759 51.8732 7.2611 51.0506 7.63579L50.5332 7.85274V4.23125C50.6236 3.00907 50.6236 1.78188 50.5332 0.559692C50.333 0.559692 43.9578 1.77798 43.8577 1.82805C43.8085 1.95126 43.8085 2.08868 43.8577 2.21189C43.8577 2.56236 43.8577 2.54567 44.6087 2.71256C44.8195 2.75985 45.0221 2.83861 45.2095 2.9462C45.5352 3.25254 45.7521 3.65688 45.827 4.09774C46.017 5.3678 46.0785 6.65378 46.0105 7.93619V22.589L46.4611 22.6892C47.1287 22.8394 49.0145 23.1565 49.632 23.2232C50.8651 23.3213 52.1039 23.3213 53.337 23.2232C54.7056 23.0834 56.0101 22.5728 57.11 21.7465C58.2098 20.9201 59.0634 19.8092 59.5786 18.5336C59.8858 17.7149 60.0985 16.8639 60.2128 15.9969C60.3121 14.8226 60.2729 13.6407 60.096 12.4756C59.9169 11.1695 59.3405 9.95016 58.4449 8.98287C57.5492 8.01558 56.3777 7.34719 55.0893 7.06836V7.06836ZM50.7168 21.8047C50.7168 21.5877 50.5499 14.278 50.5833 11.3574V9.07103L51.0673 8.95421C51.3938 8.90742 51.7254 8.90742 52.0519 8.95421C52.4131 8.91749 52.7763 8.99951 53.0866 9.18785C53.7099 9.61799 54.2274 10.1839 54.6003 10.843C54.9732 11.5021 55.1918 12.2372 55.2395 12.9929C55.3611 14.2082 55.3611 15.4325 55.2395 16.6478C55.1396 18.4141 54.459 20.0979 53.3036 21.4375C52.9756 21.749 52.5638 21.9578 52.1187 22.0383C51.7819 22.0969 51.4375 22.0969 51.1007 22.0383C50.7836 22.0383 50.7836 21.9382 50.7836 21.8047H50.7168Z" fill="black"/>
</g>
<defs>
<clipPath id="clip0_456_8912">
<rect width="88" height="23.1579" fill="white" transform="translate(0 0.332275)"/>
</clipPath>
</defs>
</svg>
