<svg width="89" height="23" viewBox="0 0 89 23" fill="none" xmlns="http://www.w3.org/2000/svg">
<g clip-path="url(#clip0_456_8835)">
<path d="M12.1823 6.09556V17.1079C12.1823 18.3465 12.6743 19.5344 13.5502 20.4103C14.4261 21.2862 15.614 21.7782 16.8527 21.7782C18.0913 21.7782 19.2793 21.2862 20.1551 20.4103C21.031 19.5344 21.523 18.3465 21.523 17.1079V6.09556C21.523 4.8569 21.031 3.66897 20.1551 2.7931C19.2793 1.91723 18.0913 1.42517 16.8527 1.42517C15.614 1.42517 14.4261 1.91723 13.5502 2.7931C12.6743 3.66897 12.1823 4.8569 12.1823 6.09556M15.5253 17.1079V6.09556C15.5233 5.91867 15.5583 5.7433 15.6281 5.58074C15.6978 5.41818 15.8009 5.27202 15.9305 5.15164C16.0601 5.03127 16.2135 4.93934 16.3808 4.88177C16.5481 4.8242 16.7256 4.80225 16.9018 4.81735C17.0712 4.81188 17.2398 4.84121 17.3974 4.90351C17.5549 4.96581 17.698 5.05976 17.8178 5.17957C17.9376 5.29937 18.0316 5.44246 18.0939 5.60002C18.1562 5.75757 18.1855 5.92623 18.18 6.09556V17.1079C18.175 17.4453 18.0387 17.7675 17.8 18.0061C17.5614 18.2447 17.2392 18.381 16.9018 18.3861C16.7275 18.3926 16.5535 18.3648 16.39 18.3041C16.2264 18.2434 16.0764 18.151 15.9486 18.0323C15.8207 17.9136 15.7175 17.7709 15.6449 17.6122C15.5723 17.4536 15.5316 17.2822 15.5253 17.1079M48.4638 1.67098H39.0247V5.014H42.0728V21.4341H45.4158V5.014H48.4638V1.67098ZM58.2962 1.67098V17.1079C58.2962 17.4469 58.1616 17.772 57.9218 18.0117C57.6821 18.2514 57.357 18.3861 57.018 18.3861C56.679 18.3861 56.3539 18.2514 56.1142 18.0117C55.8745 17.772 55.7398 17.4469 55.7398 17.1079V1.67098H52.2985V17.1079C52.2985 18.3596 52.7957 19.56 53.6808 20.4451C54.5659 21.3302 55.7663 21.8274 57.018 21.8274C58.2697 21.8274 59.4702 21.3302 60.3552 20.4451C61.2403 19.56 61.7376 18.3596 61.7376 17.1079V1.67098H58.2962ZM88.875 5.014V1.67098H80.6158V21.4341H88.875V18.0911H83.9588V12.9782H87.1052V9.63523H83.9588V5.014H88.875ZM35.8784 21.4341H32.3387L29.8806 12.0933C30.4939 11.972 31.0456 11.6404 31.4405 11.1557C31.8354 10.671 32.0487 10.0637 32.0437 9.43858V6.39053C32.0477 6.20866 32.0149 6.02786 31.9471 5.85903C31.8794 5.6902 31.7781 5.53684 31.6495 5.40821C31.5209 5.27957 31.3675 5.17832 31.1987 5.11057C31.0299 5.04282 30.8491 5.00997 30.6672 5.014H29.389V21.4341H26.046V1.67098H30.6672C31.8885 1.66003 33.0656 2.12691 33.9474 2.97195C34.8292 3.81699 35.3457 4.97325 35.3867 6.19389V9.34026C35.4316 10.1568 35.2863 10.9726 34.9621 11.7234C34.6379 12.4741 34.1437 13.1393 33.5186 13.6665L35.8784 21.4341ZM73.1432 1.67098V12.4866L69.7018 1.67098H66.2605V21.4341H69.7018V11.7984L72.8482 21.4341H76.5845V1.67098H73.1432ZM0.875 1.96595V21.7291H4.41466V13.2732H7.65936V9.9302H4.41466V5.30897H9.52751V1.96595H0.875Z" fill="black"/>
</g>
<defs>
<clipPath id="clip0_456_8835">
<rect width="88" height="21.7284" fill="white" transform="translate(0.875 0.627441)"/>
</clipPath>
</defs>
</svg>
