<svg width="146" height="25" viewBox="0 0 146 25" fill="none" xmlns="http://www.w3.org/2000/svg">
    <g clip-path="url(#clip0_456_8856)">
        <path
            d="M9.5624 7.70393L11.1591 8.71291L10.5487 14.4817L19.1401 9.24262C18.9854 8.00757 18.5785 6.8175 17.9445 5.74632C17.3106 4.67515 16.4632 3.74573 15.455 3.01579C14.4468 2.28585 13.2993 1.77098 12.0838 1.50314C10.8682 1.2353 9.61059 1.22021 8.38897 1.45882C7.16735 1.69742 6.00783 2.18462 4.9824 2.89017C3.95698 3.59571 3.08755 4.50453 2.42811 5.5602C1.76866 6.61586 1.33329 7.79582 1.14902 9.02681C0.964743 10.2578 1.03551 11.5135 1.35691 12.716L9.5624 7.70393V7.70393Z"
            fill="#323956"/>
        <path
            d="M9.82482 17.3928L8.22812 16.3838L8.83855 10.6176L2.11877 14.719C3.0164 16.4225 4.43229 17.7966 6.16193 18.6428C7.89157 19.489 9.84541 19.7635 11.7412 19.4266C13.6371 19.0897 15.3767 18.1589 16.709 16.7686C18.0412 15.3783 18.897 13.6006 19.1528 11.6921L9.82482 17.3928V17.3928Z"
            fill="#323956"/>
        <path
            d="M10.6242 6.87424C11.3333 6.87424 11.9081 6.29941 11.9081 5.59032C11.9081 4.88123 11.3333 4.3064 10.6242 4.3064C9.9151 4.3064 9.34027 4.88123 9.34027 5.59032C9.34027 6.29941 9.9151 6.87424 10.6242 6.87424Z"
            fill="#F64E00"/>
        <path
            d="M23.7638 18.8532L26.0189 18.8204V2.88361L23.7638 2.9164V18.8532ZM34.5497 7.77966C33.5408 7.77966 31.823 8.22865 31.0612 9.44699V8.00668H28.9323V18.8532H31.0612V12.9834C31.0612 10.8444 32.6756 9.88589 34.2748 9.88589C35.7883 9.88589 36.7972 11.021 36.7972 12.7085V18.8532H38.9236V12.595C38.9236 11.0538 38.4999 9.79256 37.6624 8.95007C36.9057 8.18325 35.8286 7.77966 34.5497 7.77966V7.77966ZM45.3256 16.0633L42.0691 8.0092H39.7914L44.2964 18.8532H46.3346L50.8623 8.0092H48.5619L45.3256 16.0633ZM85.0565 7.77966C81.7773 7.77966 79.3936 10.1407 79.3936 13.3971C79.3936 16.6536 81.8303 19.0827 85.0565 19.0827C85.8085 19.1017 86.5564 18.9677 87.255 18.6888C87.9535 18.4098 88.5881 17.9917 89.1201 17.46C89.6521 16.9282 90.0704 16.2939 90.3497 15.5954C90.6289 14.897 90.7633 14.1491 90.7446 13.3971C90.7446 10.1407 88.3634 7.77966 85.0565 7.77966V7.77966ZM85.0565 17.0698C83.0663 17.0698 81.5528 15.4908 81.5528 13.3971C81.5528 11.3413 83.0663 9.79257 85.0641 9.79257C85.5368 9.7859 86.006 9.87498 86.4434 10.0544C86.8808 10.2339 87.2774 10.5 87.6092 10.8368C87.941 11.1736 88.2013 11.5741 88.3742 12.0141C88.5472 12.4541 88.6293 12.9245 88.6157 13.3971C88.6157 15.4908 87.0845 17.0698 85.0565 17.0698ZM98.095 7.77966C96.5235 7.77966 95.0857 8.46324 94.3542 9.54537V8.00668H92.2253V24.0595H94.3542V17.3397C95.0807 18.4319 96.4655 19.0751 98.1177 19.0751C101.253 19.0751 103.528 16.704 103.528 13.435C103.528 10.1659 101.243 7.77966 98.095 7.77966V7.77966ZM97.9108 17.0698C97.4393 17.0712 96.9723 16.9786 96.537 16.7973C96.1017 16.6161 95.7069 16.3498 95.3758 16.0142C95.0446 15.6786 94.7837 15.2803 94.6083 14.8426C94.4329 14.4049 94.3465 13.9367 94.3542 13.4652C94.3542 11.3716 95.8828 9.79257 97.9108 9.79257C99.8556 9.79257 101.377 11.4069 101.377 13.4652C101.377 15.5235 99.8859 17.0698 97.9108 17.0698ZM125.733 9.52014C125.007 8.42793 123.622 7.7847 121.97 7.7847C118.834 7.7847 116.559 10.1558 116.559 13.4249C116.559 16.694 118.845 19.0877 121.993 19.0877C123.564 19.0877 125.002 18.4042 125.733 17.322V18.8532H127.862V2.15967H125.733V9.52014V9.52014ZM122.164 17.0698C120.232 17.0698 118.721 15.4554 118.721 13.3971C118.721 11.3388 120.192 9.79257 122.164 9.79257C122.637 9.7895 123.106 9.88083 123.543 10.0612C123.981 10.2416 124.378 10.5074 124.711 10.8431C125.044 11.1787 125.307 11.5775 125.484 12.0161C125.662 12.4546 125.75 12.9241 125.743 13.3971C125.733 15.178 124.48 17.0698 122.164 17.0698ZM130.556 8.0092H132.685V18.8532H130.556V8.0092ZM145.706 8.00668H143.577V9.2679C142.82 8.32451 141.516 7.77461 139.993 7.77461H139.821C136.686 7.77461 134.411 10.1457 134.411 13.4148C134.411 16.6839 136.696 19.0777 139.844 19.0777H140.023C141.473 19.0777 142.813 18.4925 143.585 17.5642V18.8532H145.875V8.00668H145.706V8.00668ZM140.089 17.0622C138.199 17.0118 136.734 15.4226 136.734 13.3946C136.734 11.3666 138.171 9.84049 140.089 9.79509C142.044 9.82964 143.604 11.4387 143.577 13.3946C143.577 15.1527 142.344 17.0143 140.089 17.0648V17.0622V17.0622ZM67.2557 12.2242C66.1433 11.9392 65.3563 11.6844 65.3563 10.9907C65.3563 10.2113 66.1433 9.66644 67.2733 9.66644C68.0929 9.68288 68.8844 9.96827 69.5259 10.4787L69.5788 10.519L70.7215 8.93494L70.671 8.89458C69.6638 8.11021 68.4158 7.69926 67.1396 7.73173C65.2201 7.73173 63.1542 8.78864 63.1542 11.1042C63.1542 12.7186 64.5012 13.5056 65.6287 13.8789C66.0071 14.005 66.3854 14.1034 66.7688 14.1993C67.9468 14.502 68.9659 14.7643 68.9659 15.6825C68.9659 16.3257 68.3176 17.0067 67.1169 17.0067C65.9793 16.9751 64.8837 16.5701 63.9992 15.854L63.9437 15.8136L62.8036 17.4431L62.8515 17.481C64.0765 18.4531 65.6012 18.9694 67.1649 18.9414C69.1071 18.9414 71.173 17.7836 71.173 15.6371C71.173 13.4905 69.1929 12.7211 67.2557 12.2242V12.2242ZM115.174 13.2458C115.174 10.0095 113.083 7.75444 110.056 7.75444C106.997 7.75444 104.777 10.0675 104.777 13.2508C104.756 14.0134 104.889 14.7723 105.167 15.4829C105.444 16.1934 105.862 16.841 106.394 17.3876C107.347 18.3156 108.628 18.8297 109.958 18.8178H110.059C111.933 18.7851 113.156 18.4748 114.642 16.8705L114.688 16.8226L113.212 15.4176L113.167 15.4681C112.793 15.9062 112.328 16.2562 111.803 16.4926C111.278 16.729 110.707 16.846 110.132 16.8352C108.487 16.8352 107.191 15.6295 106.886 13.8259L115.101 13.8083H115.162V13.7477C115.17 13.6495 115.17 13.5508 115.162 13.4526C115.177 13.4123 115.174 13.3568 115.174 13.2458ZM107.211 12.151C107.491 10.5846 108.518 9.72194 110.109 9.72194C111.651 9.72194 112.7 10.6275 112.932 12.151H107.211ZM61.6256 13.2458C61.6256 10.0095 59.5193 7.75444 56.5126 7.75444C53.4529 7.75444 51.2331 10.0675 51.2331 13.2508C51.2127 14.0134 51.3452 14.7723 51.6229 15.4829C51.9006 16.1934 52.3179 16.841 52.85 17.3876C53.8031 18.3156 55.0841 18.8297 56.4142 18.8178H56.5126C58.3893 18.7851 59.6127 18.4748 61.0984 16.8705L61.1438 16.8226L59.6682 15.4176L59.6228 15.4681C59.2488 15.9072 58.7818 16.2578 58.2557 16.4942C57.7296 16.7307 57.1574 16.8472 56.5807 16.8352C54.9336 16.8352 53.6395 15.6295 53.3343 13.8259L61.5474 13.8083H61.6104V13.7477C61.6171 13.6495 61.6171 13.5509 61.6104 13.4526C61.6256 13.4123 61.6256 13.3568 61.6256 13.2458V13.2458ZM53.6547 12.151C53.9372 10.5846 54.9638 9.72194 56.5555 9.72194C58.0967 9.72194 59.146 10.6275 59.3781 12.151H53.6547ZM78.1475 16.6006C77.8548 16.6789 77.5525 16.7154 77.2496 16.7091C77.0068 16.7203 76.7643 16.6813 76.5373 16.5945C76.3103 16.5077 76.1037 16.375 75.9303 16.2046C75.6983 15.9322 75.6503 15.5135 75.6503 14.9711V9.86067H78.6773V8.00668H75.6503V4.49545H73.5189V8.00668H72.3485V9.86067H73.5189V14.8601C73.5189 16.0633 73.7863 16.9487 74.3361 17.5642C74.695 17.9604 75.1366 18.2728 75.6296 18.4794C76.1226 18.686 76.6549 18.7818 77.189 18.7598C77.7238 18.7649 78.2568 18.6917 78.7706 18.5429L78.8337 18.5227L78.2106 16.583L78.1475 16.6006V16.6006ZM131.621 2.81298C131.44 2.81261 131.261 2.84835 131.094 2.9181C130.927 2.98785 130.776 3.0902 130.649 3.21917C130.522 3.34814 130.422 3.50112 130.355 3.66917C130.288 3.83721 130.255 4.01693 130.259 4.1978C130.256 4.37743 130.289 4.55577 130.357 4.72226C130.424 4.88875 130.524 5.03999 130.651 5.16702C130.779 5.29405 130.93 5.39429 131.096 5.46177C131.263 5.52926 131.441 5.56264 131.621 5.55991C131.802 5.56395 131.982 5.53168 132.151 5.46501C132.32 5.39833 132.473 5.2986 132.603 5.17168C132.732 5.04476 132.835 4.89321 132.905 4.72596C132.975 4.55871 133.011 4.37913 133.011 4.1978C133.011 4.01533 132.976 3.83454 132.906 3.66589C132.836 3.49724 132.734 3.34409 132.605 3.2153C132.475 3.0865 132.322 2.98463 132.153 2.91557C131.984 2.84651 131.803 2.81164 131.621 2.81298Z"
            fill="black"/>
    </g>
    <defs>
        <clipPath id="clip0_456_8856">
            <rect width="145" height="23.1513" fill="white" transform="translate(0.875 0.916016)"/>
        </clipPath>
    </defs>
</svg>
