<svg width="161" height="23" viewBox="0 0 161 23" fill="none" xmlns="http://www.w3.org/2000/svg">
<g clip-path="url(#clip0_456_8839)">
<path fill-rule="evenodd" clip-rule="evenodd" d="M47.7162 10.1868H44.6715V7.93143H53.1937V10.1868H50.1972V19.1606H47.7162V10.1868M53.8215 7.93143H56.2219V12.0233C56.5441 11.3306 57.414 10.8634 58.4935 10.8634C60.4268 10.8634 61.5061 12.1362 61.5061 14.2308V19.1606H59.1057V14.5206C59.1057 13.5861 58.6224 12.9902 57.7201 12.9902C56.8502 12.9902 56.2219 13.6507 56.2219 14.6012V19.1606H53.8215V7.93143M68.3203 14.1823C68.3203 13.4574 67.5794 12.8451 66.6286 12.8451C65.63 12.8451 64.792 13.4413 64.7438 14.1823H68.3203ZM62.3271 15.0844C62.3271 12.5068 64.1637 10.8475 66.6286 10.8475C69.1096 10.8475 70.7368 12.684 70.7368 14.9556C70.7368 14.9556 70.7368 15.3746 70.6885 15.7451H64.7277C64.776 16.7116 65.5976 17.3238 66.8704 17.3238C68.4169 17.3238 69.287 16.8568 69.7542 16.5346V18.6288C68.997 19.1121 68.1592 19.3699 66.7414 19.3699C64.1156 19.3699 62.3271 17.7104 62.3271 15.165V15.0844V15.0844ZM75.4243 7.52856L81.3527 13.989L87.2815 7.52856V19.1606H84.8971V13.4574L81.3527 17.4366L77.8085 13.4574V19.1606H75.4243V7.52856ZM92.5809 17.2273C93.7571 17.2273 94.6914 16.2928 94.6914 15.1005C94.6914 13.9244 93.7571 12.9741 92.5809 12.9741C91.3888 12.9741 90.4706 13.9244 90.4706 15.1005C90.4706 16.2928 91.3888 17.2273 92.5809 17.2273ZM92.5809 10.7992C95.078 10.7992 97.0919 12.7001 97.0919 15.1005C97.0919 17.501 95.078 19.4021 92.5809 19.4021C90.0677 19.4021 88.07 17.501 88.07 15.1005C88.07 12.7001 90.0677 10.7992 92.5809 10.7992V10.7992ZM98.4124 13.2156H97.3329V11.0408H98.4124V7.93143H100.748V11.0408H102.537V13.2156H100.748V19.1606H98.4124V13.2156M103.197 19.1606H105.597V7.93143H103.197V19.1606Z" fill="#0A0B09"/>
<mask id="mask0_456_8839" style="mask-type:alpha" maskUnits="userSpaceOnUse" x="106" y="10" width="18" height="13">
<path d="M106.386 10.8475H123.801V22.2745H106.386V10.8475Z" fill="white"/>
</mask>
<g mask="url(#mask0_456_8839)">
<path fill-rule="evenodd" clip-rule="evenodd" d="M112.379 14.1823C112.379 13.4575 111.639 12.8452 110.688 12.8452C109.689 12.8452 108.851 13.4414 108.803 14.1823H112.379V14.1823ZM106.386 15.0844C106.386 12.5069 108.223 10.8475 110.688 10.8475C113.169 10.8475 114.796 12.6841 114.796 14.9557C114.796 14.9557 114.796 15.3747 114.748 15.7452H108.787C108.835 16.7116 109.657 17.3239 110.93 17.3239C112.476 17.3239 113.346 16.8568 113.813 16.5346V18.6288C113.056 19.1122 112.219 19.37 110.801 19.37C108.175 19.37 106.386 17.7105 106.386 15.1651V15.0844V15.0844ZM114.457 11.0408H116.954L119.113 16.454L121.304 11.0408H123.801L119.017 22.2859H116.552L117.857 19.3054L114.457 11.0408Z" fill="#0A0B09"/>
</g>
<path fill-rule="evenodd" clip-rule="evenodd" d="M127.828 7.93127H135.223V10.1866H130.309V12.4906H134.788V14.6976H130.309V19.1604H127.828V7.93127ZM140.104 17.2271C141.28 17.2271 142.214 16.2926 142.214 15.1003C142.214 13.9243 141.28 12.9739 140.104 12.9739C138.912 12.9739 137.993 13.9243 137.993 15.1003C137.993 16.2926 138.912 17.2271 140.104 17.2271ZM140.104 10.799C142.601 10.799 144.615 12.7 144.615 15.1003C144.615 17.5009 142.601 19.402 140.104 19.402C137.59 19.402 135.593 17.5009 135.593 15.1003C135.593 12.7 137.59 10.799 140.104 10.799V10.799ZM149.608 17.2271C150.784 17.2271 151.719 16.2926 151.719 15.1003C151.719 13.9243 150.784 12.9739 149.608 12.9739C148.416 12.9739 147.498 13.9243 147.498 15.1003C147.498 16.2926 148.416 17.2271 149.608 17.2271ZM149.608 10.799C152.105 10.799 154.119 12.7 154.119 15.1003C154.119 17.5009 152.105 19.402 149.608 19.402C147.095 19.402 145.097 17.5009 145.097 15.1003C145.097 12.7 147.095 10.799 149.608 10.799V10.799ZM154.989 19.1604H157.389V7.93127H154.989V19.1604Z" fill="#0A0B09"/>
<mask id="mask1_456_8839" style="mask-type:alpha" maskUnits="userSpaceOnUse" x="1" y="0" width="41" height="20">
<path d="M1.90616 0.667969H41.926V19.402H1.90616V0.667969Z" fill="white"/>
</mask>
<g mask="url(#mask1_456_8839)">
<path fill-rule="evenodd" clip-rule="evenodd" d="M41.9259 16.2541C41.9259 16.6841 41.7551 17.0965 41.451 17.4006C41.1469 17.7047 40.7344 17.8756 40.3044 17.8756C39.8743 17.8756 39.4619 17.7047 39.1578 17.4006C38.8537 17.0965 38.6829 16.6841 38.6829 16.2541C38.6829 15.824 38.8537 15.4116 39.1578 15.1075C39.4619 14.8034 39.8743 14.6326 40.3044 14.6326C40.7344 14.6326 41.1469 14.8034 41.451 15.1075C41.7551 15.4116 41.9259 15.824 41.9259 16.2541" fill="#F2AF36"/>
<path fill-rule="evenodd" clip-rule="evenodd" d="M30.5978 0.667969C35.3 0.667969 39.248 5.95218 40.3639 13.0962C40.3736 13.1604 40.3577 13.2259 40.3197 13.2785C40.2816 13.3311 40.2244 13.3666 40.1603 13.3774C40.1053 13.3864 40.0488 13.3763 40.0002 13.3489C39.9516 13.3215 39.9138 13.2783 39.893 13.2265C38.7774 10.4945 36.8628 8.69121 34.6868 8.69121C31.5678 8.69121 28.829 12.5065 28.5219 17.7517C28.1172 18.622 24.8866 19.2886 21.9104 19.402V6.86146C23.7583 3.08687 27.4169 0.667969 30.5978 0.667969Z" fill="#0089B3"/>
<path fill-rule="evenodd" clip-rule="evenodd" d="M1.89465 16.2541C1.89465 16.6841 2.06549 17.0965 2.36958 17.4006C2.67367 17.7047 3.0861 17.8756 3.51615 17.8756C3.9462 17.8756 4.35863 17.7047 4.66272 17.4006C4.96681 17.0965 5.13765 16.6841 5.13765 16.2541C5.13765 15.824 4.96681 15.4116 4.66272 15.1075C4.35863 14.8034 3.9462 14.6326 3.51615 14.6326C3.0861 14.6326 2.67367 14.8034 2.36958 15.1075C2.06549 15.4116 1.89465 15.824 1.89465 16.2541" fill="#F2AF36"/>
<path fill-rule="evenodd" clip-rule="evenodd" d="M13.2228 0.667969C8.52053 0.667969 4.57252 5.95218 3.45669 13.0962C3.44695 13.1604 3.46282 13.2259 3.50089 13.2785C3.53897 13.3311 3.59618 13.3666 3.66021 13.3774C3.71528 13.3864 3.77178 13.3763 3.82037 13.3489C3.86897 13.3215 3.90677 13.2783 3.92752 13.2265C5.04317 10.4945 6.95773 8.69121 9.13373 8.69121C12.2527 8.69121 14.9916 12.5065 15.2986 17.7517C15.7034 18.622 18.9339 19.2886 21.9103 19.402V6.86146C20.0622 3.08687 16.4037 0.667969 13.2228 0.667969Z" fill="#475696"/>
</g>
<path fill-rule="evenodd" clip-rule="evenodd" d="M159.597 18.589C159.671 18.589 159.725 18.525 159.725 18.4463C159.725 18.3724 159.671 18.3134 159.597 18.3134H159.45V18.589H159.597ZM159.282 18.1558H159.602C159.774 18.1558 159.893 18.274 159.893 18.4362C159.893 18.5496 159.838 18.6431 159.745 18.6971L159.962 19.0566H159.765L159.568 18.7268H159.45V19.0566H159.282V18.1558V18.1558ZM160.213 18.6235C160.213 18.2393 159.937 17.9786 159.572 17.9786C159.208 17.9786 158.938 18.2393 158.938 18.6235C158.938 18.9975 159.208 19.2584 159.572 19.2584C159.937 19.2584 160.213 18.9975 160.213 18.6235ZM158.78 18.6235C158.78 18.1657 159.135 17.8408 159.572 17.8408C160.016 17.8408 160.375 18.1657 160.375 18.6235C160.375 19.0812 160.016 19.4061 159.572 19.4061C159.135 19.4061 158.78 19.0812 158.78 18.6235Z" fill="#0A0B09"/>
<path fill-rule="evenodd" clip-rule="evenodd" d="M31.2313 16.8495H31.2483L31.7212 17.3321L32.1943 16.8495H32.2112V17.7518H32.0292V17.2571L31.7212 17.5965L31.4132 17.2571V17.7518H31.2313V16.8495V16.8495ZM30.6516 17.0265H30.3653V16.8518H31.1198V17.0265H30.8335V17.7518H30.6516V17.0265Z" fill="#0089B3"/>
</g>
<defs>
<clipPath id="clip0_456_8839">
<rect width="159.5" height="21.6472" fill="white" transform="translate(0.875 0.667969)"/>
</clipPath>
</defs>
</svg>
