<svg width="132" height="29" viewBox="0 0 132 29" fill="none" xmlns="http://www.w3.org/2000/svg">
    <path
        d="M6.82891 19.0478C6.76134 19.6081 6.65956 20.1683 6.4731 20.7114C7.1009 21.4068 8.59429 21.7977 9.51119 21.7977C12.0575 21.7977 14.1282 20.2017 14.1282 17.5374C14.1282 13.5482 8.23847 14.9406 8.23847 11.4945C8.23847 10.1714 9.30762 9.30493 10.5974 9.30493C11.7008 9.30493 12.5159 9.91648 12.9059 10.9343H13.0924C13.2455 10.4083 13.3815 9.88227 13.6022 9.40756C12.923 8.79601 11.8368 8.50777 10.9541 8.50777C8.71318 8.50777 6.8118 9.6787 6.8118 12.089C6.8118 16.3151 12.6673 14.7875 12.6673 18.2498C12.6673 19.727 11.5811 20.9826 10.0706 20.9826C8.61054 20.9826 7.77917 20.2359 7.04958 19.0478H6.82891ZM23.2596 19.6585C22.7506 20.1512 21.7662 20.9492 20.4926 20.9492C18.2354 20.9492 17.0979 19.1496 17.2681 17.0618H19.899C21.1546 17.0618 22.4282 17.0789 23.6838 17.1131C23.8703 13.9895 21.9697 12.5303 19.899 12.5303C17.115 12.5303 15.6224 14.5326 15.6224 17.1302C15.6224 20.0323 17.4545 21.7293 20.035 21.7293C21.1726 21.7293 22.3256 21.2879 23.2425 20.6259L23.2596 19.6594V19.6585ZM17.2681 16.3656C17.387 14.8046 18.1507 13.1068 19.899 13.1068C21.7491 13.1068 22.1904 14.737 22.2409 16.3656H17.2681ZM32.781 19.6585C32.272 20.1512 31.2876 20.9492 30.0149 20.9492C27.7568 20.9492 26.6201 19.1496 26.7903 17.0618H29.4204C30.6769 17.0618 31.9496 17.0789 33.206 17.1131C33.3925 13.9895 31.4911 12.5303 29.4204 12.5303C26.6372 12.5303 25.1438 14.5326 25.1438 17.1302C25.1438 20.0323 26.9768 21.7293 29.5564 21.7293C30.694 21.7293 31.8478 21.2879 32.7638 20.6259L32.781 19.6594V19.6585ZM26.7895 16.3656C26.9092 14.8046 27.6721 13.1068 29.4204 13.1068C31.2705 13.1068 31.7127 14.737 31.7631 16.3656H26.7895ZM36.2604 7.54126C35.9721 7.55837 35.7515 7.59258 35.5137 7.59258C35.2597 7.59258 35.0048 7.55837 34.767 7.54126V21.577C35.0048 21.5599 35.2597 21.5266 35.5137 21.5266C35.7515 21.5266 35.9721 21.5608 36.2604 21.5779V17.7589C36.2604 16.9609 36.5153 16.8933 36.9395 17.368C38.1284 18.7262 39.6047 20.3898 40.5036 21.5779C40.8098 21.5608 41.0981 21.5266 41.4376 21.5266C41.743 21.5266 41.9979 21.5608 42.3537 21.5779V21.4752C40.8774 19.7954 39.3156 17.9282 37.9573 16.3673C39.6723 14.7379 41.3187 13.431 42.0654 12.769V12.6321C41.7772 12.6492 41.5565 12.6834 41.3358 12.6834C41.081 12.6834 40.8269 12.6492 40.5892 12.6321L39.1291 14.2452L37.9744 15.417C37.7375 15.6539 36.7359 16.7231 36.3459 16.5204C36.1757 16.4177 36.2604 16.1466 36.2604 15.9088V7.54041V7.54126ZM45.2395 12.6501C44.9513 12.6672 44.7306 12.7014 44.4928 12.7014C44.2379 12.7014 43.9839 12.6672 43.7461 12.6501V21.5779C43.9839 21.5608 44.2379 21.5266 44.4928 21.5266C44.7306 21.5266 44.9675 21.5608 45.2395 21.5779V12.6492V12.6501ZM45.4431 9.44263C45.4431 8.91576 45.0017 8.49152 44.4928 8.49152C44.368 8.49141 44.2444 8.51591 44.129 8.56362C44.0137 8.61134 43.9089 8.68133 43.8206 8.76959C43.7324 8.85785 43.6624 8.96265 43.6147 9.078C43.567 9.19334 43.5424 9.31696 43.5426 9.44178C43.5424 9.56653 43.5669 9.69007 43.6146 9.80536C43.6622 9.92064 43.7322 10.0254 43.8203 10.1137C43.9085 10.2019 44.0132 10.2719 44.1284 10.3197C44.2437 10.3674 44.3672 10.392 44.492 10.392C44.9846 10.4091 45.4431 9.9678 45.4431 9.44263V9.44263ZM46.8347 21.5779C47.0725 21.5608 47.3273 21.5266 47.5814 21.5266C47.8191 21.5266 48.0569 21.5608 48.3289 21.5779V17.25C48.3289 14.9577 48.8207 13.5157 50.7726 13.5157C52.5208 13.5157 52.8433 14.873 52.8433 16.6213V21.5779C53.0811 21.5608 53.3359 21.5266 53.59 21.5266C53.8278 21.5266 54.0655 21.5608 54.3367 21.5779V16.1808C54.3367 13.7192 53.5053 12.5312 51.3328 12.5312C50.0088 12.5312 48.9738 13.2103 48.3289 14.347V12.6501C48.0569 12.6672 47.8191 12.7014 47.5814 12.7014C47.3273 12.7014 47.0725 12.6672 46.8347 12.6501V21.5779V21.5779ZM59.5644 21.4248C60.9731 21.4248 62.3142 21.5608 62.3142 23.4955C62.3142 25.2438 60.7019 25.8887 59.3608 25.8887C57.8161 25.8887 56.6794 25.142 56.6794 23.6306C56.6623 22.121 57.6125 21.4077 59.5644 21.4248V21.4248ZM63.5194 12.5816C63.078 12.6501 62.6196 12.6843 62.1782 12.6159L59.5815 12.5141C56.8487 12.4114 55.8138 13.6688 55.8138 15.4846C55.8138 16.8591 56.5092 17.64 57.6296 18.1489C56.9001 18.4714 56.3398 18.8622 56.3398 19.7612C56.3398 20.8988 56.9343 21.187 57.4774 21.2725V21.4248C56.3227 21.6283 55.5418 22.3417 55.5418 23.6828C55.5418 25.6509 57.3919 26.4318 58.9203 26.4318C61.7711 26.4318 63.6725 24.9384 63.6725 22.7488C63.6725 21.1536 62.6375 20.271 60.4479 20.271H59.259C58.1386 20.271 57.4603 20.1512 57.4603 19.3712C57.4603 18.2849 58.5808 18.4714 58.8006 18.4714C60.9731 18.4714 62.7727 17.6058 62.7727 15.5693C62.7727 14.5172 62.2466 13.7021 61.4828 13.1085L63.5356 13.2779V12.5816H63.5194V12.5816ZM57.2225 15.4846C57.2225 14.0588 57.9863 13.0401 59.3266 13.0401C60.8037 13.0401 61.3297 14.1435 61.3297 15.5864C61.3297 16.8591 60.6173 18.03 59.2599 18.03C57.9016 18.03 57.1712 16.8086 57.2225 15.4846ZM75.6041 8.50863H75.1799L69.3415 21.5779C69.5451 21.5608 69.7486 21.5266 70.0027 21.5266C70.2233 21.5266 70.4278 21.5608 70.6989 21.5779C71.2249 19.8296 71.8878 18.1823 72.5489 16.5366H77.3011C78.0486 18.2336 78.7269 20.0332 79.27 21.5779C79.5925 21.5608 79.8987 21.5266 80.2545 21.5266C80.577 21.5266 80.866 21.5608 81.2219 21.5779L75.605 8.50777L75.6041 8.50863ZM76.9957 15.7386H72.8885L74.925 10.9523L76.9957 15.7386ZM82.5972 21.5779C82.835 21.5608 83.089 21.5266 83.3439 21.5266C83.5817 21.5266 83.8195 21.5608 84.0906 21.5779V7.54041C83.8024 7.55751 83.5817 7.59172 83.3439 7.59172C83.089 7.59172 82.835 7.55751 82.5972 7.54041V21.5762V21.5779ZM87.18 17.3518C87.18 15.6197 87.7402 13.159 89.9127 13.159C91.9322 13.159 92.4924 15.0433 92.4924 16.8762C92.4924 19.0487 91.8133 20.933 89.929 20.933C88.0114 20.9501 87.18 19.3541 87.18 17.3518ZM87.18 19.9314H87.2142C87.8249 21.0861 88.741 21.7301 90.0821 21.7301C92.4753 21.7301 94.1218 19.8801 94.1218 16.8249C94.1218 14.5848 92.7806 12.5483 90.3703 12.5483C88.1132 12.5483 87.5358 13.9057 87.2142 14.5506H87.18V12.6672C86.8909 12.6843 86.6702 12.7185 86.4333 12.7185C86.1784 12.7185 85.9235 12.6843 85.6858 12.6672V26.3813C85.9235 26.3642 86.1784 26.33 86.4333 26.33C86.6702 26.33 86.8909 26.3642 87.18 26.3813V19.9314V19.9314ZM95.7169 21.5779C95.9547 21.5608 96.2096 21.5266 96.4636 21.5266C96.7014 21.5266 96.9392 21.5608 97.2112 21.5779V16.5024C97.2112 14.5506 97.975 13.5157 99.6548 13.5157C101.25 13.5157 101.726 14.5506 101.726 16.6213V21.5779C101.963 21.5608 102.218 21.5266 102.472 21.5266C102.71 21.5266 102.948 21.5608 103.219 21.5779V16.1808C103.219 13.821 102.37 12.5312 100.215 12.5312C98.891 12.5312 97.8561 13.2103 97.2112 14.347V7.54041C96.9221 7.55751 96.7014 7.59172 96.4636 7.59172C96.2096 7.59172 95.9547 7.55751 95.7169 7.54041V21.5762V21.5779ZM111.451 15.6711C111.451 13.567 110.382 12.5312 108.43 12.5312C107.326 12.5312 106.325 12.9383 105.426 13.5661V14.6182H105.629C105.765 14.211 106.495 13.3292 107.853 13.3292C109.262 13.3292 110.043 14.1264 110.043 15.5188C110.043 16.4177 109.533 16.5195 108.057 16.7744C106.291 17.0627 104.594 17.3346 104.594 19.4729C104.594 20.8474 105.749 21.7481 107.072 21.7481C108.193 21.7481 109.058 21.3572 109.839 20.5763L110.008 20.4061C110.162 21.5095 110.959 21.6626 111.926 21.4923C112.13 21.4581 112.35 21.3572 112.486 21.3059V20.8988C111.383 21.1365 111.434 20.7628 111.434 20.0332V15.6711H111.451V15.6711ZM109.957 19.6594C109.957 19.7962 109.584 20.1007 109.448 20.2367C109.092 20.5934 108.465 20.9501 107.955 20.9501C106.817 20.9501 106.122 20.3727 106.122 19.2018C106.122 17.504 108.022 17.3175 109.295 17.0635L109.941 16.9267V19.6585H109.958L109.957 19.6594Z"
        fill="black"/>
    <path
        d="M114.897 8.50769C114.897 11.0531 116.169 13.1581 117.867 13.1076C120.243 13.0392 120.939 11.0369 120.939 8.49059C120.939 5.94431 119.564 3.85733 117.867 3.87358C115.779 3.89069 114.897 5.96141 114.897 8.50769V8.50769ZM113.047 8.50769C113.403 3.05932 117.681 2.93958 117.681 2.93958C120.786 2.95668 121.669 6.26676 121.669 6.26676C121.72 6.45407 123.519 3.17821 123.519 3.17821H124.537C122.45 7.67547 122.535 9.50927 122.535 9.50927C122.364 11.9358 123.723 12.768 123.723 12.768C124.995 13.5823 125.081 11.2062 125.081 11.2062C125.369 11.1036 125.538 11.0027 125.538 11.0027C126.218 14.2956 124.181 14.075 124.181 14.075C122.602 14.2443 121.923 11.6647 121.923 11.6647C119.683 14.6181 117.103 13.9732 117.103 13.9732C112.69 13.43 113.047 8.50769 113.047 8.50769V8.50769Z"
        fill="#F37321"/>
</svg>
