<svg width="83" height="34" viewBox="0 0 83 34" fill="none" xmlns="http://www.w3.org/2000/svg">
    <path
        d="M33.7379 24.9598C33.7379 24.2867 34.1767 23.9859 34.7664 23.9859C35.0818 23.9859 35.3149 24.0575 35.5206 24.1577V21.995C35.2052 21.8374 34.7664 21.7515 34.3139 21.7515C32.3803 21.7515 31.2421 22.9403 31.2421 24.9025V25.0887H30.3234V27.1942H31.2421V32.2503H33.7379V27.1942H35.4246V25.0887H33.7379V24.9598Z"
        fill="#232A31"/>
    <path
        d="M38.9351 32.2502V25.0886H36.4256V32.2502H38.9351ZM39.0859 23.0691C39.0859 22.2956 38.4689 21.6224 37.6735 21.6224C36.9056 21.6224 36.2748 22.2813 36.2748 23.0691C36.2748 23.8568 36.9056 24.5157 37.6735 24.5157C38.4689 24.5157 39.0859 23.8425 39.0859 23.0691Z"
        fill="#232A31"/>
    <path
        d="M42.4686 28.4402C42.4686 27.6954 42.8252 27.28 43.3737 27.28C43.9222 27.28 44.2513 27.6811 44.2513 28.4115V32.2501H46.7608V27.6954C46.7608 25.9623 45.8558 24.8881 44.3748 24.8881C43.5383 24.8881 42.8526 25.2605 42.4686 25.9623V25.0886H39.9592V32.2501H42.4686V28.4402Z"
        fill="#232A31"/>
    <path
        d="M50.8648 24.9453C48.7906 24.9453 47.4603 26.8216 47.4603 28.698C47.4603 30.7891 48.9194 32.4506 50.8362 32.4506C52.2667 32.4506 52.8103 31.5769 52.8103 31.5769V32.2644H55.2278V25.1172H52.8103V25.7617C52.8103 25.7617 52.1952 24.9453 50.8648 24.9453V24.9453ZM51.3798 27.2513C52.3525 27.2513 52.8389 28.0105 52.8389 28.698C52.8389 29.4428 52.3096 30.1732 51.3798 30.1732C50.6216 30.1732 49.9207 29.543 49.9207 28.7266C49.9207 27.9102 50.4786 27.2513 51.3798 27.2513Z"
        fill="#232A31"/>
    <path
        d="M58.9244 28.4402C58.9244 27.6954 59.2809 27.28 59.8294 27.28C60.378 27.28 60.7071 27.6811 60.7071 28.4115V32.2501H63.2166V27.6954C63.2166 25.9623 62.3115 24.8881 60.8305 24.8881C59.994 24.8881 59.3083 25.2605 58.9244 25.9623V25.0886H56.4149V32.2501H58.9244V28.4402Z"
        fill="#232A31"/>
    <path
        d="M63.9571 28.6694C63.9571 30.9897 65.5479 32.4507 67.6185 32.4507C68.1534 32.4507 68.7293 32.3361 69.2641 32.0496V29.672C68.8801 29.9584 68.4688 30.1017 68.0162 30.1017C67.1386 30.1017 66.4941 29.5287 66.4941 28.6694C66.4941 27.81 67.1386 27.237 68.0162 27.237C68.455 27.237 68.8664 27.366 69.2641 27.6381V25.2605C68.7842 25.017 68.1945 24.8881 67.6597 24.8881C65.5067 24.8881 63.9571 26.4779 63.9571 28.6694V28.6694Z"
        fill="#232A31"/>
    <path
        d="M74.7233 29.7293C74.4627 30.1733 74.1336 30.3595 73.5851 30.3595C72.9269 30.3595 72.3783 29.9441 72.3235 29.3282H77.0682C77.0819 29.1993 77.0956 29.0274 77.0956 28.7983C77.0956 26.435 75.6558 24.8881 73.5165 24.8881C71.4459 24.8881 69.8688 26.5066 69.8688 28.6694C69.8688 30.9181 71.4047 32.4507 73.5988 32.4507C75.1484 32.4507 76.314 31.7631 76.8762 30.517L74.7233 29.7293ZM72.3372 27.8243C72.3921 27.2943 72.8583 26.8933 73.5028 26.8933C74.1473 26.8933 74.6136 27.2657 74.6684 27.8243H72.3372Z"
        fill="#232A31"/>
    <path
        d="M9.91821e-05 6.80713H4.93804L7.81334 14.1633L10.726 6.80713H15.5339L8.29423 24.2216H3.45587L5.4376 19.607L9.91821e-05 6.80713Z"
        fill="#5F01D1"/>
    <path
        d="M20.5426 6.51428C16.8325 6.51428 14.4871 9.84167 14.4871 13.1552C14.4871 16.8839 17.0585 19.8401 20.4722 19.8401C23.0187 19.8401 23.9788 18.2887 23.9788 18.2887V19.4972H28.2857V6.8072H23.9788V7.96084C23.9788 7.96084 22.9076 6.51428 20.5426 6.51428V6.51428ZM21.4587 10.5924C23.1706 10.5924 24.0539 11.9469 24.0539 13.1692C24.0539 14.4853 23.1075 15.7769 21.4587 15.7769C20.0921 15.7769 18.8572 14.6601 18.8572 13.2252C18.8572 11.7699 19.8505 10.5924 21.4587 10.5924Z"
        fill="#5F01D1"/>
    <path
        d="M29.7688 19.4973V1.20386H34.2735V8.0049C34.2735 8.0049 35.3435 6.51598 37.5844 6.51598C40.3255 6.51598 41.9315 8.55832 41.9315 11.4767V19.4973H37.4598V12.5754C37.4598 11.5878 36.9893 10.6337 35.9237 10.6337C34.8389 10.6337 34.2735 11.6022 34.2735 12.5754V19.4973H29.7688Z"
        fill="#5F01D1"/>
    <path
        d="M49.6117 6.51587C45.3629 6.51587 42.833 9.74664 42.833 13.2081C42.833 17.1473 45.8962 19.8402 49.6278 19.8402C53.2446 19.8402 56.4095 17.2695 56.4095 13.2742C56.4095 8.90258 53.0958 6.51587 49.6117 6.51587V6.51587ZM49.6523 10.6298C51.1531 10.6298 52.1915 11.8798 52.1915 13.2128C52.1915 14.3498 51.2239 15.7521 49.6523 15.7521C48.2122 15.7521 47.1315 14.5969 47.1315 13.2004C47.1315 11.8551 48.03 10.6298 49.6523 10.6298V10.6298Z"
        fill="#5F01D1"/>
    <path
        d="M63.9142 6.51587C59.6655 6.51587 57.1355 9.74664 57.1355 13.2081C57.1355 17.1473 60.1987 19.8402 63.9303 19.8402C67.5472 19.8402 70.712 17.2695 70.712 13.2742C70.712 8.90258 67.3983 6.51587 63.9142 6.51587V6.51587ZM63.9548 10.6298C65.4556 10.6298 66.494 11.8798 66.494 13.2128C66.494 14.3498 65.5264 15.7521 63.9548 15.7521C62.5147 15.7521 61.434 14.5969 61.434 13.2004C61.434 11.8551 62.3325 10.6298 63.9548 10.6298V10.6298Z"
        fill="#5F01D1"/>
    <path
        d="M74.2666 19.7667C75.9186 19.7667 77.2579 18.4275 77.2579 16.7755C77.2579 15.1234 75.9186 13.7842 74.2666 13.7842C72.6145 13.7842 71.2753 15.1234 71.2753 16.7755C71.2753 18.4275 72.6145 19.7667 74.2666 19.7667Z"
        fill="#5F01D1"/>
    <path d="M78.2408 12.6853H72.8557L77.635 1.20386H83L78.2408 12.6853Z" fill="#5F01D1"/>
</svg>
