<svg width="130" height="130" viewBox="0 0 130 130" fill="none" xmlns="http://www.w3.org/2000/svg">
<g filter="url(#filter0_d)">
<path fill-rule="evenodd" clip-rule="evenodd" d="M61.2106 104.839C77.8913 106.133 94.9626 99.5858 104.99 87.0214C114.713 74.8389 114.601 58.4298 109.865 43.8764C105.564 30.6578 94.8016 20.7424 81.4918 14.8034C68.2704 8.90381 52.861 6.39942 39.805 12.6143C27.0174 18.7014 20.714 31.8378 17.9785 45.0368C15.3709 57.619 17.9894 70.2587 25.6596 80.8688C34.2757 92.7872 45.906 103.652 61.2106 104.839Z" fill="#FEFEFE" stroke="#EEEEEE"/>
<path d="M55.3327 55.3333H76.666C77.0599 55.3307 77.4483 55.2409 77.8034 55.0703C78.1584 54.8997 78.4712 54.6526 78.7194 54.3467C78.9801 54.0468 79.1704 53.6924 79.2765 53.3094C79.3826 52.9265 79.4018 52.5247 79.3327 52.1333L76.666 38.8C76.5414 38.1886 76.2062 37.6403 75.719 37.2505C75.2317 36.8607 74.6232 36.6541 73.9994 36.6667H57.9994C57.3755 36.6541 56.767 36.8607 56.2797 37.2505C55.7925 37.6403 55.4574 38.1886 55.3327 38.8L52.666 52.1333C52.5897 52.5207 52.6003 52.9202 52.6972 53.303C52.794 53.6857 52.9747 54.0422 53.226 54.3467C53.4798 54.6596 53.8012 54.9109 54.1661 55.0818C54.531 55.2527 54.9298 55.3387 55.3327 55.3333ZM60.186 42H71.8127L73.4127 50H58.586L60.186 42ZM92.666 62.8C92.5414 62.1886 92.2062 61.6403 91.719 61.2505C91.2317 60.8607 90.6232 60.6541 89.9994 60.6667H73.9994C73.3755 60.6541 72.767 60.8607 72.2797 61.2505C71.7925 61.6403 71.4574 62.1886 71.3327 62.8L68.666 76.1333C68.5897 76.5207 68.6003 76.9202 68.6972 77.303C68.794 77.6857 68.9747 78.0422 69.226 78.3467C69.4798 78.6596 69.8012 78.9109 70.1661 79.0818C70.531 79.2527 70.9298 79.3387 71.3327 79.3333H92.666C93.0599 79.3307 93.4483 79.2409 93.8034 79.0703C94.1584 78.8997 94.4712 78.6526 94.7194 78.3467C94.9801 78.0468 95.1704 77.6924 95.2765 77.3094C95.3826 76.9265 95.4018 76.5247 95.3327 76.1333L92.666 62.8ZM74.586 74L76.186 66H87.8127L89.4127 74H74.586ZM57.9994 60.6667H41.9994C41.3755 60.6541 40.767 60.8607 40.2797 61.2505C39.7925 61.6403 39.4574 62.1886 39.3327 62.8L36.666 76.1333C36.5897 76.5207 36.6003 76.9202 36.6972 77.303C36.794 77.6857 36.9747 78.0422 37.226 78.3467C37.4798 78.6596 37.8012 78.9109 38.1661 79.0818C38.531 79.2527 38.9298 79.3387 39.3327 79.3333H60.666C61.0599 79.3307 61.4483 79.2409 61.8034 79.0703C62.1584 78.8997 62.4712 78.6526 62.7194 78.3467C62.9801 78.0468 63.1704 77.6924 63.2765 77.3094C63.3826 76.9265 63.4018 76.5247 63.3327 76.1333L60.666 62.8C60.5414 62.1886 60.2062 61.6403 59.719 61.2505C59.2317 60.8607 58.6232 60.6541 57.9994 60.6667ZM42.586 74L44.186 66H55.8127L57.4127 74H42.586Z" fill="#222222"/>
</g>
<defs>
<filter id="filter0_d" x="0.5" y="0.499756" width="129" height="129" filterUnits="userSpaceOnUse" color-interpolation-filters="sRGB">
<feFlood flood-opacity="0" result="BackgroundImageFix"/>
<feColorMatrix in="SourceAlpha" type="matrix" values="0 0 0 0 0 0 0 0 0 0 0 0 0 0 0 0 0 0 127 0"/>
<feOffset dy="8"/>
<feGaussianBlur stdDeviation="8"/>
<feColorMatrix type="matrix" values="0 0 0 0 0.431373 0 0 0 0 0.431373 0 0 0 0 0.431373 0 0 0 0.04 0"/>
<feBlend mode="normal" in2="BackgroundImageFix" result="effect1_dropShadow"/>
<feBlend mode="normal" in="SourceGraphic" in2="effect1_dropShadow" result="shape"/>
</filter>
</defs>
</svg>
