<svg width="130" height="130" viewBox="0 0 130 130" fill="none" xmlns="http://www.w3.org/2000/svg">
<g filter="url(#filter0_d)">
<path fill-rule="evenodd" clip-rule="evenodd" d="M61.6505 104.977C75.7835 104.683 89.5705 99.9469 98.9581 88.6103C109.009 76.4733 115.892 60.0461 111.799 44.417C107.867 29.4016 93.2941 22.1223 79.9361 15.9643C67.5327 10.2464 53.769 5.76188 41.613 12.0617C29.4715 18.354 24.1179 32.677 20.6925 46.6672C17.0734 61.4487 13.9071 77.9975 22.4807 90.2033C31.2434 102.678 47.0921 105.28 61.6505 104.977Z" fill="#FEFEFE" stroke="#EEEEEE"/>
<path d="M57.1113 40.2222H60.6668C60.6668 35.1786 55.7691 32.8782 51.7779 32.3484V28.6666H48.2224V32.3484C44.2313 32.8782 39.3335 35.1786 39.3335 40.2222C39.3335 45.0329 44.0731 47.5342 48.2224 48.0977V56.9333C45.6482 56.4871 42.8891 55.1129 42.8891 52.6666H39.3335C39.3335 57.2693 43.6446 59.9893 48.2224 60.5529V62.4426V64.2222H51.7779V62.4426V60.5422C55.7691 60.0124 60.6668 57.7102 60.6668 52.6666C60.6668 47.6231 55.7691 45.3226 51.7779 44.7929V35.9555C54.1424 36.3804 57.1113 37.6284 57.1113 40.2222ZM42.8891 40.2222C42.8891 37.6284 45.8579 36.3804 48.2224 35.9555V44.4871C45.7851 44.0373 42.8891 42.7057 42.8891 40.2222ZM57.1113 52.6666C57.1113 55.2604 54.1424 56.5084 51.7779 56.9333V48.4C54.1424 48.8249 57.1113 50.0728 57.1113 52.6666Z" fill="#222222" stroke="#222222" stroke-width="1.5"/>
<path d="M82.8249 61.5556C85.3671 61.5556 87.7653 62.6453 89.5787 64.624L92.2009 62.2204C89.7049 59.4987 86.3751 58 82.8249 58C79.2729 58 75.9449 59.4987 73.4524 62.2222C72.2062 63.5804 71.2462 65.1662 70.6027 66.8889H66V70.4444H69.7582C69.6907 71.0311 69.6444 71.6231 69.6444 72.2222C69.6444 72.8213 69.6907 73.4133 69.7582 74H66V77.5556H70.6027C71.2462 79.28 72.2044 80.864 73.4524 82.224C75.9449 84.9458 79.2729 86.4444 82.8249 86.4444C86.3751 86.4444 89.7049 84.9458 92.1991 82.224L89.5769 79.8204C87.7653 81.7991 85.3671 82.8889 82.8249 82.8889C80.2827 82.8889 77.8862 81.8009 76.0729 79.8204C75.4507 79.1431 74.9618 78.368 74.5351 77.5556H82V74H73.3582C73.2693 73.4169 73.2 72.8267 73.2 72.2222C73.2 71.6178 73.2693 71.0276 73.3582 70.4444H82V66.8889H74.5351C74.9618 66.0764 75.4524 65.3013 76.0729 64.624C77.8862 62.6453 80.2827 61.5556 82.8249 61.5556Z" fill="#222222" stroke="#222222" stroke-width="1.5"/>
<rect width="4.88347" height="45.5278" transform="matrix(-0.707107 -0.707107 -0.707107 0.707107 83.4692 45.8643)" fill="#222222"/>
</g>
<defs>
<filter id="filter0_d" x="0.5" y="0.499878" width="129" height="129" filterUnits="userSpaceOnUse" color-interpolation-filters="sRGB">
<feFlood flood-opacity="0" result="BackgroundImageFix"/>
<feColorMatrix in="SourceAlpha" type="matrix" values="0 0 0 0 0 0 0 0 0 0 0 0 0 0 0 0 0 0 127 0"/>
<feOffset dy="8"/>
<feGaussianBlur stdDeviation="8"/>
<feColorMatrix type="matrix" values="0 0 0 0 0.431373 0 0 0 0 0.431373 0 0 0 0 0.431373 0 0 0 0.04 0"/>
<feBlend mode="normal" in2="BackgroundImageFix" result="effect1_dropShadow"/>
<feBlend mode="normal" in="SourceGraphic" in2="effect1_dropShadow" result="shape"/>
</filter>
</defs>
</svg>
