<svg width="130" height="130" viewBox="0 0 130 130" fill="none" xmlns="http://www.w3.org/2000/svg">
<g filter="url(#filter0_d)">
<path fill-rule="evenodd" clip-rule="evenodd" d="M61.2106 104.839C77.8913 106.133 94.9626 99.5858 104.99 87.0214C114.713 74.8389 114.601 58.4298 109.865 43.8764C105.564 30.6578 94.8016 20.7424 81.4918 14.8034C68.2704 8.90381 52.861 6.39942 39.805 12.6143C27.0174 18.7014 20.714 31.8378 17.9785 45.0368C15.3709 57.619 17.9894 70.2587 25.6596 80.8688C34.2757 92.7872 45.906 103.652 61.2106 104.839Z" fill="#FEFEFE" stroke="#EEEEEE"/>
<path d="M42 34V79.3333C42 80.808 43.192 82 44.6667 82H90V76.6667H47.3333V34H42Z" fill="#222222"/>
<path d="M74.7816 65.2186C75.8242 66.2613 77.5096 66.2613 78.5522 65.2186L91.8856 51.8853L88.1149 48.1146L76.6669 59.5626L70.5522 53.448C69.5096 52.4053 67.8242 52.4053 66.7816 53.448L53.4482 66.7813L57.2189 70.552L68.6669 59.104L74.7816 65.2186Z" fill="#222222"/>
</g>
<defs>
<filter id="filter0_d" x="0.5" y="0.499756" width="129" height="129" filterUnits="userSpaceOnUse" color-interpolation-filters="sRGB">
<feFlood flood-opacity="0" result="BackgroundImageFix"/>
<feColorMatrix in="SourceAlpha" type="matrix" values="0 0 0 0 0 0 0 0 0 0 0 0 0 0 0 0 0 0 127 0"/>
<feOffset dy="8"/>
<feGaussianBlur stdDeviation="8"/>
<feColorMatrix type="matrix" values="0 0 0 0 0.431373 0 0 0 0 0.431373 0 0 0 0 0.431373 0 0 0 0.04 0"/>
<feBlend mode="normal" in2="BackgroundImageFix" result="effect1_dropShadow"/>
<feBlend mode="normal" in="SourceGraphic" in2="effect1_dropShadow" result="shape"/>
</filter>
</defs>
</svg>
