<svg width="130" height="130" viewBox="0 0 130 130" fill="none" xmlns="http://www.w3.org/2000/svg">
<g filter="url(#filter0_d)">
<path fill-rule="evenodd" clip-rule="evenodd" d="M61.2106 104.839C77.8913 106.133 94.9626 99.5858 104.99 87.0214C114.713 74.8389 114.601 58.4298 109.865 43.8764C105.564 30.6578 94.8016 20.7424 81.4918 14.8034C68.2704 8.90381 52.861 6.39942 39.805 12.6143C27.0174 18.7014 20.714 31.8378 17.9785 45.0368C15.3709 57.619 17.9894 70.2587 25.6596 80.8688C34.2757 92.7872 45.906 103.652 61.2106 104.839Z" fill="#FEFEFE" stroke="#EEEEEE"/>
<path d="M87.0002 34H45.0002C41.8748 34 39.3335 36.392 39.3335 39.3333V76.6667C39.3335 79.608 41.8748 82 45.0002 82H87.0002C90.1255 82 92.6668 79.608 92.6668 76.6667V39.3333C92.6668 36.392 90.1255 34 87.0002 34ZM87.0002 76.6667H45.0002C44.8482 76.6667 44.7442 76.624 44.6988 76.624C44.6802 76.624 44.6695 76.6293 44.6668 76.6453L44.6348 39.456C44.6535 39.4293 44.7735 39.3333 45.0002 39.3333H87.0002C87.2108 39.336 87.3255 39.408 87.3335 39.3547L87.3655 76.544C87.3468 76.5707 87.2268 76.6667 87.0002 76.6667Z" fill="#222222"/>
<path d="M50 44.6666H66V60.6666H50V44.6666ZM68.6667 66H50V71.3333H68.6667H71.3333H82V66H71.3333H68.6667ZM71.3333 55.3333H82V60.6666H71.3333V55.3333ZM71.3333 44.6666H82V50H71.3333V44.6666Z" fill="#222222"/>
</g>
<defs>
<filter id="filter0_d" x="0.5" y="0.499756" width="129" height="129" filterUnits="userSpaceOnUse" color-interpolation-filters="sRGB">
<feFlood flood-opacity="0" result="BackgroundImageFix"/>
<feColorMatrix in="SourceAlpha" type="matrix" values="0 0 0 0 0 0 0 0 0 0 0 0 0 0 0 0 0 0 127 0"/>
<feOffset dy="8"/>
<feGaussianBlur stdDeviation="8"/>
<feColorMatrix type="matrix" values="0 0 0 0 0.431373 0 0 0 0 0.431373 0 0 0 0 0.431373 0 0 0 0.04 0"/>
<feBlend mode="normal" in2="BackgroundImageFix" result="effect1_dropShadow"/>
<feBlend mode="normal" in="SourceGraphic" in2="effect1_dropShadow" result="shape"/>
</filter>
</defs>
</svg>
