<svg width="130" height="130" viewBox="0 0 130 130" fill="none" xmlns="http://www.w3.org/2000/svg">
<g filter="url(#filter0_d)">
<path fill-rule="evenodd" clip-rule="evenodd" d="M61.2106 104.839C77.8913 106.133 94.9626 99.5858 104.99 87.0214C114.713 74.8389 114.601 58.4298 109.865 43.8764C105.564 30.6578 94.8016 20.7424 81.4918 14.8034C68.2704 8.90381 52.861 6.39942 39.805 12.6143C27.0174 18.7014 20.714 31.8378 17.9785 45.0368C15.3709 57.619 17.9894 70.2587 25.6596 80.8688C34.2757 92.7872 45.906 103.652 61.2106 104.839Z" fill="#FEFEFE" stroke="#EEEEEE"/>
<path d="M89.7868 32.3574C89.6188 32.3147 85.6375 31.3334 80.6562 31.3334C73.7628 31.3334 68.2215 33.2347 64.6268 36.8294C60.6588 40.7974 57.6188 43.8987 56.1602 45.3947C52.9228 45.0294 45.2882 44.8534 40.1148 50.0294C39.6135 50.528 39.3335 51.2054 39.3335 51.9147C39.3335 52.624 39.6135 53.3014 40.1148 53.8L70.2828 83.968C70.7842 84.4694 71.4588 84.7494 72.1682 84.7494C72.8775 84.7494 73.5548 84.4694 74.0535 83.968C79.2642 78.76 79.1042 71.1307 78.7655 67.9414L87.2562 59.4534C95.7655 50.944 91.8962 34.968 91.7282 34.2934C91.4908 33.3414 90.7415 32.5947 89.7868 32.3574ZM83.4855 55.6854L74.0562 65.112C73.4268 65.7414 73.1522 66.6454 73.3282 67.52C73.3415 67.5867 74.4135 73.4987 71.8988 78.0374L46.0455 52.1867C50.5788 49.6854 56.5548 50.8427 56.5735 50.8427C57.4535 51.0294 58.3975 50.7467 59.0348 50.088C59.0428 50.08 62.7842 46.2134 68.4002 40.5974C71.6482 37.3494 76.8562 36.6667 80.6562 36.6667C83.1815 36.6667 85.4375 36.9627 86.8748 37.208C87.5255 41.024 88.5415 50.6267 83.4855 55.6854Z" fill="#222222"/>
<path d="M75.9412 53.4773C78.8868 53.4773 81.2746 51.0895 81.2746 48.144C81.2746 45.1985 78.8868 42.8107 75.9412 42.8107C72.9957 42.8107 70.6079 45.1985 70.6079 48.144C70.6079 51.0895 72.9957 53.4773 75.9412 53.4773Z" fill="#222222"/>
<path d="M47.3333 68.6666C42 71.3333 42 82 42 82C42 82 50 82 55.3333 76.6666L47.3333 68.6666Z" fill="#222222"/>
</g>
<defs>
<filter id="filter0_d" x="0.5" y="0.499756" width="129" height="129" filterUnits="userSpaceOnUse" color-interpolation-filters="sRGB">
<feFlood flood-opacity="0" result="BackgroundImageFix"/>
<feColorMatrix in="SourceAlpha" type="matrix" values="0 0 0 0 0 0 0 0 0 0 0 0 0 0 0 0 0 0 127 0"/>
<feOffset dy="8"/>
<feGaussianBlur stdDeviation="8"/>
<feColorMatrix type="matrix" values="0 0 0 0 0.431373 0 0 0 0 0.431373 0 0 0 0 0.431373 0 0 0 0.04 0"/>
<feBlend mode="normal" in2="BackgroundImageFix" result="effect1_dropShadow"/>
<feBlend mode="normal" in="SourceGraphic" in2="effect1_dropShadow" result="shape"/>
</filter>
</defs>
</svg>
