<svg width="416" height="416" viewBox="0 0 416 416" fill="none" xmlns="http://www.w3.org/2000/svg">
<g id="closing_illustration">
<g id="Income statement 1">
<g id="Group">
<g id="Group_2">
<g id="Group_3">
<g id="Group_4">
<path id="Vector" d="M306.769 396.028H54.3391C46.5024 396.028 40.5268 388.935 41.7792 381.115L96.0729 42.6796C97.0739 36.453 102.391 31.8795 108.633 31.8795H361.063C368.899 31.8795 374.875 38.9727 373.622 46.7923L319.324 385.228C318.328 391.454 313.006 396.028 306.769 396.028Z" fill="#003185"/>
<path id="Vector_2" d="M298.746 395.146H46.3162C38.4794 395.146 32.5038 388.063 33.7563 380.258L88.05 42.4141C89.0509 36.2025 94.3676 31.634 100.61 31.634H353.04C360.876 31.634 366.852 38.7172 365.6 46.5218L311.306 384.366C310.305 390.583 304.988 395.146 298.746 395.146Z" fill="white"/>
<path id="Vector_3" d="M298.746 395.898H46.3162C42.3928 395.898 38.6706 394.179 36.1103 391.189C33.5048 388.143 32.3781 384.126 33.0169 380.158L87.3055 42.7196C88.3669 36.1123 93.9652 31.3234 100.61 31.3234H161.453C161.87 31.3234 162.207 31.659 162.207 32.0748C162.207 32.4905 161.87 32.8262 161.453 32.8262H100.605C94.7046 32.8262 89.735 37.0891 88.7944 42.96L34.5058 380.399C33.9374 383.93 34.9434 387.507 37.2622 390.212C39.5357 392.867 42.8404 394.395 46.3212 394.395H298.751C304.651 394.395 309.621 390.132 310.561 384.261L347.778 152.92C347.844 152.509 348.231 152.234 348.643 152.299C349.056 152.364 349.338 152.75 349.267 153.16L312.05 384.501C310.989 391.104 305.391 395.898 298.746 395.898Z" fill="black"/>
<path id="Vector_4" d="M359.901 83.0698C359.861 83.0698 359.82 83.0648 359.78 83.0598C359.368 82.9947 359.086 82.609 359.156 82.1982L364.845 46.8223C365.414 43.2907 364.408 39.714 362.094 37.009C359.82 34.3541 356.516 32.8262 353.035 32.8262L289.038 31.8043C288.621 31.7993 288.289 31.4537 288.294 31.0429C288.299 30.6271 288.636 30.3065 289.059 30.3015L353.045 31.3234C356.958 31.3234 360.681 33.0416 363.241 36.0322C365.846 39.0779 366.973 43.0953 366.334 47.0627L360.645 82.4386C360.59 82.8043 360.268 83.0698 359.901 83.0698Z" fill="black"/>
</g>
<g id="Group_5">
<g id="Group_6">
<path id="Vector_5" d="M257.475 63.0123H184.299C172.604 63.0123 163.716 52.4176 165.668 40.8009L167.378 30.6169C167.549 29.585 168.439 28.8286 169.48 28.8286H282.187C283.505 28.8286 284.511 30.0258 284.29 31.3333L282.56 41.6525C280.487 53.9855 269.889 63.0123 257.475 63.0123Z" fill="#003185" stroke="black" stroke-width="2"/>
<path id="Vector_6" d="M257.475 63.7638H184.299C178.549 63.7638 173.112 61.2441 169.375 56.8459C165.572 52.3725 163.952 46.4816 164.923 40.6757L166.633 30.4918C166.87 29.0892 168.067 28.0723 169.48 28.0723H282.187C283.032 28.0723 283.832 28.443 284.38 29.0892C284.939 29.7454 285.175 30.607 285.034 31.4536L283.304 41.7728C281.166 54.5165 270.301 63.7638 257.475 63.7638ZM169.48 29.5801C168.806 29.5801 168.233 30.071 168.122 30.7422L166.412 40.9262C165.512 46.2912 167.01 51.7414 170.526 55.8741C173.977 59.9316 178.997 62.261 184.299 62.261H257.47C269.557 62.261 279.798 53.5397 281.81 41.5273L283.54 31.2081C283.611 30.7973 283.495 30.3766 283.223 30.061C282.962 29.7504 282.579 29.5751 282.182 29.5751H169.48V29.5801Z" fill="black"/>
</g>
<g id="Group_7">
<path id="Vector_7" d="M208.216 51.1152H239.463C240.65 51.1152 241.661 50.3387 241.847 49.1565L246.127 21.6302C247.848 10.6748 239.478 0.751343 228.512 0.751343C219.74 0.751343 212.27 7.17331 210.892 15.9396L205.832 48.3851C205.596 49.8678 206.727 51.1152 208.216 51.1152ZM220.998 17.7129L221.033 17.5076C221.621 13.9559 224.659 11.3561 228.221 11.3561C232.727 11.3561 236.158 15.4537 235.408 19.9521L235.373 20.1575C234.785 23.7091 231.747 26.309 228.185 26.309C223.678 26.3039 220.253 22.2113 220.998 17.7129Z" fill="#003185" stroke="black"/>
<path id="Vector_8" d="M239.463 51.8666H208.216C207.266 51.8666 206.375 51.4659 205.777 50.7646C205.193 50.0833 204.937 49.1666 205.083 48.2599L210.143 15.8195C211.586 6.65239 219.312 0 228.512 0C233.894 0 239.01 2.3594 242.541 6.46705C246.157 10.6749 247.737 16.2453 246.877 21.7455L242.596 49.2718C242.35 50.7996 241.062 51.8666 239.463 51.8666ZM228.512 1.5028C220.062 1.5028 212.965 7.6242 211.637 16.0549L206.577 48.5004C206.501 48.9812 206.622 49.4421 206.924 49.7928C207.235 50.1584 207.708 50.3638 208.216 50.3638H239.463C240.318 50.3638 240.977 49.8328 241.102 49.0363L245.383 21.5151C246.178 16.4456 244.724 11.3161 241.394 7.44387C238.15 3.66683 233.457 1.5028 228.512 1.5028ZM228.19 27.0554C225.846 27.0554 223.623 26.0235 222.094 24.2301C220.53 22.3967 219.861 19.9722 220.258 17.5878L220.293 17.3824C220.947 13.4551 224.282 10.6048 228.226 10.6048C230.57 10.6048 232.793 11.6367 234.322 13.43C235.886 15.2634 236.555 17.688 236.158 20.0724L236.123 20.2778C235.469 24.2051 232.134 27.0554 228.19 27.0554ZM221.742 17.8332C221.42 19.7819 221.963 21.7605 223.241 23.2583C224.483 24.716 226.284 25.5526 228.185 25.5526C231.389 25.5526 234.096 23.2283 234.629 20.0323L234.664 19.8269C234.986 17.8733 234.443 15.8996 233.165 14.4018C231.923 12.9441 230.122 12.1076 228.221 12.1076C225.016 12.1076 222.31 14.4319 221.777 17.6278L221.742 17.8332Z" fill="black"/>
</g>
</g>
</g>
<g id="Group_8">
<path id="Vector_9" d="M199.218 113.451L182.624 217.335C182.317 219.258 183.791 221.007 185.728 221.007H193.755C195.3 221.007 196.612 219.88 196.859 218.342L213.453 114.458C213.76 112.535 212.286 110.786 210.349 110.786H202.316C200.777 110.786 199.464 111.913 199.218 113.451Z" fill="#FDAD00"/>
<path id="Vector_10" d="M171.286 140.126L159.244 217.345C158.942 219.268 160.421 221.002 162.348 221.002H170.381C171.93 221.002 173.243 219.865 173.484 218.327L185.531 141.108C185.833 139.184 184.359 137.451 182.428 137.451H174.39C172.84 137.451 171.528 138.588 171.286 140.126Z" fill="white" stroke="black"/>
<path id="Vector_11" d="M144.864 160.123L135.875 217.345C135.573 219.269 137.047 221.007 138.979 221.007H147.007C148.551 221.007 149.869 219.875 150.11 218.337L159.104 161.115C159.406 159.192 157.932 157.453 156 157.453H147.967C146.423 157.453 145.105 158.585 144.864 160.123Z" fill="white" stroke="black"/>
<path id="Vector_12" d="M118.441 180.116L112.516 217.335C112.209 219.258 113.683 221.002 115.62 221.002H123.647C125.192 221.002 126.505 219.875 126.751 218.337L132.681 181.117C132.988 179.194 131.514 177.451 129.578 177.451H121.545C120.001 177.451 118.688 178.583 118.441 180.116Z" fill="#003185" stroke="black"/>
<path id="Vector_13" d="M92.059 196.611L89.0813 217.39C88.8096 219.299 90.2784 221.007 92.1898 221.007H100.233C101.797 221.007 103.12 219.85 103.341 218.292L106.324 197.513C106.596 195.604 105.127 193.891 103.216 193.891H95.1675C93.6082 193.896 92.2854 195.053 92.059 196.611Z" fill="white" stroke="black"/>
</g>
<g id="Group_9">
<path id="Vector_14" d="M88.7288 248.613C91.4623 248.613 93.6783 246.382 93.6783 243.629C93.6783 240.876 91.4623 238.645 88.7288 238.645C85.9953 238.645 83.7793 240.876 83.7793 243.629C83.7793 246.382 85.9953 248.613 88.7288 248.613Z" fill="#003185" stroke="black"/>
<path id="Vector_15" d="M84.5037 269.151C87.2372 269.151 89.4532 266.92 89.4532 264.167C89.4532 261.414 87.2372 259.183 84.5037 259.183C81.7702 259.183 79.5542 261.414 79.5542 264.167C79.5542 266.92 81.7702 269.151 84.5037 269.151Z" fill="#003185" stroke="black"/>
<path id="Vector_16" d="M80.7767 290.697C83.5102 290.697 85.7262 288.465 85.7262 285.712C85.7262 282.96 83.5102 280.728 80.7767 280.728C78.0431 280.728 75.8271 282.96 75.8271 285.712C75.8271 288.465 78.0431 290.697 80.7767 290.697Z" fill="#003185" stroke="black"/>
<path id="Vector_17" d="M186.884 244.881H103.15C102.456 244.881 101.893 244.32 101.893 243.629C101.893 242.938 102.456 242.377 103.15 242.377H186.884C187.578 242.377 188.142 242.938 188.142 243.629C188.142 244.32 187.583 244.881 186.884 244.881Z" fill="#003185" stroke="black"/>
<path id="Vector_18" d="M183.886 265.254H149.708C149.014 265.254 148.45 264.693 148.45 264.002C148.45 263.311 149.014 262.75 149.708 262.75H183.886C184.581 262.75 185.144 263.311 185.144 264.002C185.144 264.693 184.581 265.254 183.886 265.254Z" fill="#003185" stroke="black"/>
<path id="Vector_19" d="M137.213 265.254H99.8351C99.141 265.254 98.5776 264.693 98.5776 264.002C98.5776 263.311 99.141 262.75 99.8351 262.75H137.213C137.907 262.75 138.47 263.311 138.47 264.002C138.47 264.693 137.912 265.254 137.213 265.254Z" fill="#003185" stroke="black"/>
<path id="Vector_20" d="M182.885 286.298H95.5246C94.8304 286.298 94.2671 285.737 94.2671 285.046C94.2671 284.355 94.8304 283.794 95.5246 283.794H182.885C183.58 283.794 184.143 284.355 184.143 285.046C184.143 285.737 183.58 286.298 182.885 286.298Z" fill="#003185" stroke="black"/>
<path id="Vector_21" d="M284.813 286.794H215.852C215.158 286.794 214.595 286.233 214.595 285.542C214.595 284.851 215.158 284.29 215.852 284.29H284.813C285.507 284.29 286.071 284.851 286.071 285.542C286.071 286.233 285.507 286.794 284.813 286.794Z" fill="#003185" stroke="black"/>
<path id="Vector_22" d="M288.817 264.388H219.856C219.162 264.388 218.598 263.827 218.598 263.135C218.598 262.444 219.162 261.883 219.856 261.883H288.817C289.511 261.883 290.074 262.444 290.074 263.135C290.074 263.827 289.511 264.388 288.817 264.388Z" fill="#003185" stroke="black" stroke-width="2"/>
<path id="Vector_23" d="M291.815 244.966H222.854C222.16 244.966 221.596 244.405 221.596 243.714C221.596 243.023 222.16 242.462 222.854 242.462H291.815C292.509 242.462 293.072 243.023 293.072 243.714C293.072 244.405 292.509 244.966 291.815 244.966Z" fill="#003185" stroke="black" stroke-width="2"/>
</g>
<g id="Group_10">
<path id="Vector_24" d="M176.235 89.8875C184.193 106.734 177.085 126.896 160.366 134.911L144.979 104.374L176.235 89.8875Z" fill="white" stroke="black" stroke-width="2"/>
<path id="Vector_25" d="M176.235 89.8875C168.052 72.5602 147.122 65.482 130.131 74.614C114.955 82.7692 108.356 101.494 115.026 117.464C122.495 135.352 143.163 143.157 160.366 134.911L146.735 106.048C146.307 105.141 146.689 104.054 147.59 103.618L176.235 89.8875Z" fill="#003185" stroke="black"/>
<path id="Vector_26" d="M160.366 134.911L146.734 106.048L145.663 138.187C150.592 138.238 155.612 137.191 160.366 134.911Z" fill="#FDAD00" stroke="black"/>
<g id="Vector_27">
<mask id="path-27-inside-1" fill="white">
<path d="M145.965 117.118C152.935 117.118 158.585 111.426 158.585 104.404C158.585 97.3829 152.935 91.6908 145.965 91.6908C138.995 91.6908 133.345 97.3829 133.345 104.404C133.345 111.426 138.995 117.118 145.965 117.118Z"/>
</mask>
<path d="M145.965 117.118C152.935 117.118 158.585 111.426 158.585 104.404C158.585 97.3829 152.935 91.6908 145.965 91.6908C138.995 91.6908 133.345 97.3829 133.345 104.404C133.345 111.426 138.995 117.118 145.965 117.118Z" fill="white" stroke="black" stroke-width="4" mask="url(#path-27-inside-1)"/>
</g>
</g>
<g id="Group_11">
<path id="Vector_28" d="M316.643 111.898H263.028C262.666 111.898 262.435 110.556 262.54 109.068L262.953 103.353C263.038 102.15 263.32 101.269 263.612 101.269H317.226C317.588 101.269 317.82 102.611 317.714 104.099L317.302 109.815C317.216 111.012 316.935 111.898 316.643 111.898Z" fill="white" stroke="black" stroke-width="2"/>
<path id="Vector_29" d="M333.473 131.325H241.877C241.293 131.325 240.926 130.062 241.097 128.665L241.842 122.653C241.983 121.526 242.43 120.695 242.903 120.695H334.499C335.083 120.695 335.45 121.957 335.279 123.355L334.534 129.366C334.393 130.488 333.941 131.325 333.473 131.325Z" fill="white" stroke="black" stroke-width="2"/>
<path id="Vector_30" d="M329.625 150.746H237.838C237.315 150.746 236.978 149.609 237.134 148.346L237.934 141.879C238.06 140.862 238.467 140.111 238.889 140.111H330.677C331.2 140.111 331.537 141.248 331.381 142.511L330.581 148.978C330.455 149.994 330.053 150.746 329.625 150.746Z" fill="white" stroke="black" stroke-width="2"/>
<path id="Vector_31" d="M323.695 182.27H232.224C231.606 182.27 231.213 180.927 231.394 179.439L232.104 173.724C232.255 172.521 232.732 171.64 233.23 171.64H324.706C325.324 171.64 325.717 172.982 325.536 174.47L324.826 180.186C324.676 181.383 324.198 182.27 323.695 182.27Z" fill="white" stroke="black"/>
<path id="Vector_32" d="M319.973 201.696H228.376C227.793 201.696 227.426 200.433 227.597 199.036L228.341 193.025C228.482 191.898 228.93 191.066 229.403 191.066H320.999C321.582 191.066 321.949 192.328 321.778 193.726L321.034 199.737C320.893 200.864 320.445 201.696 319.973 201.696Z" fill="white" stroke="black" stroke-width="2"/>
<path id="Vector_33" d="M316.13 221.122H224.343C223.819 221.122 223.482 219.985 223.638 218.723L224.438 212.255C224.564 211.239 224.971 210.487 225.394 210.487H317.181C317.704 210.487 318.041 211.624 317.885 212.887L317.085 219.354C316.955 220.371 316.552 221.122 316.13 221.122Z" fill="white" stroke="black" stroke-width="2"/>
</g>
<g id="Group_12">
<path id="Vector_34" d="M296.865 322.025H205.389C204.771 322.025 204.378 320.682 204.559 319.195L205.269 313.479C205.42 312.277 205.897 311.395 206.395 311.395H297.871C298.49 311.395 298.882 312.738 298.701 314.225L297.992 319.941C297.841 321.138 297.363 322.025 296.865 322.025Z" fill="white" stroke="black" stroke-width="2"/>
<path id="Vector_35" d="M293.142 341.451H201.546C200.963 341.451 200.596 340.189 200.767 338.791L201.511 332.78C201.652 331.653 202.1 330.821 202.573 330.821H294.169C294.752 330.821 295.119 332.084 294.948 333.481L294.204 339.493C294.063 340.615 293.61 341.451 293.142 341.451Z" fill="white" stroke="black" stroke-width="2"/>
<path id="Vector_36" d="M289.294 360.872H197.507C196.984 360.872 196.647 359.735 196.803 358.473L197.603 352.006C197.728 350.989 198.136 350.237 198.558 350.237H290.346C290.869 350.237 291.206 351.375 291.05 352.637L290.25 359.104C290.124 360.121 289.717 360.872 289.294 360.872Z" fill="white" stroke="black" stroke-width="2"/>
<path id="Vector_37" d="M165.205 321.86H73.7293C73.1106 321.86 72.7183 320.517 72.8993 319.029L73.6086 313.314C73.7595 312.112 74.2373 311.23 74.7353 311.23H166.211C166.829 311.23 167.222 312.572 167.041 314.06L166.331 319.776C166.18 320.973 165.703 321.86 165.205 321.86Z" fill="white" stroke="black" stroke-width="2"/>
<path id="Vector_38" d="M161.477 341.286H69.8814C69.2979 341.286 68.9307 340.023 69.1017 338.626L69.8462 332.615C69.987 331.487 70.4347 330.656 70.9075 330.656H162.504C163.087 330.656 163.454 331.918 163.283 333.316L162.539 339.327C162.398 340.449 161.95 341.286 161.477 341.286Z" fill="white" stroke="black" stroke-width="2"/>
<path id="Vector_39" d="M157.635 360.707H65.8475C65.3244 360.707 64.9874 359.57 65.1433 358.308L65.9431 351.841C66.0688 350.824 66.4762 350.072 66.8988 350.072H158.686C159.209 350.072 159.546 351.209 159.39 352.472L158.59 358.939C158.465 359.956 158.057 360.707 157.635 360.707Z" fill="white" stroke="black" stroke-width="2"/>
</g>
</g>
</g>
<g id="Group_13">
<path id="Vector_40" d="M406.046 202.187H272.434C266.947 202.187 262.068 206.074 261.534 210.873L240.237 403.291C239.704 408.085 243.723 411.978 249.216 411.978L375.801 413.455C381.288 413.455 393.189 408.09 393.722 403.296L415.019 210.878C415.553 206.074 411.534 202.187 406.046 202.187Z" fill="black"/>
<g id="Group_14">
<path id="Vector_41" d="M395.327 201.576H264.949C259.592 201.576 254.819 205.503 254.281 210.352L232.762 404.794C232.224 409.638 236.133 413.57 241.489 413.57H371.867C377.224 413.57 381.997 409.643 382.535 404.794L404.054 210.352C404.587 205.508 400.678 201.576 395.327 201.576Z" fill="#003185" stroke="black" stroke-width="2"/>
<path id="Vector_42" d="M371.862 414.322H241.485C238.552 414.322 235.856 413.19 234.081 411.216C232.476 409.433 231.742 407.123 232.008 404.714L253.526 210.272C254.105 205.062 259.225 200.829 264.944 200.829H395.322C398.254 200.829 400.95 201.961 402.726 203.935C404.33 205.718 405.065 208.028 404.798 210.437L383.28 404.879C382.707 410.084 377.586 414.322 371.862 414.322ZM264.944 202.327C259.97 202.327 255.518 205.964 255.025 210.432L233.507 404.874C233.286 406.858 233.889 408.752 235.202 410.209C236.691 411.867 238.98 412.814 241.485 412.814H371.862C376.837 412.814 381.288 409.177 381.781 404.709L403.299 210.267C403.521 208.283 402.917 206.39 401.604 204.932C400.115 203.274 397.827 202.327 395.322 202.327H264.944Z" fill="black"/>
</g>
<g id="Group_15">
<g id="Group_16">
<path id="Vector_43" d="M274.924 334.283H258.672C255.714 334.283 253.577 331.898 253.904 328.958L255.629 313.379C255.956 310.438 258.617 308.054 261.574 308.054H277.826C280.784 308.054 282.922 310.438 282.595 313.379L280.869 328.958C280.547 331.898 277.882 334.283 274.924 334.283Z" fill="white"/>
</g>
<g id="Group_17">
<path id="Vector_44" d="M271.162 368.266H254.91C251.952 368.266 249.814 365.882 250.141 362.941L251.867 347.362C252.194 344.422 254.855 342.037 257.812 342.037H274.064C277.022 342.037 279.159 344.422 278.833 347.362L277.107 362.941C276.785 365.882 274.124 368.266 271.162 368.266Z" fill="white"/>
</g>
<g id="Group_18">
<path id="Vector_45" d="M267.374 402.53H251.122C248.165 402.53 246.027 400.145 246.354 397.205L248.079 381.626C248.406 378.685 251.067 376.301 254.025 376.301H270.276C273.234 376.301 275.372 378.685 275.045 381.626L273.32 397.205C272.993 400.145 270.332 402.53 267.374 402.53Z" fill="white"/>
</g>
<g id="Group_19">
<path id="Vector_46" d="M307.232 334.283H290.98C288.022 334.283 285.884 331.898 286.211 328.958L287.937 313.379C288.263 310.438 290.924 308.054 293.882 308.054H310.134C313.092 308.054 315.229 310.438 314.902 313.379L313.177 328.958C312.855 331.898 310.189 334.283 307.232 334.283Z" fill="white"/>
</g>
<g id="Group_20">
<path id="Vector_47" d="M303.469 368.266H287.217C284.26 368.266 282.122 365.882 282.449 362.941L284.174 347.362C284.501 344.422 287.162 342.037 290.12 342.037H306.372C309.329 342.037 311.467 344.422 311.14 347.362L309.415 362.941C309.093 365.882 306.432 368.266 303.469 368.266Z" fill="white"/>
</g>
<g id="Group_21">
<path id="Vector_48" d="M299.677 402.53H283.425C280.467 402.53 278.33 400.145 278.657 397.205L280.382 381.626C280.709 378.685 283.37 376.301 286.327 376.301H302.579C305.537 376.301 307.675 378.685 307.348 381.626L305.622 397.205C305.3 400.145 302.64 402.53 299.677 402.53Z" fill="white"/>
</g>
<g id="Group_22">
<path id="Vector_49" d="M339.539 334.283H323.287C320.33 334.283 318.192 331.898 318.519 328.958L320.244 313.379C320.571 310.438 323.232 308.054 326.19 308.054H342.441C345.399 308.054 347.537 310.438 347.21 313.379L345.485 328.958C345.163 331.898 342.497 334.283 339.539 334.283Z" fill="white"/>
</g>
<g id="Group_23">
<path id="Vector_50" d="M335.777 368.266H319.525C316.567 368.266 314.43 365.882 314.757 362.941L316.482 347.362C316.809 344.422 319.47 342.037 322.427 342.037H338.679C341.637 342.037 343.775 344.422 343.448 347.362L341.722 362.941C341.4 365.882 338.74 368.266 335.777 368.266Z" fill="white"/>
</g>
<g id="Group_24">
<path id="Vector_51" d="M331.984 402.53H315.733C312.775 402.53 310.637 400.145 310.964 397.205L312.689 381.626C313.016 378.685 315.677 376.301 318.635 376.301H334.887C337.844 376.301 339.982 378.685 339.655 381.626L337.93 397.205C337.608 400.145 334.947 402.53 331.984 402.53Z" fill="white"/>
</g>
<g id="Group_25">
<path id="Vector_52" d="M371.676 334.283H355.424C352.466 334.283 350.329 331.898 350.656 328.958L352.381 313.379C352.708 310.438 355.369 308.054 358.326 308.054H374.578C377.536 308.054 379.674 310.438 379.347 313.379L377.621 328.958C377.299 331.898 374.639 334.283 371.676 334.283Z" fill="white"/>
</g>
<g id="Group_26">
<path id="Vector_53" d="M278.978 300.254H262.726C259.769 300.254 257.631 297.87 257.958 294.929L259.683 279.35C260.01 276.41 262.671 274.026 265.629 274.026H281.88C284.838 274.026 286.976 276.41 286.649 279.35L284.924 294.929C284.597 297.87 281.936 300.254 278.978 300.254Z" fill="white"/>
</g>
<g id="Group_27">
<path id="Vector_54" d="M311.286 300.254H295.034C292.076 300.254 289.938 297.87 290.265 294.929L291.991 279.35C292.318 276.41 294.979 274.026 297.936 274.026H314.188C317.146 274.026 319.283 276.41 318.956 279.35L317.231 294.929C316.904 297.87 314.243 300.254 311.286 300.254Z" fill="white"/>
</g>
<g id="Group_28">
<path id="Vector_55" d="M343.588 300.254H327.337C324.379 300.254 322.241 297.87 322.568 294.929L324.293 279.35C324.62 276.41 327.281 274.026 330.239 274.026H346.491C349.448 274.026 351.586 276.41 351.259 279.35L349.534 294.929C349.212 297.87 346.551 300.254 343.588 300.254Z" fill="white"/>
</g>
<g id="Group_29">
<path id="Vector_56" d="M375.73 300.254H359.478C356.521 300.254 354.383 297.87 354.71 294.929L356.435 279.35C356.762 276.41 359.423 274.026 362.381 274.026H378.632C381.59 274.026 383.728 276.41 383.401 279.35L381.676 294.929C381.349 297.87 378.688 300.254 375.73 300.254Z" fill="white"/>
</g>
<g id="Group_30">
<path id="Vector_57" d="M364.106 402.715H347.854C344.896 402.715 342.758 400.331 343.085 397.39L348.623 347.357C348.95 344.417 351.611 342.032 354.569 342.032H370.821C373.778 342.032 375.916 344.417 375.589 347.357L370.051 397.39C369.724 400.331 367.063 402.715 364.106 402.715Z" fill="white"/>
</g>
</g>
<g id="Group_31">
<path id="Vector_58" d="M378.929 260.38H268.908C265.105 260.38 262.359 257.314 262.776 253.532L266.071 223.762C266.488 219.98 269.914 216.914 273.717 216.914H383.737C387.54 216.914 390.286 219.98 389.869 223.762L386.574 253.532C386.157 257.314 382.736 260.38 378.929 260.38Z" fill="white" stroke="black" stroke-width="2"/>
</g>
<g id="Group_32">
<path id="Vector_59" d="M330.093 216.779L362.692 260.565L344.881 260.265L312.402 216.779H330.093Z" fill="white"/>
<path id="Vector_60" d="M302.86 216.779L335.379 260.43C328.881 260.761 323.212 260.265 323.212 260.265L291.407 216.779H302.86Z" fill="white"/>
</g>
<g id="Group_33">
<path id="Vector_61" d="M378.929 261.132H268.908C266.856 261.132 265.01 260.335 263.707 258.887C262.399 257.43 261.801 255.501 262.027 253.452L265.321 223.682C265.779 219.539 269.547 216.168 273.717 216.168H383.737C385.79 216.168 387.636 216.964 388.938 218.412C390.246 219.87 390.845 221.798 390.618 223.847L387.324 253.618C386.866 257.76 383.104 261.132 378.929 261.132ZM273.717 217.671C270.291 217.671 267.198 220.441 266.82 223.847L263.526 253.618C263.345 255.236 263.807 256.753 264.829 257.886C265.84 259.013 267.288 259.629 268.908 259.629H378.929C382.354 259.629 385.448 256.859 385.825 253.452L389.12 223.682C389.301 222.064 388.838 220.546 387.817 219.414C386.806 218.287 385.357 217.666 383.737 217.666H273.717V217.671Z" fill="black"/>
</g>
</g>
<g id="Group_34">
<g id="Group_35">
<path id="Vector_62" d="M307.443 191.907C321.466 191.907 332.834 180.586 332.834 166.62C332.834 152.655 321.466 141.333 307.443 141.333C293.419 141.333 282.051 152.655 282.051 166.62C282.051 180.586 293.419 191.907 307.443 191.907Z" fill="black"/>
</g>
<g id="Group_36">
<path id="Vector_63" d="M332.532 171.372C335.593 158.168 327.327 144.993 314.069 141.944C300.811 138.895 287.581 147.127 284.519 160.331C281.458 173.535 289.724 186.71 302.982 189.759C316.24 192.808 329.47 184.576 332.532 171.372Z" fill="#003185" stroke="black" stroke-width="2"/>
<path id="Vector_64" d="M308.524 191.156C294.526 191.156 283.133 179.815 283.133 165.869C283.133 151.928 294.521 140.582 308.524 140.582C322.523 140.582 333.916 151.923 333.916 165.869C333.916 179.81 322.528 191.156 308.524 191.156ZM308.524 142.085C295.356 142.085 284.642 152.755 284.642 165.869C284.642 178.983 295.356 189.653 308.524 189.653C321.693 189.653 332.407 178.983 332.407 165.869C332.407 152.755 321.693 142.085 308.524 142.085Z" fill="black"/>
</g>
<path id="Vector_65" d="M327.71 173.569C331.972 163.02 326.841 151.028 316.249 146.783C305.657 142.539 293.615 147.649 289.353 158.197C285.091 168.746 290.222 180.738 300.814 184.983C311.406 189.228 323.448 184.117 327.71 173.569Z" fill="white"/>
<g id="Group_37">
<path id="Vector_66" d="M306.628 180.406V177.02C304.229 176.915 301.905 176.273 300.547 175.487L301.618 171.319C303.122 172.141 305.23 172.887 307.559 172.887C309.596 172.887 310.994 172.106 310.994 170.678C310.994 169.325 309.847 168.469 307.202 167.577C303.374 166.295 300.763 164.511 300.763 161.055C300.763 157.919 302.981 155.46 306.809 154.713V151.327H310.315V154.463C312.714 154.568 314.324 155.069 315.501 155.64L314.465 159.667C313.534 159.277 311.889 158.455 309.314 158.455C306.99 158.455 306.236 159.452 306.236 160.449C306.236 161.626 307.488 162.372 310.531 163.515C314.787 165.012 316.507 166.971 316.507 170.177C316.507 173.348 314.254 176.058 310.139 176.769V180.406H306.628Z" fill="#FDAD00"/>
</g>
</g>
<g id="Group_38">
<g id="Group_39">
<path id="Vector_67" d="M389.165 193.816C399.897 193.816 408.596 185.152 408.596 174.465C408.596 163.778 399.897 155.114 389.165 155.114C378.434 155.114 369.734 163.778 369.734 174.465C369.734 185.152 378.434 193.816 389.165 193.816Z" fill="black"/>
</g>
<g id="Group_40">
<path id="Vector_68" d="M389.995 192.664C400.407 192.664 408.847 184.258 408.847 173.889C408.847 163.52 400.407 155.114 389.995 155.114C379.583 155.114 371.143 163.52 371.143 173.889C371.143 184.258 379.583 192.664 389.995 192.664Z" fill="#003185" stroke="black" stroke-width="2"/>
<path id="Vector_69" d="M389.995 193.415C379.186 193.415 370.388 184.654 370.388 173.889C370.388 163.124 379.186 154.363 389.995 154.363C400.805 154.363 409.602 163.124 409.602 173.889C409.602 184.659 400.81 193.415 389.995 193.415ZM389.995 155.865C380.016 155.865 371.897 163.95 371.897 173.889C371.897 183.827 380.016 191.912 389.995 191.912C399.975 191.912 408.093 183.827 408.093 173.889C408.093 163.95 399.975 155.865 389.995 155.865Z" fill="black"/>
</g>
<path id="Vector_70" d="M404.63 179.814C407.91 171.75 404.004 162.565 395.907 159.299C387.81 156.032 378.587 159.922 375.307 167.986C372.027 176.05 375.933 185.235 384.03 188.501C392.127 191.767 401.35 187.878 404.63 179.814Z" fill="white"/>
<g id="Group_41">
<path id="Vector_71" d="M388.546 185.015V182.425C386.71 182.345 384.935 181.854 383.894 181.253L384.713 178.062C385.865 178.688 387.48 179.259 389.261 179.259C390.82 179.259 391.891 178.658 391.891 177.571C391.891 176.534 391.016 175.883 388.989 175.196C386.061 174.215 384.06 172.852 384.06 170.207C384.06 167.808 385.755 165.924 388.687 165.353V162.763H391.368V165.163C393.204 165.243 394.436 165.629 395.337 166.064L394.542 169.145C393.828 168.845 392.57 168.218 390.599 168.218C388.818 168.218 388.244 168.98 388.244 169.746C388.244 170.648 389.2 171.219 391.529 172.091C394.789 173.238 396.101 174.735 396.101 177.19C396.101 179.615 394.376 181.688 391.227 182.234V185.015H388.546Z" fill="#FDAD00"/>
</g>
</g>
<g id="Group_42">
<g id="Group_43">
<path id="Vector_72" d="M387.558 124.924C391.314 108.652 381.113 92.4289 364.773 88.6889C348.434 84.949 332.144 95.1083 328.389 111.381C324.633 127.653 334.834 143.876 351.174 147.616C367.513 151.356 383.803 141.196 387.558 124.924Z" fill="black"/>
</g>
<g id="Group_44">
<path id="Vector_73" d="M359.256 146.583C375.524 146.583 388.712 133.449 388.712 117.248C388.712 101.047 375.524 87.9137 359.256 87.9137C342.989 87.9137 329.801 101.047 329.801 117.248C329.801 133.449 342.989 146.583 359.256 146.583Z" fill="#003185" stroke="black" stroke-width="2"/>
<path id="Vector_74" d="M359.256 147.334C342.597 147.334 329.046 133.839 329.046 117.248C329.046 100.657 342.597 87.1624 359.256 87.1624C375.916 87.1624 389.467 100.657 389.467 117.248C389.467 133.839 375.916 147.334 359.256 147.334ZM359.256 88.6652C343.432 88.6652 330.555 101.489 330.555 117.248C330.555 133.008 343.432 145.832 359.256 145.832C375.081 145.832 387.958 133.008 387.958 117.248C387.958 101.489 375.086 88.6652 359.256 88.6652Z" fill="black"/>
</g>
<path id="Vector_75" d="M359.257 141.864C372.908 141.864 383.974 130.843 383.974 117.248C383.974 103.653 372.908 92.6326 359.257 92.6326C345.606 92.6326 334.54 103.653 334.54 117.248C334.54 130.843 345.606 141.864 359.257 141.864Z" fill="white"/>
<g id="Group_45">
<path id="Vector_76" d="M356.988 134.631V130.583C354.121 130.453 351.34 129.687 349.715 128.75L350.997 123.765C352.793 124.747 355.318 125.639 358.1 125.639C360.539 125.639 362.204 124.702 362.204 122.999C362.204 121.381 360.836 120.359 357.672 119.292C353.095 117.759 349.971 115.63 349.971 111.498C349.971 107.751 352.622 104.81 357.199 103.914V99.866H361.389V103.613C364.257 103.743 366.183 104.339 367.591 105.021L366.349 109.835C365.237 109.364 363.271 108.387 360.187 108.387C357.406 108.387 356.51 109.579 356.51 110.771C356.51 112.179 358.009 113.071 361.646 114.433C366.736 116.221 368.789 118.566 368.789 122.398C368.789 126.19 366.092 129.426 361.173 130.278V134.621H356.988V134.631Z" fill="#FDAD00"/>
</g>
</g>
<g id="Group_46">
<g id="Group_47">
<path id="Vector_77" d="M95.9776 114.383C95.5602 114.383 95.2231 114.047 95.2231 113.632V109.769C95.2231 109.354 95.5602 109.018 95.9776 109.018C96.3951 109.018 96.7321 109.354 96.7321 109.769V113.632C96.7321 114.047 96.3951 114.383 95.9776 114.383Z" fill="black"/>
<path id="Vector_78" d="M95.9776 123.38C95.5602 123.38 95.2231 123.044 95.2231 122.628V118.766C95.2231 118.35 95.5602 118.015 95.9776 118.015C96.3951 118.015 96.7321 118.35 96.7321 118.766V122.628C96.7321 123.044 96.3951 123.38 95.9776 123.38Z" fill="black"/>
<path id="Vector_79" d="M93.4021 116.948H89.524C89.1065 116.948 88.7695 116.612 88.7695 116.196C88.7695 115.781 89.1065 115.445 89.524 115.445H93.4021C93.8196 115.445 94.1566 115.781 94.1566 116.196C94.1566 116.612 93.8196 116.948 93.4021 116.948Z" fill="black"/>
<path id="Vector_80" d="M102.436 116.948H98.5577C98.1402 116.948 97.8032 116.612 97.8032 116.196C97.8032 115.781 98.1402 115.445 98.5577 115.445H102.436C102.853 115.445 103.19 115.781 103.19 116.196C103.19 116.612 102.853 116.948 102.436 116.948Z" fill="black"/>
</g>
<path id="Vector_81" d="M391.454 83.5405C390.734 83.5405 390.02 83.4052 389.331 83.1397C387.832 82.5587 386.65 81.4215 386.006 79.9288C384.688 76.8881 386.056 73.3265 389.054 71.989C390.498 71.3428 392.108 71.3027 393.581 71.8737C395.08 72.4548 396.262 73.5919 396.906 75.0847C398.224 78.1254 396.856 81.687 393.858 83.0245C393.083 83.3702 392.269 83.5405 391.454 83.5405ZM391.449 72.9758C390.84 72.9758 390.236 73.106 389.663 73.3615C387.415 74.3684 386.394 77.0484 387.384 79.3377C387.867 80.4547 388.753 81.3063 389.869 81.7421C390.966 82.1679 392.158 82.1329 393.229 81.657C395.478 80.6501 396.499 77.9701 395.508 75.6808C395.025 74.5638 394.14 73.7122 393.023 73.2764C392.515 73.076 391.982 72.9758 391.449 72.9758Z" fill="black"/>
<g id="Group_48">
<path id="Vector_82" d="M407.967 111.398C407.55 111.398 407.213 111.062 407.213 110.646V106.784C407.213 106.368 407.55 106.033 407.967 106.033C408.385 106.033 408.722 106.368 408.722 106.784V110.646C408.722 111.062 408.385 111.398 407.967 111.398Z" fill="black"/>
<path id="Vector_83" d="M407.967 120.389C407.55 120.389 407.213 120.054 407.213 119.638V115.776C407.213 115.36 407.55 115.024 407.967 115.024C408.385 115.024 408.722 115.36 408.722 115.776V119.638C408.722 120.054 408.385 120.389 407.967 120.389Z" fill="black"/>
<path id="Vector_84" d="M405.392 113.962H401.514C401.096 113.962 400.759 113.627 400.759 113.211C400.759 112.795 401.096 112.459 401.514 112.459H405.392C405.809 112.459 406.146 112.795 406.146 113.211C406.146 113.627 405.804 113.962 405.392 113.962Z" fill="black"/>
<path id="Vector_85" d="M414.421 113.962H410.543C410.125 113.962 409.788 113.627 409.788 113.211C409.788 112.795 410.125 112.459 410.543 112.459H414.421C414.838 112.459 415.175 112.795 415.175 113.211C415.175 113.627 414.838 113.962 414.421 113.962Z" fill="black"/>
</g>
<path id="Vector_86" d="M132.767 313.118C131.564 313.118 130.352 313.098 129.16 313.063C128.743 313.048 128.416 312.703 128.431 312.292C128.441 311.886 128.778 311.565 129.185 311.565C129.195 311.565 129.2 311.565 129.21 311.565C131.192 311.626 133.214 311.636 135.206 311.595C135.619 311.595 135.966 311.916 135.976 312.332C135.986 312.748 135.654 313.088 135.236 313.098C134.411 313.108 133.587 313.118 132.767 313.118ZM141.247 312.813C140.855 312.813 140.523 312.512 140.498 312.116C140.468 311.701 140.779 311.345 141.197 311.315C143.179 311.17 145.191 310.974 147.167 310.734C147.58 310.684 147.957 310.974 148.008 311.385C148.058 311.796 147.766 312.172 147.354 312.222C145.352 312.467 143.315 312.667 141.308 312.813C141.282 312.813 141.267 312.813 141.247 312.813ZM123.154 312.718C123.134 312.718 123.114 312.718 123.089 312.718C121.072 312.552 119.04 312.327 117.048 312.056C116.635 312.001 116.344 311.621 116.404 311.21C116.459 310.799 116.842 310.513 117.254 310.569C119.221 310.839 121.223 311.054 123.215 311.22C123.632 311.255 123.939 311.616 123.904 312.031C123.874 312.422 123.542 312.718 123.154 312.718ZM153.229 311.335C152.872 311.335 152.55 311.08 152.484 310.714C152.414 310.303 152.685 309.917 153.098 309.842C155.065 309.497 157.041 309.096 158.978 308.655C159.385 308.56 159.788 308.815 159.883 309.221C159.979 309.627 159.722 310.028 159.315 310.123C157.353 310.574 155.351 310.974 153.359 311.325C153.314 311.33 153.269 311.335 153.229 311.335ZM111.203 311.085C111.158 311.085 111.108 311.079 111.057 311.069C109.07 310.689 107.073 310.248 105.127 309.757C104.724 309.657 104.478 309.246 104.579 308.845C104.679 308.445 105.092 308.199 105.494 308.299C107.416 308.78 109.387 309.216 111.344 309.592C111.751 309.672 112.023 310.063 111.943 310.473C111.872 310.834 111.555 311.085 111.203 311.085ZM164.994 308.64C164.667 308.64 164.365 308.425 164.269 308.094C164.154 307.693 164.385 307.277 164.788 307.167C166.709 306.621 168.63 306.015 170.507 305.374C170.899 305.239 171.332 305.449 171.467 305.84C171.603 306.23 171.392 306.661 171 306.797C169.098 307.448 167.147 308.064 165.2 308.615C165.13 308.63 165.064 308.64 164.994 308.64ZM99.5034 308.149C99.4279 308.149 99.3524 308.139 99.277 308.114C97.3405 307.508 95.4089 306.842 93.5328 306.13C93.1454 305.985 92.9493 305.549 93.0951 305.158C93.241 304.773 93.6786 304.577 94.071 304.723C95.922 305.424 97.8233 306.08 99.7297 306.676C100.127 306.802 100.348 307.222 100.223 307.618C100.122 307.944 99.8253 308.149 99.5034 308.149ZM176.407 304.713C176.11 304.713 175.828 304.537 175.708 304.247C175.552 303.861 175.733 303.425 176.12 303.265C177.976 302.509 179.822 301.697 181.603 300.845C181.98 300.665 182.428 300.825 182.609 301.201C182.79 301.577 182.629 302.023 182.252 302.203C180.446 303.065 178.575 303.891 176.688 304.658C176.598 304.698 176.502 304.713 176.407 304.713ZM88.2261 303.876C88.1205 303.876 88.0149 303.856 87.9143 303.811C86.0632 302.979 84.2273 302.083 82.4517 301.151C82.0845 300.956 81.9437 300.505 82.1348 300.134C82.331 299.768 82.7837 299.628 83.1559 299.819C84.9013 300.735 86.7121 301.617 88.533 302.438C88.9102 302.609 89.0812 303.055 88.9102 303.43C88.7895 303.711 88.5128 303.876 88.2261 303.876ZM187.297 299.523C187.03 299.523 186.774 299.383 186.638 299.137C186.437 298.777 186.567 298.316 186.93 298.115C188.68 297.149 190.415 296.117 192.075 295.055C192.427 294.829 192.895 294.929 193.116 295.28C193.343 295.631 193.237 296.097 192.89 296.317C191.2 297.394 189.445 298.441 187.664 299.423C187.548 299.493 187.422 299.523 187.297 299.523ZM77.5625 298.261C77.4267 298.261 77.2909 298.226 77.1702 298.15C75.4449 297.098 73.7398 295.981 72.0899 294.819C71.7479 294.579 71.6674 294.113 71.9089 293.772C72.1503 293.432 72.6181 293.351 72.9601 293.592C74.5798 294.734 76.2648 295.836 77.9599 296.868C78.3171 297.083 78.4277 297.549 78.2114 297.9C78.0605 298.13 77.814 298.261 77.5625 298.261ZM197.452 293.026C197.221 293.026 196.995 292.921 196.849 292.725C196.602 292.39 196.668 291.924 197.005 291.673L197.362 291.408C198.831 290.311 200.284 289.149 201.682 287.961C201.999 287.691 202.477 287.726 202.744 288.042C203.015 288.357 202.98 288.833 202.663 289.104C201.245 290.316 199.766 291.493 198.267 292.61L197.905 292.881C197.764 292.976 197.608 293.026 197.452 293.026ZM67.7088 291.333C67.5428 291.333 67.3718 291.278 67.236 291.167C65.6666 289.905 64.1174 288.568 62.6386 287.205C62.3318 286.925 62.3167 286.449 62.5983 286.143C62.88 285.837 63.3579 285.817 63.6647 286.103C65.1234 287.445 66.6475 288.758 68.1867 290.005C68.5086 290.266 68.5589 290.742 68.2973 291.062C68.1464 291.238 67.9251 291.333 67.7088 291.333ZM206.612 285.216C206.416 285.216 206.22 285.141 206.074 284.991C205.782 284.695 205.787 284.219 206.084 283.929C207.492 282.546 208.88 281.094 210.203 279.606C210.48 279.295 210.958 279.27 211.27 279.541C211.582 279.816 211.612 280.292 211.335 280.603C209.987 282.116 208.579 283.593 207.145 284.996C206.994 285.141 206.803 285.216 206.612 285.216ZM58.856 283.178C58.6548 283.178 58.4587 283.097 58.3078 282.942C56.9195 281.479 55.5614 279.957 54.2737 278.409C54.0071 278.088 54.0524 277.617 54.3743 277.352C54.6962 277.086 55.1691 277.131 55.4356 277.452C56.7032 278.975 58.0412 280.478 59.4043 281.91C59.691 282.211 59.6759 282.687 59.3741 282.972C59.2283 283.107 59.0421 283.178 58.856 283.178ZM214.62 276.235C214.459 276.235 214.298 276.184 214.157 276.074C213.83 275.819 213.77 275.348 214.021 275.022C215.233 273.469 216.415 271.846 217.537 270.198C217.773 269.858 218.241 269.768 218.583 269.998C218.93 270.233 219.016 270.699 218.784 271.04C217.643 272.713 216.44 274.361 215.208 275.944C215.067 276.134 214.846 276.235 214.62 276.235ZM51.1551 273.935C50.9237 273.935 50.6924 273.83 50.5415 273.625C49.8825 272.723 49.2337 271.796 48.61 270.875C48.1019 270.123 47.604 269.367 47.1261 268.615C46.9048 268.265 47.0104 267.799 47.3625 267.578C47.7146 267.358 48.1824 267.458 48.4037 267.814C48.8715 268.55 49.3644 269.302 49.8624 270.038C50.4761 270.945 51.1149 271.856 51.7638 272.748C52.0102 273.084 51.9348 273.555 51.5978 273.795C51.467 273.885 51.3111 273.935 51.1551 273.935ZM221.405 266.296C221.274 266.296 221.144 266.261 221.023 266.191C220.666 265.98 220.545 265.52 220.761 265.159C221.767 263.466 222.748 261.713 223.669 259.939C223.86 259.569 224.312 259.428 224.685 259.619C225.057 259.809 225.198 260.265 225.007 260.631C224.071 262.429 223.08 264.207 222.054 265.925C221.913 266.166 221.662 266.296 221.405 266.296ZM44.7067 263.786C44.4401 263.786 44.1836 263.646 44.0427 263.396C43.0719 261.632 42.1464 259.819 41.2913 257.996C41.1153 257.62 41.2762 257.174 41.6535 256.994C42.0307 256.818 42.4784 256.979 42.6595 257.354C43.5045 259.148 44.4149 260.936 45.3706 262.669C45.5718 263.035 45.436 263.491 45.0739 263.691C44.9532 263.756 44.8274 263.786 44.7067 263.786ZM226.958 255.626C226.853 255.626 226.752 255.606 226.651 255.561C226.269 255.391 226.103 254.945 226.274 254.569C227.084 252.776 227.864 250.922 228.588 249.059C228.739 248.673 229.176 248.478 229.564 248.628C229.951 248.778 230.147 249.214 229.996 249.6C229.262 251.488 228.472 253.367 227.652 255.185C227.522 255.461 227.25 255.626 226.958 255.626ZM39.5862 252.911C39.2844 252.911 39.0027 252.731 38.882 252.435C38.1426 250.572 37.4534 248.653 36.8297 246.735C36.6989 246.339 36.9203 245.918 37.3126 245.788C37.71 245.658 38.1325 245.878 38.2633 246.269C38.8769 248.157 39.556 250.046 40.2853 251.879C40.4362 252.265 40.2501 252.701 39.8578 252.856C39.7723 252.896 39.6767 252.911 39.5862 252.911ZM231.319 244.415C231.239 244.415 231.163 244.405 231.083 244.375C230.685 244.245 230.474 243.819 230.6 243.428C231.219 241.555 231.802 239.631 232.335 237.708C232.446 237.307 232.863 237.072 233.261 237.182C233.663 237.292 233.9 237.703 233.789 238.104C233.251 240.052 232.662 242.001 232.033 243.899C231.933 244.215 231.636 244.415 231.319 244.415ZM35.864 241.485C35.527 241.485 35.2201 241.259 35.1346 240.919C34.6316 238.98 34.184 236.991 33.7966 235.013C33.7162 234.607 33.9827 234.211 34.3952 234.131C34.8077 234.051 35.2 234.322 35.2805 234.727C35.6577 236.676 36.1004 238.635 36.5983 240.543C36.704 240.944 36.4575 241.355 36.0551 241.46C35.9897 241.48 35.9243 241.485 35.864 241.485ZM33.5703 229.693C33.1981 229.693 32.8711 229.417 32.8208 229.042C32.5593 227.053 32.348 225.024 32.2021 223.02C32.172 222.605 32.4838 222.249 32.9013 222.219C33.3188 222.194 33.6759 222.499 33.7061 222.915C33.8469 224.894 34.0532 226.888 34.3147 228.851C34.3701 229.262 34.0783 229.643 33.6659 229.693C33.6357 229.688 33.6005 229.693 33.5703 229.693ZM32.7001 217.706C32.2876 217.706 31.9506 217.375 31.9456 216.964C31.9406 216.503 31.9355 216.037 31.9355 215.572C31.9355 214.024 31.9708 212.456 32.0412 210.908C32.0613 210.492 32.4084 210.151 32.8309 210.192C33.2484 210.212 33.5703 210.562 33.5502 210.978C33.4798 212.501 33.4445 214.049 33.4445 215.572C33.4445 216.027 33.4496 216.483 33.4546 216.944C33.4596 217.36 33.1277 217.701 32.7102 217.706C32.7051 217.706 32.7051 217.706 32.7001 217.706ZM33.2383 205.703C33.2132 205.703 33.188 205.703 33.1629 205.698C32.7504 205.658 32.4486 205.287 32.4888 204.872C32.6951 202.878 32.9617 200.859 33.2786 198.87C33.3439 198.46 33.7312 198.184 34.1437 198.249C34.5562 198.314 34.8328 198.7 34.7674 199.111C34.4505 201.07 34.189 203.063 33.9878 205.027C33.9475 205.413 33.6206 205.703 33.2383 205.703ZM35.1497 193.836C35.0944 193.836 35.0441 193.831 34.9887 193.816C34.5813 193.726 34.3248 193.325 34.4153 192.919C34.8479 190.956 35.3408 188.982 35.8841 187.043C35.9947 186.643 36.4122 186.407 36.8146 186.522C37.217 186.633 37.4484 187.048 37.3378 187.449C36.8046 189.358 36.3167 191.306 35.8891 193.24C35.8086 193.601 35.4968 193.836 35.1497 193.836ZM38.394 182.265C38.3136 182.265 38.2331 182.249 38.1526 182.224C37.7603 182.089 37.549 181.663 37.6798 181.273C38.3337 179.369 39.0479 177.461 39.8024 175.602C39.9584 175.216 40.401 175.031 40.7833 175.186C41.1706 175.342 41.3567 175.782 41.2008 176.163C40.4563 177.997 39.7471 179.88 39.1083 181.759C39.0027 182.069 38.7059 182.265 38.394 182.265ZM42.9261 171.124C42.8204 171.124 42.7098 171.099 42.6041 171.054C42.2269 170.878 42.0659 170.427 42.247 170.052C43.1122 168.233 44.0377 166.415 44.9984 164.657C45.1996 164.291 45.6573 164.156 46.0195 164.356C46.3867 164.557 46.5225 165.012 46.3213 165.373C45.3706 167.111 44.4602 168.9 43.6051 170.693C43.4794 170.968 43.2128 171.124 42.9261 171.124ZM48.6955 160.569C48.5597 160.569 48.4238 160.534 48.2981 160.454C47.946 160.233 47.8353 159.773 48.0567 159.417C49.123 157.709 50.2497 156.006 51.4066 154.363C51.6481 154.022 52.1159 153.942 52.4579 154.177C52.7999 154.418 52.8804 154.884 52.644 155.224C51.5022 156.842 50.3906 158.52 49.3393 160.203C49.1985 160.444 48.947 160.569 48.6955 160.569ZM55.6368 150.736C55.4709 150.736 55.3099 150.681 55.1691 150.575C54.8421 150.32 54.7868 149.844 55.0483 149.519C56.3008 147.946 57.6187 146.383 58.9617 144.88C59.2383 144.569 59.7162 144.544 60.028 144.82C60.3399 145.095 60.365 145.571 60.0884 145.882C58.7655 147.365 57.4678 148.902 56.2304 150.455C56.0795 150.636 55.8582 150.736 55.6368 150.736ZM63.6647 141.759C63.4736 141.759 63.2774 141.684 63.1315 141.539C62.8348 141.248 62.8348 140.767 63.1315 140.477C64.555 139.059 66.0389 137.661 67.5529 136.324C67.8647 136.048 68.3426 136.073 68.6192 136.384C68.8959 136.695 68.8707 137.171 68.5589 137.446C67.07 138.769 65.6063 140.146 64.2029 141.544C64.052 141.684 63.8558 141.759 63.6647 141.759ZM72.6734 133.769C72.4521 133.769 72.2308 133.674 72.0799 133.484C71.8233 133.158 71.8736 132.687 72.2006 132.427C73.78 131.179 75.4198 129.962 77.0696 128.805C77.4117 128.57 77.8794 128.65 78.1209 128.99C78.3623 129.331 78.2768 129.797 77.9348 130.037C76.3051 131.174 74.6904 132.377 73.1362 133.604C73.0004 133.714 72.8394 133.769 72.6734 133.769ZM82.5422 126.861C82.2907 126.861 82.0443 126.736 81.8984 126.506C81.6771 126.155 81.7877 125.689 82.1398 125.469C83.845 124.412 85.6105 123.39 87.3911 122.423C87.7583 122.223 88.2161 122.358 88.4122 122.724C88.6134 123.089 88.4776 123.545 88.1104 123.746C86.355 124.697 84.6146 125.709 82.9346 126.746C82.8139 126.821 82.6781 126.861 82.5422 126.861Z" fill="#FDAD00"/>
<g id="Group_49">
<path id="Vector_87" d="M17.3941 118.345C17.3136 118.345 17.2331 118.33 17.1526 118.305C16.7553 118.175 16.544 117.744 16.6798 117.354C23.8777 96.074 35.3713 78.0153 49.923 65.1313C50.2349 64.8558 50.7127 64.8808 50.9894 65.1914C51.266 65.502 51.2358 65.9779 50.929 66.2534C36.5684 78.9671 25.2207 96.8053 18.1083 117.834C18.0027 118.15 17.7059 118.345 17.3941 118.345Z" fill="black"/>
<path id="Vector_88" d="M15.0347 103.287C14.9492 103.287 14.8587 103.272 14.7682 103.242C14.3758 103.097 14.1797 102.661 14.3255 102.275C21.8906 82.148 37.1214 55.1327 66.7229 40.7358C67.0951 40.5555 67.5478 40.7058 67.7339 41.0815C67.915 41.4522 67.7641 41.903 67.3869 42.0884C38.2331 56.2648 23.2135 82.9295 15.744 102.796C15.6283 103.102 15.3416 103.287 15.0347 103.287Z" fill="black"/>
<path id="Vector_89" d="M60.9384 64.8557C60.4354 64.8557 59.9324 64.7606 59.4445 64.5752C58.3932 64.1695 57.5633 63.368 57.1106 62.326C56.1901 60.1971 57.1458 57.7024 59.2483 56.7607C60.2644 56.3098 61.3911 56.2798 62.4273 56.6805C63.4785 57.0863 64.3085 57.8878 64.7612 58.9297C65.6817 61.0587 64.726 63.5533 62.6234 64.4951C62.0852 64.7305 61.5118 64.8557 60.9384 64.8557ZM59.867 58.1282C58.5139 58.7343 57.9003 60.3473 58.4989 61.7249C58.7906 62.3962 59.3187 62.9071 59.9928 63.1676C60.6467 63.4231 61.3659 63.403 62.0048 63.1175C63.3578 62.5114 63.9715 60.8984 63.3729 59.5208C63.0812 58.8496 62.553 58.3386 61.879 58.0781C61.2251 57.8226 60.5109 57.8427 59.867 58.1282Z" fill="black"/>
</g>
</g>
<g id="Group_50">
<path id="Vector_90" d="M73.1607 140.973C79.2068 136.409 85.0466 131.595 93.2455 132.196C97.2896 132.492 98.0391 133.454 102.108 131.851C103.778 131.194 106.077 128.645 108.039 129.486C110.705 130.628 111.474 136.604 110.176 141.433C108.889 146.232 104.543 149.243 101.983 153.286C97.9888 159.587 94.1056 164.797 88.9046 170.277C83.6583 175.802 78.563 182.31 78.2662 189.914C77.9996 196.807 81.7419 203.199 82.7881 210.016C85.3182 226.502 72.5924 237.487 57.8797 241.214C52.1052 242.677 45.8177 242.702 40.3451 240.353C31.0648 236.37 31.5125 229.242 27.7349 221.473C26.1857 218.282 23.2281 216.052 20.8187 213.443C13.5655 205.583 7.28302 183.206 22.6345 180.015C26.4674 179.219 30.7328 180.436 34.1934 178.613C38.9267 176.113 38.4237 170.948 40.0534 166.675C41.6881 162.387 44.8872 158.646 48.3931 155.76C55.8526 149.619 65.4598 146.783 73.1607 140.973Z" fill="black"/>
<g id="Group_51">
<g id="Group_52">
<g id="Group_53">
<path id="Vector_91" d="M33.9574 382.477C32.3528 385.718 28.9676 392.922 27.2021 400.23C26.4878 403.181 27.2574 404.849 27.9314 407.243C28.9022 410.68 29.9988 412.293 29.5209 413.265C28.525 415.313 17.0767 414.808 13.2741 408.576C12.0618 406.587 11.8103 403.667 13.8123 393.272C15.8645 382.608 15.1 380.944 16.6844 379.647C21.6591 375.569 32.5691 381.686 33.9574 382.477Z" fill="white"/>
<path id="Vector_92" d="M25.7432 415.093C21.7443 415.093 15.4166 413.525 12.635 408.967C11.292 406.768 11.0154 403.832 13.0777 393.132C13.9127 388.789 14.2849 385.919 14.5313 384.015C14.9086 381.11 15.0444 380.023 16.2114 379.066C21.4224 374.788 32.2268 380.609 34.3394 381.821L34.9531 382.172L34.6412 382.803C32.4582 387.211 29.5257 393.844 27.9413 400.401C27.3779 402.735 27.8155 404.193 28.3688 406.036C28.4644 406.357 28.565 406.687 28.6606 407.033C29.0177 408.29 29.395 409.312 29.6968 410.129C30.2651 411.672 30.6424 412.689 30.2048 413.585C29.6666 414.692 27.8407 415.003 26.4071 415.073C26.1909 415.088 25.9695 415.093 25.7432 415.093ZM21.1961 379.011C19.6468 379.011 18.2384 379.352 17.1671 380.233C16.488 380.789 16.3874 381.405 16.0253 384.216C15.7788 386.134 15.4015 389.035 14.5565 393.423C12.6099 403.522 12.8312 406.407 13.9227 408.19C16.4729 412.373 22.8308 413.716 26.2412 413.585C27.9765 413.515 28.7562 413.114 28.8417 412.939C28.9976 412.619 28.6656 411.707 28.2733 410.66C27.9614 409.813 27.5741 408.766 27.2019 407.449C27.1063 407.113 27.0107 406.788 26.9152 406.477C26.3166 404.498 25.8035 402.785 26.4625 400.06C28.0017 393.678 30.7832 387.256 32.9612 382.793C31.0196 381.736 25.5621 379.011 21.1961 379.011Z" fill="black"/>
</g>
<path id="Vector_93" d="M27.2222 412.909C27.2021 412.909 27.177 412.909 27.1568 412.904C22.3834 412.488 18.963 410.745 16.9862 407.719C13.3445 402.139 15.9852 394.304 16.1009 393.974C16.2367 393.583 16.6643 393.373 17.0616 393.508C17.454 393.643 17.6652 394.069 17.5294 394.465C17.5043 394.54 15.0144 401.944 18.2588 406.908C19.969 409.523 23.0071 411.041 27.2926 411.411C27.7101 411.446 28.017 411.812 27.9767 412.223C27.9365 412.614 27.6095 412.909 27.2222 412.909Z" fill="#FDAD00"/>
</g>
<g id="Group_54">
<g id="Group_55">
<path id="Vector_94" d="M85.907 395.953C85.907 395.953 86.5006 400.541 84.559 411.101C84.2824 412.619 85.897 413.861 87.4362 414.001C93.7287 414.557 108.497 415.554 120.82 415.164C121.962 415.128 122.792 414.262 123.048 413.52C125.332 406.898 107.174 404.779 106.434 400.291C105.112 392.256 85.907 395.953 85.907 395.953Z" fill="white"/>
<path id="Vector_95" d="M114.87 416C102.013 416 89.0104 414.893 87.3656 414.748C86.1936 414.643 85.0467 414.036 84.3778 413.16C83.8697 412.494 83.6736 411.732 83.8144 410.966C85.7157 400.646 85.1624 396.093 85.1574 396.048L85.0669 395.347L85.761 395.211C86.3093 395.106 99.2816 392.667 104.769 396.474C106.117 397.41 106.927 398.653 107.179 400.161C107.425 401.663 111.037 403.206 114.221 404.564C119.412 406.778 125.297 409.288 123.763 413.751C123.405 414.783 122.289 415.855 120.845 415.9C118.883 415.97 116.882 416 114.87 416ZM86.7117 396.579C86.8022 398.252 86.8324 402.896 85.2982 411.236C85.2329 411.582 85.3284 411.922 85.5799 412.248C85.9873 412.784 86.762 413.185 87.5014 413.25C89.3927 413.415 106.394 414.863 120.795 414.407C121.64 414.382 122.188 413.696 122.334 413.27C123.415 410.124 118.441 408 113.627 405.946C109.573 404.218 106.072 402.72 105.69 400.406C105.509 399.299 104.925 398.417 103.909 397.711C99.5985 394.72 89.4077 396.133 86.7117 396.579Z" fill="black"/>
</g>
<path id="Vector_96" d="M112.636 413.235C101.259 413.235 89.3577 411.557 87.5821 410.42C87.23 410.194 87.1294 409.728 87.3557 409.383C87.5821 409.032 88.0499 408.932 88.3969 409.157C89.921 410.134 106.102 412.459 119.286 411.512C119.704 411.487 120.061 411.792 120.091 412.208C120.121 412.624 119.809 412.979 119.392 413.01C117.219 413.165 114.935 413.235 112.636 413.235Z" fill="#FDAD00"/>
</g>
<path id="Vector_97" d="M115.911 231.251C115.911 231.251 114.347 341.827 119.628 391.675C120.488 399.8 113.833 406.763 105.645 406.312C103.084 406.172 100.112 405.611 96.6661 404.458C88.9501 401.869 82.8839 401.398 78.5682 401.643C74.338 401.889 70.7969 398.487 70.8069 394.269C70.8623 372.814 71.4055 318.649 75.3138 295.901C75.3138 295.901 58.735 343.765 45.149 386.034C43.5394 391.043 38.7357 394.32 33.4593 394.049C27.4988 393.743 19.1892 392.186 10.1051 387.081C3.94333 383.615 1.02594 376.326 3.01279 369.548C10.3767 344.472 32.8808 279.521 81.3448 225.069L115.911 231.251Z" fill="black"/>
<path id="Vector_98" d="M72.3008 307.608C72.2304 307.608 72.1549 307.598 72.0845 307.578C71.6871 307.458 71.4558 307.042 71.5765 306.641C73.5533 300.049 78.6336 286.764 82.728 276.525C85.1021 270.594 90.2478 266.181 96.495 264.718C96.8974 264.623 97.3049 264.873 97.4004 265.279C97.496 265.685 97.2445 266.086 96.8371 266.181C91.0727 267.528 86.3194 271.601 84.1263 277.081C80.042 287.285 74.9818 300.525 73.0201 307.072C72.9245 307.398 72.6278 307.608 72.3008 307.608Z" fill="white" stroke="black" stroke-width="2"/>
</g>
<g id="Group_56">
<g id="Group_57">
<g id="Group_58">
<path id="Vector_99" d="M191.668 159.818C192.216 159.046 191.974 157.949 191.099 157.493C190.481 157.173 189.721 157.318 189.218 157.804L181.271 165.463L180.426 165.303C178.761 164.987 177.166 166.13 176.95 167.808C176.95 167.808 177.056 172.707 175.572 174.62C167.931 184.499 150.442 201.816 147.741 201.816C144.843 201.816 140.015 199.121 140.015 199.121L118.185 203.354C118.185 203.354 129.386 221.052 148.51 216.819C164.616 213.252 179.218 187.034 183.423 178.853C183.926 177.871 184.741 177.095 185.722 176.594C186.135 176.384 186.522 176.118 186.874 175.798L190.154 172.837C191.391 171.72 191.798 169.947 191.175 168.404L190.39 166.47C189.61 164.552 189.862 162.368 191.064 160.674L191.668 159.818Z" fill="white"/>
<path id="Vector_100" d="M142.711 218.222C126.901 218.222 117.646 203.92 117.541 203.755C117.41 203.544 117.39 203.284 117.485 203.058C117.586 202.828 117.787 202.668 118.034 202.618L139.864 198.385C140.04 198.35 140.221 198.38 140.377 198.465C140.422 198.49 145.07 201.065 147.736 201.065C149.999 200.919 166.935 184.544 174.968 174.159C176.049 172.757 176.215 169.11 176.19 167.818C176.19 167.778 176.19 167.743 176.195 167.702C176.331 166.686 176.864 165.794 177.699 165.193C178.534 164.592 179.555 164.366 180.566 164.562L181.029 164.652L188.695 157.263C189.449 156.537 190.556 156.361 191.451 156.827C192.055 157.143 192.493 157.699 192.648 158.355C192.809 159.011 192.674 159.703 192.286 160.254L191.678 161.11C190.621 162.603 190.4 164.501 191.089 166.195L191.874 168.128C192.618 169.957 192.13 172.076 190.662 173.398L187.382 176.359C186.985 176.719 186.542 177.02 186.064 177.265C185.194 177.711 184.515 178.377 184.092 179.199C179.943 187.279 165.119 213.914 148.671 217.555C146.594 218.011 144.607 218.222 142.711 218.222ZM119.467 203.87C122.083 207.381 132.485 219.594 148.344 216.088C164.149 212.591 178.675 186.442 182.749 178.513C183.318 177.411 184.223 176.519 185.375 175.928C185.732 175.747 186.064 175.517 186.366 175.247L189.646 172.286C190.647 171.384 190.978 169.937 190.47 168.689L189.686 166.756C188.806 164.587 189.087 162.152 190.44 160.244L191.049 159.387C191.19 159.192 191.235 158.941 191.18 158.711C191.124 158.475 190.968 158.28 190.747 158.165C190.435 157.999 190.023 158.075 189.741 158.35L181.794 166.009C181.618 166.18 181.366 166.255 181.125 166.21L180.28 166.049C179.681 165.934 179.078 166.069 178.585 166.425C178.102 166.771 177.79 167.282 177.699 167.863C177.709 168.624 177.709 173.087 176.16 175.086C168.952 184.409 151.025 202.577 147.731 202.577C145.025 202.577 140.93 200.484 139.879 199.922L119.467 203.87Z" fill="black"/>
</g>
<path id="Vector_101" d="M125.755 179.73C121.977 174.505 115.856 171.474 109.392 171.585L72.3412 172.106C69.0616 172.151 66.4209 174.791 66.3806 178.057L66.1291 200.023L62.4673 234.612C79.2021 222.199 96.641 232.819 106.399 236.065C116.157 239.311 119.15 234.913 119.15 234.913L118.184 205.864C118.184 205.864 121.464 213.212 130.307 218.748C131.459 219.469 132.978 218.983 133.541 217.751C136.172 211.975 141.192 208.038 141.559 199.647C141.639 197.794 140.814 196.02 139.376 194.848C134.119 190.555 129.26 184.574 125.755 179.73Z" fill="#FDAD00"/>
</g>
<g id="Group_59">
<path id="Vector_102" d="M102.778 248.242L48.8913 277.968C46.3009 279.396 43.0364 278.464 41.5978 275.884L23.7011 243.704C22.2676 241.124 23.2032 237.873 25.7936 236.441L79.6799 206.715C82.2703 205.287 85.5348 206.219 86.9733 208.799L104.87 240.974C106.309 243.564 105.368 246.815 102.778 248.242Z" fill="white" stroke="black" stroke-width="2"/>
<path id="Vector_103" d="M102.219 252.726L53.2873 279.716C50.6969 281.144 47.4324 280.212 45.9938 277.632L28.0971 245.457C26.6636 242.878 27.5992 239.626 30.1896 238.194L79.1213 211.204C81.7118 209.776 84.9762 210.708 86.4148 213.287L104.311 245.462C105.75 248.042 104.814 251.293 102.219 252.726Z" fill="white"/>
<path id="Vector_104" d="M107.818 254.569L51.5977 285.577C49.0073 287.005 45.7428 286.073 44.3042 283.493L26.4126 251.318C24.979 248.738 25.9146 245.487 28.505 244.055L84.7252 213.047C87.3156 211.619 90.5801 212.551 92.0187 215.131L109.915 247.306C111.349 249.886 110.413 253.137 107.818 254.569Z" fill="#003185" stroke="black" stroke-width="2"/>
</g>
<g id="Group_60">
<g id="Group_61">
<path id="Vector_105" d="M76.632 257.605L68.0257 253.036C68.0257 253.036 75.9731 254.133 75.0828 251.438C74.625 250.051 73.9359 250.121 72.1352 250.096C70.8173 250.076 68.5639 249.951 66.5318 249.825C63.3528 249.625 60.4103 248.067 58.5039 245.527C52.9609 238.154 50.2849 227.875 51.3714 223.607C52.1611 220.501 55.2344 216.263 57.4577 212.857C51.7034 208.323 49.0023 208.408 43.1876 204.416C37.4635 213.898 36.8046 223.311 37.3126 226.487C39.4604 239.922 53.1671 251.248 57.4124 254.469C58.2273 255.09 59.0069 255.751 59.7463 256.463C62.6839 259.298 68.3024 264.022 72.276 263.03C77.8744 261.632 76.632 257.605 76.632 257.605Z" fill="white"/>
<path id="Vector_106" d="M71.1291 263.917C67.256 263.917 62.6032 260.265 59.2231 257.004C58.5239 256.328 57.7644 255.676 56.9596 255.065C52.7294 251.859 38.7611 240.323 36.568 226.607C35.9493 222.73 37.0207 213.172 42.5336 204.025C42.6392 203.85 42.8153 203.72 43.0215 203.679C43.2277 203.634 43.439 203.679 43.61 203.795C46.1803 205.558 48.137 206.515 50.0333 207.441C52.4276 208.614 54.6911 209.721 57.9203 212.265C58.2272 212.506 58.2976 212.937 58.0863 213.262C57.7292 213.813 57.3469 214.384 56.9596 214.965C54.9778 217.936 52.7344 221.302 52.1006 223.782C51.0292 228 53.7957 237.998 59.1074 245.067C60.878 247.421 63.5992 248.879 66.582 249.064C69.1372 249.224 71.0637 249.314 72.1502 249.335L72.4369 249.34C74.0414 249.36 75.2034 249.375 75.8069 251.193C76.0132 251.824 75.9176 252.425 75.5253 252.886C74.811 253.738 73.131 253.993 71.4912 254.013L76.994 256.934C77.1701 257.029 77.3009 257.184 77.3612 257.374C77.3813 257.445 77.8843 259.128 76.9186 260.836C76.1289 262.229 74.635 263.21 72.467 263.751C72.0294 263.867 71.5818 263.917 71.1291 263.917ZM43.4239 205.483C37.8708 215.091 37.6746 223.967 38.0569 226.372C40.1594 239.541 53.7555 250.752 57.87 253.873C58.7251 254.519 59.5299 255.21 60.2744 255.927C65.1534 260.641 69.4641 262.965 72.0948 262.304C73.8402 261.868 75.0172 261.131 75.5957 260.11C76.0484 259.313 76.0232 258.512 75.9679 258.106L67.6735 253.703C67.3515 253.532 67.2006 253.157 67.3113 252.806C67.422 252.46 67.764 252.245 68.1312 252.295C70.7015 252.651 73.8151 252.586 74.3633 251.934C74.3885 251.904 74.4287 251.854 74.3684 251.674C74.1118 250.902 74.0414 250.872 72.4117 250.852L72.12 250.847C70.9933 250.827 69.0969 250.737 66.4814 250.577C63.061 250.361 59.9323 248.688 57.8952 245.978C52.337 238.579 49.475 227.97 50.6319 223.421C51.326 220.691 53.6448 217.21 55.692 214.139C55.9435 213.763 56.195 213.388 56.4314 213.022C53.6096 210.873 51.5423 209.861 49.3593 208.794C47.5887 207.922 45.7578 207.026 43.4239 205.483Z" fill="black"/>
</g>
<path id="Vector_107" d="M71.974 172.216C66.1644 172.316 60.7018 174.951 57.0098 179.419C52.4275 184.97 46.0243 193.195 40.6473 201.876C40.0739 202.803 39.9984 203.975 40.5165 204.937C44.2437 211.895 51.1197 210.963 56.3962 214.049C57.1959 214.515 58.217 214.309 58.7502 213.553C63.3526 207.021 68.7297 202.683 68.7297 202.683L73.8301 172.186L71.974 172.216Z" fill="#FDAD00"/>
</g>
</g>
<g id="Group_62">
<g id="Group_63">
<g id="Group_64">
<path id="Vector_108" d="M98.8085 139.149C99.8346 139.991 100.428 140.231 101.258 141.033C102.948 142.661 104.427 147.48 107.269 148.472C107.571 150.045 106.308 150.225 105.83 151.101C106.182 151.873 106.766 155.48 107.385 157.684C107.601 158.455 107.209 159.277 106.459 159.577C105.202 160.083 103.788 160.414 102.204 160.529C102.204 160.529 94.0904 169.731 102.35 176.058C102.35 176.058 94.6084 182.405 85.8412 173.158C84.302 171.535 91.3943 157.238 91.3943 157.238C91.1528 157.148 87.984 155.94 87.652 153.331C87.5313 152.374 87.7375 150.846 88.6077 150.52C89.4527 150.205 90.8712 151.051 91.7665 152.855C91.9627 152.424 92.1337 151.873 92.3097 151.242C92.5512 150.37 92.7272 149.373 92.4808 148.872C100.383 146.738 93.2755 139.094 98.8085 139.149Z" fill="white"/>
<path id="Vector_109" d="M95.846 178.913C92.8431 178.913 89.1461 177.731 85.2931 173.674C84.6191 172.962 84.4028 171.334 87.3453 164.301C88.5073 161.531 89.7799 158.846 90.3784 157.609C89.2266 157.033 87.1995 155.705 86.9077 153.426C86.7568 152.249 87.0134 150.315 88.3463 149.819C89.3372 149.448 90.5696 150.004 91.5554 151.157C91.5655 151.117 91.5756 151.081 91.5856 151.041C91.983 149.594 91.8069 149.208 91.8069 149.208C91.7063 149.008 91.7013 148.772 91.7969 148.567C91.8874 148.361 92.0685 148.211 92.2898 148.151C96.017 147.144 95.8913 144.955 95.7555 142.641C95.68 141.308 95.6046 140.051 96.4194 139.194C96.9426 138.648 97.7323 138.403 98.8238 138.403C98.9948 138.403 99.1658 138.468 99.2966 138.573C99.7191 138.919 100.061 139.159 100.393 139.39C100.846 139.705 101.278 140.001 101.791 140.497C102.486 141.163 103.104 142.24 103.763 143.377C104.804 145.18 105.986 147.224 107.531 147.765C107.782 147.855 107.973 148.071 108.024 148.331C108.305 149.804 107.516 150.49 106.998 150.946C106.882 151.046 106.781 151.137 106.691 151.227C106.857 151.773 107.038 152.634 107.304 153.902C107.556 155.104 107.843 156.461 108.129 157.483C108.451 158.631 107.863 159.833 106.761 160.274C105.489 160.785 104.09 161.115 102.601 161.25C101.842 162.202 99.0602 165.979 99.4475 169.897C99.6588 172.035 100.796 173.904 102.823 175.462C103.004 175.602 103.114 175.818 103.119 176.043C103.124 176.273 103.024 176.489 102.843 176.634C102.782 176.679 99.9756 178.913 95.846 178.913ZM89.0002 151.207C88.9499 151.207 88.9097 151.212 88.8745 151.227C88.5676 151.342 88.286 152.314 88.4016 153.235C88.6833 155.42 91.5353 156.487 91.656 156.532C91.8572 156.607 92.0182 156.762 92.0987 156.957C92.1792 157.158 92.1691 157.378 92.0735 157.569C88.9147 163.935 85.8514 171.525 86.4198 172.677C93.0996 179.715 99.035 177.24 101.102 176.003C99.2211 174.31 98.1548 172.311 97.9335 170.042C97.4305 164.882 101.47 160.234 101.641 160.038C101.771 159.888 101.957 159.798 102.154 159.783C103.607 159.677 104.965 159.372 106.183 158.881C106.57 158.726 106.776 158.295 106.66 157.889C106.359 156.822 106.067 155.435 105.81 154.212C105.569 153.06 105.292 151.748 105.141 151.422C105.041 151.207 105.051 150.961 105.167 150.751C105.393 150.34 105.705 150.065 105.986 149.819C106.334 149.519 106.535 149.338 106.56 148.993C104.744 148.111 103.527 146.007 102.445 144.128C101.842 143.087 101.273 142.1 100.73 141.579C100.303 141.168 99.9404 140.918 99.5229 140.627C99.2362 140.427 98.9193 140.206 98.5471 139.916C98.0391 139.936 97.692 140.046 97.5059 140.241C97.1438 140.622 97.1991 141.564 97.2544 142.561C97.3802 144.73 97.5663 147.956 93.3511 149.403C93.3763 149.934 93.2707 150.611 93.0393 151.452C92.8834 152.018 92.6922 152.664 92.4558 153.18C92.3351 153.446 92.0735 153.616 91.7818 153.621C91.4901 153.641 91.2235 153.461 91.0927 153.2C90.3985 151.793 89.4479 151.207 89.0002 151.207Z" fill="black"/>
</g>
<g id="Group_65">
<path id="Vector_110" d="M95.6953 159.572C95.6953 159.572 98.3964 161.24 101.948 160.559L95.6953 159.572Z" fill="white"/>
<path id="Vector_111" d="M100.222 161.476C97.3904 161.476 95.4036 160.274 95.303 160.213C94.9509 159.993 94.8402 159.532 95.0615 159.177C95.2829 158.826 95.7456 158.716 96.0977 158.931C96.143 158.956 98.6278 160.429 101.812 159.818C102.219 159.738 102.617 160.008 102.697 160.414C102.778 160.82 102.506 161.215 102.098 161.296C101.44 161.421 100.811 161.476 100.222 161.476Z" fill="black"/>
</g>
</g>
</g>
</g>
</g>
</g>
</svg>
