<svg width="416" height="416" viewBox="0 0 416 416" fill="none" xmlns="http://www.w3.org/2000/svg">
<g clip-path="url(#clip0)">
<path d="M290.026 404.321C262.102 404.321 228.907 400.295 194.718 392.676C191.636 391.989 188.513 391.263 185.436 390.526C179.277 389.042 175.387 382.816 176.762 376.646L207.402 239.565C208.08 236.532 209.983 233.855 212.618 232.211C215.253 230.567 218.501 230.046 221.523 230.768C224.474 231.474 227.471 232.171 230.443 232.833C271.062 241.886 310.255 245.851 340.81 243.996C355.618 243.099 367.57 240.878 376.334 237.404C385.239 233.875 390.394 229.214 391.659 223.564C391.75 223.158 392.151 222.903 392.558 222.993C392.964 223.083 393.22 223.484 393.13 223.89C390.435 235.946 371.887 243.615 340.906 245.5C310.22 247.364 270.876 243.384 230.121 234.301C227.145 233.64 224.133 232.943 221.176 232.231C218.546 231.6 215.72 232.056 213.421 233.484C211.127 234.913 209.471 237.249 208.878 239.886L178.238 376.967C177.038 382.34 180.427 387.764 185.793 389.057C188.855 389.794 191.972 390.516 195.049 391.202C235.668 400.255 274.867 404.22 305.416 402.366C320.224 401.468 332.176 399.248 340.941 395.774C349.846 392.245 355.001 387.583 356.266 381.934C356.356 381.528 356.758 381.272 357.164 381.363C357.571 381.453 357.827 381.854 357.736 382.26C355.041 394.315 336.493 401.985 305.512 403.869C300.562 404.175 295.392 404.321 290.026 404.321Z" fill="black"/>
<path d="M310.542 163.417C304.348 161.187 297.596 164.886 296.166 171.302L265.566 308.218C264.361 313.601 267.373 319.035 272.583 320.875C325.992 339.727 361.06 363.918 356.999 382.104L392.398 223.735C396.393 205.839 362.505 182.135 310.542 163.417Z" fill="white"/>
<path d="M356.999 382.856C356.943 382.856 356.888 382.851 356.833 382.836C356.426 382.746 356.17 382.345 356.261 381.939C358.158 373.458 351.116 363.227 335.901 352.349C320.847 341.587 298.866 330.95 272.322 321.582C266.76 319.617 263.537 313.802 264.822 308.052L295.422 171.137C296.15 167.874 298.253 165.072 301.195 163.463C304.136 161.848 307.635 161.573 310.793 162.711C336.754 172.059 358.228 182.631 372.896 193.273C388.136 204.336 395.133 214.922 393.125 223.89L357.731 382.265C357.651 382.616 357.345 382.856 356.999 382.856ZM306.827 163.523C305.13 163.523 303.439 163.944 301.923 164.781C299.363 166.184 297.531 168.621 296.898 171.468L266.293 308.383C265.174 313.391 267.985 318.459 272.829 320.168C299.498 329.582 321.615 340.289 336.779 351.131C348.872 359.778 355.955 368.134 357.661 375.678L391.659 223.564C395.444 206.621 363.504 183.293 310.286 164.124C309.161 163.723 307.992 163.523 306.827 163.523Z" fill="#FDAD00"/>
<path d="M299.634 220.892C298.61 220.516 297.475 220.597 296.517 221.118C295.558 221.639 294.87 222.547 294.629 223.609C290.127 243.75 284.163 270.427 276.277 305.721C275.866 307.566 276.88 309.431 278.657 310.082C309.969 321.571 334.666 334.8 348.53 347.467C349.524 348.374 350.93 348.685 352.215 348.279C353.5 347.873 354.469 346.815 354.765 345.502C362.495 310.925 368.378 284.598 372.851 264.573C373.127 263.345 372.765 262.051 371.897 261.144C358.986 247.645 333.155 233.279 299.634 220.892Z" fill="#003185" stroke="black" stroke-width="2" stroke-linejoin="bevel"/>
<path d="M309.598 176.305C308.574 175.929 307.44 176.009 306.481 176.531C305.522 177.052 304.835 177.959 304.594 179.022C303.319 184.736 301.617 192.35 299.353 202.471C298.942 204.316 299.961 206.175 301.737 206.827C333.095 218.356 357.787 231.625 371.571 244.317C372.565 245.229 373.971 245.545 375.256 245.144C376.546 244.743 377.519 243.685 377.816 242.367C379.934 232.893 381.565 225.594 382.82 219.98C383.096 218.747 382.735 217.464 381.861 216.552C368.956 203.058 343.12 188.691 309.598 176.305Z" fill="#003185" stroke="black" stroke-width="2" stroke-linejoin="bevel"/>
<path d="M172.913 286.563C175.97 287.245 178.997 287.947 181.999 288.669C188.027 290.117 194.071 286.343 195.421 280.303L248.113 45.921C249.433 40.0061 245.759 34.1413 239.86 32.7177C236.748 31.9658 233.606 31.239 230.439 30.5322C144.898 11.4691 71.0989 15.9454 65.6023 40.5375L8.07178 296.569C13.5683 271.977 87.3727 267.5 172.913 286.563Z" fill="white"/>
<path d="M8.07683 297.321C8.02161 297.321 7.9664 297.316 7.91118 297.3C7.50459 297.21 7.24859 296.809 7.33894 296.403C7.33894 296.393 7.34396 296.383 7.34396 296.373L64.8694 40.372C67.6051 28.1211 86.4641 20.3214 117.963 18.4116C149.165 16.5168 189.172 20.562 230.609 29.7953C233.751 30.4971 236.924 31.234 240.046 31.9859C246.301 33.4947 250.256 39.8206 248.856 46.0814L196.159 280.463C195.461 283.586 193.579 286.243 190.858 287.937C188.143 289.626 184.935 290.147 181.823 289.401C178.826 288.679 175.774 287.972 172.747 287.3C131.44 278.097 91.5891 274.062 60.5224 275.952C45.4634 276.864 33.3107 279.12 24.3958 282.654C15.3403 286.248 10.0947 290.985 8.8097 296.739C8.72939 297.085 8.41817 297.321 8.07683 297.321ZM133.704 19.4593C128.278 19.4593 123.052 19.6096 118.048 19.9154C102.989 20.8277 90.8362 23.0834 81.9212 26.6173C72.8658 30.2114 67.6202 34.9483 66.3352 40.7029L10.2303 290.398C17.052 281.611 34.4351 276.022 60.427 274.443C91.6293 272.548 131.636 276.593 173.074 285.827C176.105 286.503 179.167 287.21 182.174 287.937C184.89 288.589 187.691 288.137 190.06 286.659C192.434 285.18 194.081 282.864 194.688 280.132L247.38 45.7556C248.605 40.2868 245.151 34.7679 239.685 33.4496C236.572 32.6977 233.405 31.9658 230.273 31.2691C195.622 23.5396 161.985 19.4593 133.704 19.4593Z" fill="#FDAD00"/>
<path d="M207.779 100.895C212.156 101.872 216.017 102.795 219.189 103.582C220.825 103.988 222.557 103.717 223.993 102.83C225.428 101.942 226.447 100.519 226.814 98.8747L227.597 95.3809L232.657 73.7814L233.179 71.4355C234.047 67.5507 231.648 63.6909 227.783 62.7385C224.756 61.9916 221.142 61.1345 217.096 60.2322C141.786 43.4448 76.9772 49.3547 72.6854 64.7436L65.0254 99.361C75.3358 91.3959 132.469 84.1125 207.779 100.895Z" fill="#003185" stroke="black" stroke-width="2" stroke-linejoin="bevel"/>
<path d="M181.345 211.228C184.026 211.825 188.724 212.948 192.765 213.94C194.401 214.341 196.128 214.07 197.564 213.183C198.994 212.296 200.013 210.872 200.38 209.228L201.168 205.709L219.982 124.424L220.504 122.078C221.372 118.193 218.973 114.334 215.107 113.381C212.081 112.634 208.466 111.777 204.421 110.875C129.111 94.0876 64.302 99.9976 60.0102 115.386L38.5913 209.699C48.9017 201.729 106.035 194.446 181.345 211.228Z" fill="#003185" stroke="black" stroke-width="2" stroke-linejoin="bevel"/>
<path d="M167.256 271.596C168.957 271.977 174.188 273.225 178.68 274.323C180.317 274.724 182.044 274.448 183.474 273.561C184.905 272.673 185.919 271.25 186.285 269.611L187.073 266.087L194.286 235.851L194.809 233.505C195.677 229.62 193.278 225.76 189.412 224.808C186.386 224.061 182.771 223.204 178.725 222.301C103.415 205.514 38.6063 211.424 34.3144 226.813L24.501 270.072C34.8114 262.097 91.9454 254.813 167.256 271.596Z" fill="#003185" stroke="black" stroke-width="2" stroke-linejoin="bevel"/>
<path d="M234.224 51.0535C236.199 50.2366 237.137 47.9758 236.319 46.0038C235.501 44.0318 233.237 43.0953 231.262 43.9122C229.287 44.729 228.35 46.9899 229.168 48.9619C229.986 50.9339 232.25 51.8703 234.224 51.0535Z" fill="#FDAD00"/>
<path d="M219.641 48.4874C221.779 48.4874 223.511 46.7571 223.511 44.6227C223.511 42.4882 221.779 40.7579 219.641 40.7579C217.504 40.7579 215.771 42.4882 215.771 44.6227C215.771 46.7571 217.504 48.4874 219.641 48.4874Z" fill="#003185" stroke="black" stroke-width="2" stroke-linejoin="bevel"/>
<path d="M206.158 45.7305C208.296 45.7305 210.028 44.0002 210.028 41.8657C210.028 39.7313 208.296 38.001 206.158 38.001C204.021 38.001 202.288 39.7313 202.288 41.8657C202.288 44.0002 204.021 45.7305 206.158 45.7305Z" fill="#003185" stroke="black" stroke-width="2" stroke-linejoin="bevel"/>
<path d="M363.921 237.71C364.322 237.374 364.513 236.848 364.413 236.337C364.302 235.745 363.715 235.389 363.449 235.239C360.131 233.314 354.66 234.693 354.66 234.693C353.154 235.074 350.789 235.665 348.375 237.525C345.509 239.73 344.309 242.372 342.889 245.6C341.694 248.317 340.218 252.487 339.636 257.931C342.387 255.716 362.295 239.069 363.921 237.71Z" fill="white"/>
<path d="M339.635 258.688C339.509 258.688 339.389 258.658 339.273 258.598C339.007 258.452 338.852 258.162 338.887 257.856C339.359 253.45 340.473 249.224 342.2 245.299C343.56 242.211 344.84 239.299 347.917 236.928C350.457 234.973 352.972 234.342 354.478 233.961C354.714 233.9 360.286 232.532 363.829 234.587C364.111 234.753 364.974 235.254 365.155 236.196C365.305 236.978 365.014 237.78 364.407 238.287C364.08 238.557 363.016 239.444 361.505 240.708C355.276 245.911 342.315 256.738 340.112 258.513C339.971 258.628 339.805 258.688 339.635 258.688ZM358.81 234.963C356.702 234.963 354.874 235.409 354.844 235.419C353.363 235.79 351.125 236.357 348.836 238.121C346.065 240.256 344.91 242.873 343.58 245.906C342.16 249.134 341.171 252.573 340.629 256.152C344.785 252.718 355.166 244.046 360.537 239.56C362.047 238.297 363.112 237.409 363.443 237.134C363.634 236.973 363.724 236.723 363.679 236.477C363.629 236.211 363.212 235.966 363.077 235.89C361.847 235.179 360.26 234.963 358.81 234.963Z" fill="black"/>
<path d="M246.536 220.502C256.003 234.096 266.329 241.8 272.729 245.851C276.79 248.422 310.457 269.741 331.143 255.861C336.263 252.427 339.144 247.8 340.67 244.828C343.135 247.46 345.604 250.091 348.069 252.723C347.577 255.991 342.808 284.799 319.843 295.04C308.107 300.273 296.115 299.22 288.485 297.511C277.779 295.115 262.453 290.889 256.38 284.979C232.943 262.182 246.536 220.502 246.536 220.502Z" fill="#FDAD00"/>
<path d="M264.527 310.163C255.21 261.57 271.183 242.121 255.044 226.421C240.277 212.05 213.266 215.073 201.575 216.376C188.313 217.86 177.33 219.088 169.489 227.038C167.406 229.148 165.895 231.394 164.806 233.81V233.8C149.28 259.685 159.339 287.751 165.76 300.809C164.304 351.768 143.342 366.024 155.66 385.558C168.992 406.707 204.607 407.509 223.491 404.401C230.117 403.313 267.297 396.375 277.046 370.375C283.436 353.327 271.368 345.863 264.527 310.163Z" fill="#FDAD00"/>
<path d="M241.049 303.762C241.049 303.762 273.13 300.123 287.07 282.714L310.311 269.621C310.311 269.621 307.981 278.092 301.486 280.303C301.486 280.303 303.976 291.195 295.216 296.193C295.216 296.193 288.836 299.155 285.629 298.463C285.629 298.463 268.883 326.875 241.441 329.933C241.441 329.933 236.948 317.466 241.049 303.762Z" fill="white"/>
<path d="M241.441 330.685C241.125 330.685 240.844 330.489 240.733 330.188C240.547 329.672 236.205 317.331 240.327 303.551C240.412 303.26 240.663 303.055 240.964 303.02C241.28 302.985 272.899 299.21 286.482 282.247C286.543 282.172 286.618 282.107 286.698 282.062L309.939 268.969C310.205 268.819 310.532 268.844 310.773 269.029C311.014 269.215 311.114 269.53 311.034 269.821C310.938 270.172 308.664 278.197 302.335 280.789C302.711 283.29 303.459 292.358 295.588 296.849C295.568 296.859 295.553 296.869 295.533 296.879C295.277 297 289.514 299.651 286.006 299.285C283.722 302.915 267.137 327.827 241.521 330.685C241.496 330.685 241.471 330.685 241.441 330.685ZM241.632 304.448C238.354 315.942 241.19 326.584 241.968 329.111C268.366 325.777 284.816 298.358 284.982 298.082C285.147 297.802 285.473 297.661 285.79 297.727C288.199 298.248 293.138 296.323 294.875 295.521C303.022 290.844 300.778 280.568 300.758 280.468C300.673 280.092 300.884 279.711 301.25 279.591C305.482 278.152 307.861 273.791 308.92 271.27L287.572 283.3C274.335 299.671 245.908 303.897 241.632 304.448Z" fill="black"/>
<path d="M228.124 331.316C208.778 331.316 195.119 325.567 186.701 320.343C175.658 313.491 170.814 305.967 170.774 305.897C170.628 305.641 170.638 305.306 170.814 305.065C171.06 304.729 171.527 304.654 171.863 304.899C171.964 304.975 172.044 305.065 172.094 305.17C172.596 305.957 191.194 333.502 237.144 329.401C237.561 329.366 237.922 329.667 237.962 330.083C237.997 330.499 237.691 330.86 237.28 330.9C234.097 331.186 231.045 331.316 228.124 331.316Z" fill="#003185" stroke="black" stroke-width="2" stroke-linejoin="bevel"/>
<path d="M235.563 303.195C235.528 303.195 235.493 303.195 235.463 303.19C209.742 299.696 198.844 282.904 194.231 269.435C189.257 254.908 190.356 241.013 190.366 240.873C190.401 240.457 190.777 240.156 191.179 240.186C191.596 240.221 191.902 240.582 191.867 240.998C191.857 241.134 190.787 254.758 195.672 268.989C202.187 287.972 215.64 298.975 235.663 301.696C236.075 301.752 236.366 302.132 236.306 302.544C236.256 302.919 235.934 303.195 235.563 303.195Z" fill="#003185" stroke="black" stroke-width="2" stroke-linejoin="bevel"/>
<path d="M256.726 279.059C256.676 279.059 256.626 279.054 256.58 279.044C256.174 278.964 255.908 278.568 255.988 278.162C261.349 251.294 249.723 235.334 249.603 235.179C249.352 234.848 249.422 234.377 249.754 234.126C250.085 233.875 250.557 233.946 250.808 234.276C250.928 234.442 262.96 250.893 257.459 278.458C257.394 278.814 257.077 279.059 256.726 279.059Z" fill="#003185" stroke="black" stroke-width="2" stroke-linejoin="bevel"/>
<path d="M252.997 408.316L256.345 376.129C256.36 373.473 256.184 347.557 240.573 338.529C223.717 328.775 193.062 339.031 175.895 373.523C173.104 386.039 174.047 392.22 174.017 401.393C173.992 407.995 173.912 407.083 173.776 413.494C185.713 415.634 202.248 417.208 221.599 414.757C233.792 413.213 244.488 411.228 252.997 408.316Z" fill="white"/>
<path d="M233.124 152.781C240.016 157.713 236.798 163.488 246.15 178.781C251.481 187.498 254.724 189.218 255.557 192.13C255.763 192.857 255.778 193.373 255.763 194.07C255.637 200.681 246.717 206.887 239.092 209.033C224.952 213.013 217.829 202.306 208.282 207.413C201.369 211.113 202.082 218.341 196.104 219.349C190.08 220.366 183.66 213.985 180.668 208.897C174.188 197.869 178.987 184.706 181.271 178.651C185.01 168.736 190.673 162.941 192.455 161.212C194.407 159.312 198.041 155.838 203.608 153.272C204.763 152.745 222.211 144.976 233.124 152.781Z" fill="black"/>
<path d="M200.054 214.948C201.239 214.366 202.589 213.614 203.698 212.111C204.231 211.389 204.627 210.496 204.928 209.263L210.641 185.478C210.641 185.478 205.701 184.235 205.752 177.899C205.792 172.982 211.032 174.435 211.032 174.435L212.362 165.538C215.746 168.099 213.557 173.488 217.623 172.285L235.588 166.967C235.588 166.967 239.966 166.826 237.365 179.924C236.617 184.431 239.469 186.591 240.156 187.914C240.643 188.847 240.171 189.995 239.167 190.321L237.777 190.777C232.281 201.87 229.259 203.353 225.293 201.734L224.119 206.521C223.797 208.471 223.682 211.213 225.308 213.028C226.583 214.451 228.24 214.532 231.588 215.524C233.4 216.06 236.035 216.963 239.157 218.492C236.718 219.87 233.972 221.128 230.91 222.136C213.698 227.795 197.63 221.685 190.848 218.577C193.222 217.825 196.626 216.622 200.054 214.948Z" fill="white"/>
<path d="M216.132 225.224C206.148 225.224 197.163 222.291 190.542 219.259C190.261 219.128 190.085 218.837 190.105 218.532C190.125 218.221 190.331 217.955 190.627 217.86C193.965 216.797 197.027 215.589 199.728 214.266C200.817 213.735 202.067 213.048 203.096 211.654C203.578 210.998 203.929 210.181 204.2 209.073L209.757 185.939C208.271 185.288 204.963 183.228 205.003 177.884C205.019 176.27 205.536 175.067 206.539 174.31C207.774 173.378 209.426 173.413 210.41 173.543L211.624 165.418C211.665 165.157 211.84 164.931 212.086 164.831C212.332 164.731 212.613 164.766 212.824 164.926C214.541 166.225 214.988 168.099 215.349 169.608C215.565 170.51 215.766 171.368 216.172 171.598C216.478 171.774 217.016 171.668 217.417 171.548L235.382 166.23C235.443 166.21 235.508 166.2 235.573 166.2C235.674 166.195 236.647 166.195 237.521 167.227C239.207 169.212 239.403 173.528 238.108 180.06C237.581 183.233 239.012 185.082 240.056 186.436C240.377 186.852 240.648 187.208 240.834 187.559C241.165 188.2 241.2 188.952 240.929 189.619C240.653 190.29 240.106 190.802 239.413 191.027L238.319 191.383C233.51 201.017 230.237 204.05 225.835 202.712L224.866 206.662C224.435 209.318 224.776 211.288 225.88 212.516C226.693 213.424 227.727 213.694 229.615 214.186C230.257 214.351 230.98 214.542 231.813 214.792C234.394 215.559 236.984 216.572 239.499 217.81C239.75 217.935 239.91 218.186 239.92 218.462C239.93 218.742 239.78 219.003 239.539 219.138C236.858 220.647 234.037 221.895 231.161 222.843C226.016 224.542 220.956 225.224 216.132 225.224ZM192.941 218.677C202.504 222.747 216.298 226.151 230.684 221.424C233.013 220.657 235.302 219.69 237.501 218.542C235.483 217.624 233.43 216.852 231.377 216.246C230.569 216.005 229.856 215.82 229.223 215.654C227.2 215.123 225.865 214.777 224.751 213.529C223.325 211.94 222.863 209.539 223.38 206.396C223.385 206.376 223.385 206.356 223.39 206.341L224.565 201.554C224.615 201.343 224.761 201.163 224.957 201.063C225.152 200.962 225.378 200.952 225.584 201.038C228.546 202.246 231.271 202.231 237.109 190.441C237.2 190.26 237.355 190.125 237.551 190.06L238.941 189.604C239.207 189.513 239.423 189.318 239.529 189.057C239.634 188.797 239.624 188.511 239.494 188.26C239.373 188.03 239.137 187.719 238.861 187.363C237.787 185.969 235.99 183.639 236.627 179.799C238.178 171.984 237.169 169.232 236.432 168.285C236.11 167.874 235.799 167.759 235.664 167.723L217.844 172.997C216.835 173.297 216.042 173.267 215.414 172.907C214.45 172.35 214.174 171.187 213.878 169.964C213.657 169.047 213.421 168.044 212.879 167.192L211.78 174.541C211.75 174.756 211.624 174.942 211.444 175.062C211.263 175.177 211.037 175.212 210.831 175.157C210.811 175.152 208.678 174.586 207.438 175.523C206.831 175.984 206.514 176.786 206.504 177.904C206.459 183.583 210.781 184.741 210.821 184.751C211.223 184.852 211.464 185.258 211.368 185.654L205.656 209.439C205.335 210.747 204.903 211.74 204.301 212.557C203.131 214.141 201.726 214.968 200.385 215.624C198.127 216.722 195.632 217.75 192.941 218.677Z" fill="black"/>
<path d="M225.298 202.486C225.223 202.486 225.147 202.476 225.072 202.451C216.835 199.845 213.818 194.752 213.693 194.536C213.487 194.175 213.607 193.714 213.969 193.509C214.33 193.303 214.787 193.423 214.998 193.784C215.038 193.854 217.899 198.601 225.529 201.017C225.925 201.143 226.146 201.564 226.021 201.96C225.91 202.281 225.614 202.486 225.298 202.486Z" fill="black"/>
<path d="M215.67 152.931C215.269 152.44 222.131 137.382 210.314 133.813C198.503 130.244 189.528 151.964 200.355 158.059C211.188 164.154 215.67 152.931 215.67 152.931Z" fill="black"/>
<path d="M229.143 186.802C226.473 186.802 224.254 184.676 224.164 181.989C224.074 179.247 226.232 176.942 228.978 176.851C230.303 176.806 231.573 177.283 232.547 178.195C233.516 179.102 234.078 180.335 234.118 181.664C234.163 182.992 233.686 184.26 232.778 185.228C231.869 186.2 230.634 186.756 229.304 186.802C229.254 186.802 229.199 186.802 229.143 186.802ZM229.148 178.355C229.108 178.355 229.068 178.355 229.033 178.355C227.115 178.42 225.61 180.024 225.675 181.939C225.735 183.854 227.341 185.363 229.264 185.293C230.192 185.263 231.051 184.872 231.688 184.195C232.321 183.518 232.657 182.636 232.627 181.709C232.597 180.781 232.205 179.924 231.528 179.288C230.875 178.686 230.037 178.355 229.148 178.355Z" fill="black"/>
<path d="M238.636 185.513C238.43 185.513 238.219 185.428 238.073 185.263C237.797 184.952 237.822 184.476 238.134 184.2C238.907 183.513 239.333 182.526 239.298 181.493C239.263 180.456 238.771 179.498 237.948 178.861C237.617 178.606 237.556 178.135 237.812 177.809C238.068 177.478 238.54 177.418 238.866 177.673C240.046 178.586 240.749 179.959 240.799 181.448C240.849 182.927 240.242 184.345 239.128 185.328C238.992 185.453 238.816 185.513 238.636 185.513Z" fill="white"/>
<path d="M224.846 181.739C224.731 181.739 224.615 181.714 224.51 181.659L210.219 174.5C209.848 174.315 209.697 173.864 209.883 173.493C210.068 173.122 210.52 172.972 210.892 173.157L225.183 180.315C225.554 180.501 225.705 180.952 225.519 181.323C225.389 181.588 225.122 181.739 224.846 181.739Z" fill="black"/>
<path d="M233.48 182.476C233.345 182.476 233.209 182.44 233.084 182.36C232.733 182.14 232.622 181.684 232.838 181.328C232.933 181.177 233.797 179.829 235.262 179.533C236.096 179.368 236.914 179.568 237.707 180.135C238.043 180.375 238.124 180.846 237.883 181.182C237.642 181.518 237.17 181.598 236.834 181.358C236.392 181.042 235.98 180.927 235.574 181.007C234.871 181.147 234.289 181.854 234.123 182.12C233.977 182.35 233.731 182.476 233.48 182.476Z" fill="black"/>
<path d="M328.457 265.3H328.452C326.49 265.285 324.457 265.245 322.414 265.179C321.997 265.164 321.671 264.818 321.686 264.402C321.701 263.986 322.032 263.661 322.464 263.676C324.497 263.741 326.515 263.781 328.467 263.796C328.884 263.801 329.22 264.137 329.215 264.553C329.205 264.969 328.869 265.3 328.457 265.3ZM334.481 265.27C334.074 265.27 333.738 264.944 333.728 264.533C333.718 264.117 334.049 263.776 334.466 263.766C336.514 263.726 338.532 263.656 340.459 263.555C340.881 263.53 341.227 263.851 341.253 264.267C341.273 264.683 340.956 265.034 340.54 265.059C338.592 265.159 336.559 265.23 334.496 265.27C334.491 265.27 334.486 265.27 334.481 265.27ZM316.415 264.924C316.4 264.924 316.39 264.924 316.375 264.924C314.407 264.818 312.379 264.693 310.346 264.548C309.93 264.518 309.619 264.157 309.649 263.746C309.679 263.33 310.035 263.019 310.452 263.049C312.475 263.194 314.493 263.32 316.45 263.425C316.867 263.445 317.183 263.801 317.163 264.217C317.148 264.613 316.812 264.924 316.415 264.924ZM346.508 264.633C346.122 264.633 345.795 264.337 345.76 263.951C345.725 263.54 346.026 263.174 346.443 263.134C348.496 262.949 350.499 262.723 352.391 262.458C352.808 262.402 353.184 262.688 353.24 263.099C353.295 263.51 353.009 263.891 352.597 263.946C350.684 264.212 348.657 264.443 346.578 264.628C346.553 264.633 346.533 264.633 346.508 264.633ZM304.398 264.067C304.378 264.067 304.353 264.067 304.333 264.062C302.365 263.886 300.347 263.691 298.324 263.48C297.913 263.435 297.612 263.069 297.652 262.653C297.697 262.242 298.078 261.941 298.48 261.981C300.493 262.192 302.506 262.387 304.463 262.563C304.88 262.598 305.181 262.964 305.146 263.38C305.116 263.776 304.785 264.067 304.398 264.067ZM358.43 262.949C358.078 262.949 357.767 262.703 357.692 262.347C357.612 261.941 357.873 261.545 358.279 261.46C360.332 261.044 362.28 260.568 364.067 260.041C364.464 259.926 364.885 260.152 365.001 260.553C365.116 260.949 364.89 261.37 364.489 261.485C362.661 262.021 360.674 262.508 358.575 262.934C358.53 262.944 358.48 262.949 358.43 262.949ZM292.416 262.818C292.386 262.818 292.356 262.818 292.326 262.813C290.353 262.578 288.34 262.322 286.337 262.057C285.926 262.001 285.635 261.625 285.69 261.209C285.745 260.798 286.116 260.508 286.538 260.563C288.531 260.828 290.539 261.084 292.502 261.32C292.913 261.37 293.209 261.746 293.159 262.157C293.119 262.538 292.793 262.818 292.416 262.818ZM280.474 261.224C280.439 261.224 280.399 261.219 280.364 261.214C278.396 260.924 276.388 260.618 274.401 260.302C273.989 260.237 273.708 259.851 273.773 259.44C273.838 259.029 274.225 258.748 274.636 258.813C276.619 259.129 278.622 259.435 280.58 259.721C280.991 259.781 281.278 260.162 281.217 260.573C281.162 260.954 280.841 261.224 280.474 261.224ZM268.573 259.335C268.533 259.335 268.487 259.33 268.447 259.325C266.49 258.989 264.492 258.638 262.509 258.277C262.102 258.202 261.831 257.811 261.902 257.4C261.977 256.989 262.368 256.723 262.78 256.793C264.758 257.154 266.751 257.505 268.703 257.841C269.115 257.911 269.391 258.302 269.321 258.708C269.255 259.074 268.934 259.335 268.573 259.335ZM256.721 257.174C256.676 257.174 256.626 257.169 256.576 257.159C254.618 256.778 252.645 256.387 250.658 255.981C250.251 255.896 249.985 255.5 250.07 255.094C250.156 254.688 250.557 254.427 250.959 254.507C252.936 254.913 254.904 255.304 256.862 255.68C257.268 255.761 257.535 256.152 257.459 256.563C257.389 256.924 257.078 257.174 256.721 257.174ZM244.915 254.768C244.865 254.768 244.81 254.763 244.754 254.753C242.802 254.332 240.839 253.901 238.861 253.46C238.455 253.37 238.199 252.969 238.294 252.563C238.384 252.157 238.786 251.901 239.193 251.996C241.16 252.437 243.123 252.868 245.071 253.284C245.477 253.37 245.738 253.771 245.648 254.177C245.578 254.528 245.266 254.768 244.915 254.768ZM233.164 252.126C233.109 252.126 233.049 252.121 232.993 252.106C231.046 251.65 229.093 251.179 227.13 250.703C226.729 250.603 226.478 250.197 226.578 249.796C226.679 249.395 227.085 249.144 227.487 249.244C229.444 249.725 231.397 250.192 233.34 250.648C233.746 250.743 233.997 251.149 233.902 251.55C233.812 251.891 233.505 252.126 233.164 252.126ZM221.458 249.264C221.398 249.264 221.333 249.259 221.272 249.239C219.335 248.748 217.387 248.242 215.435 247.725C215.033 247.62 214.792 247.209 214.897 246.808C215.003 246.407 215.419 246.166 215.816 246.272C217.764 246.788 219.706 247.289 221.639 247.78C222.04 247.881 222.286 248.292 222.181 248.693C222.101 249.039 221.794 249.264 221.458 249.264ZM209.807 246.191C209.742 246.191 209.677 246.181 209.607 246.166C207.674 245.64 205.737 245.099 203.799 244.552C203.397 244.437 203.166 244.026 203.277 243.625C203.392 243.224 203.809 242.993 204.206 243.109C206.143 243.655 208.076 244.191 210.003 244.718C210.405 244.828 210.641 245.239 210.53 245.64C210.445 245.976 210.139 246.191 209.807 246.191ZM198.217 242.918C198.147 242.918 198.077 242.908 198.006 242.888C196.069 242.322 194.141 241.75 192.224 241.174C191.827 241.054 191.601 240.632 191.722 240.236C191.842 239.84 192.264 239.615 192.66 239.735C194.573 240.312 196.495 240.883 198.428 241.45C198.824 241.565 199.055 241.986 198.94 242.382C198.845 242.703 198.543 242.918 198.217 242.918ZM186.682 239.439C186.607 239.439 186.531 239.429 186.456 239.404C184.528 238.803 182.611 238.196 180.703 237.585C180.307 237.459 180.091 237.033 180.217 236.637C180.342 236.241 180.769 236.026 181.165 236.151C183.068 236.763 184.98 237.364 186.903 237.966C187.299 238.091 187.52 238.512 187.4 238.908C187.299 239.229 187.003 239.439 186.682 239.439ZM175.212 235.75C175.132 235.75 175.051 235.74 174.976 235.71C173.058 235.073 171.151 234.432 169.259 233.785C168.867 233.65 168.656 233.224 168.792 232.828C168.927 232.437 169.354 232.226 169.745 232.362C171.633 233.008 173.535 233.645 175.448 234.281C175.844 234.412 176.055 234.838 175.925 235.234C175.824 235.55 175.528 235.75 175.212 235.75ZM163.812 231.855C163.727 231.855 163.647 231.84 163.561 231.81C161.654 231.138 159.761 230.462 157.884 229.78C157.492 229.64 157.292 229.209 157.432 228.818C157.573 228.427 158.009 228.226 158.396 228.366C160.268 229.048 162.156 229.725 164.063 230.392C164.455 230.532 164.661 230.958 164.525 231.349C164.415 231.66 164.123 231.855 163.812 231.855ZM152.488 227.74C152.398 227.74 152.312 227.725 152.222 227.69C150.324 226.978 148.447 226.261 146.585 225.544C146.198 225.394 146.002 224.958 146.153 224.572C146.304 224.186 146.74 223.99 147.127 224.141C148.984 224.858 150.856 225.574 152.749 226.281C153.14 226.427 153.336 226.863 153.191 227.249C153.08 227.554 152.794 227.74 152.488 227.74ZM141.254 223.394C141.158 223.394 141.068 223.379 140.973 223.339C139.11 222.597 137.228 221.835 135.381 221.073C134.994 220.913 134.814 220.477 134.974 220.091C135.135 219.705 135.572 219.524 135.958 219.685C137.8 220.441 139.678 221.203 141.535 221.945C141.921 222.101 142.107 222.537 141.957 222.923C141.836 223.213 141.55 223.394 141.254 223.394ZM130.115 218.802C130.015 218.802 129.914 218.782 129.819 218.742C127.957 217.95 126.094 217.143 124.282 216.346C123.901 216.181 123.73 215.735 123.896 215.354C124.061 214.973 124.508 214.802 124.89 214.968C126.692 215.76 128.549 216.567 130.406 217.359C130.788 217.524 130.969 217.965 130.803 218.346C130.687 218.632 130.406 218.802 130.115 218.802ZM119.092 213.945C118.987 213.945 118.881 213.925 118.781 213.875C116.939 213.033 115.096 212.181 113.309 211.333C112.933 211.158 112.772 210.707 112.953 210.331C113.129 209.955 113.58 209.795 113.957 209.975C115.739 210.817 117.576 211.669 119.413 212.506C119.79 212.677 119.96 213.123 119.785 213.504C119.649 213.78 119.378 213.945 119.092 213.945ZM108.199 208.792C108.089 208.792 107.973 208.767 107.868 208.717C106.051 207.825 104.234 206.912 102.472 206.015C102.1 205.825 101.955 205.373 102.146 205.003C102.336 204.632 102.788 204.486 103.16 204.677C104.911 205.574 106.724 206.481 108.536 207.368C108.907 207.554 109.063 208 108.877 208.376C108.746 208.637 108.475 208.792 108.199 208.792ZM97.4723 203.308C97.3518 203.308 97.2313 203.278 97.1159 203.218C95.3138 202.256 93.5268 201.283 91.8151 200.326C91.4537 200.125 91.3232 199.664 91.524 199.303C91.7298 198.942 92.1866 198.812 92.548 199.012C94.2547 199.965 96.0266 200.932 97.8237 201.89C98.1901 202.085 98.3307 202.541 98.1349 202.907C98.0044 203.163 97.7434 203.308 97.4723 203.308ZM86.9561 197.433C86.8256 197.433 86.6951 197.398 86.5746 197.328C84.8077 196.291 83.0658 195.243 81.3993 194.21C81.0479 193.99 80.9375 193.529 81.1584 193.173C81.3792 192.822 81.841 192.712 82.1974 192.932C83.8539 193.96 85.5857 195.002 87.3426 196.03C87.699 196.24 87.8195 196.702 87.6086 197.057C87.4681 197.303 87.2171 197.433 86.9561 197.433ZM76.726 191.082C76.5855 191.082 76.4399 191.042 76.3094 190.957C74.5876 189.819 72.906 188.676 71.3148 187.548C70.9735 187.308 70.8932 186.837 71.1341 186.501C71.375 186.16 71.8419 186.08 72.1832 186.32C73.7594 187.438 75.4259 188.576 77.1376 189.699C77.484 189.929 77.5794 190.396 77.3535 190.742C77.2079 190.967 76.967 191.082 76.726 191.082ZM66.9025 184.12C66.7419 184.12 66.5812 184.07 66.4457 183.964C64.7892 182.691 63.203 181.408 61.7323 180.155C61.416 179.884 61.3759 179.413 61.6469 179.097C61.918 178.781 62.3948 178.741 62.7111 179.012C64.1618 180.245 65.7279 181.513 67.3643 182.771C67.6956 183.027 67.7559 183.498 67.4999 183.824C67.3493 184.02 67.1284 184.12 66.9025 184.12ZM57.7617 176.29C57.5709 176.29 57.3852 176.22 57.2346 176.08C56.065 174.942 54.9607 173.804 53.9618 172.691C53.6857 172.38 53.7108 171.909 54.017 171.628C54.3282 171.353 54.8001 171.378 55.0812 171.683C56.06 172.771 57.1342 173.884 58.2837 174.997C58.5799 175.288 58.5899 175.764 58.2988 176.059C58.1532 176.215 57.9575 176.29 57.7617 176.29Z" fill="white"/>
<path d="M352.331 211.805C352.185 211.805 352.04 211.765 351.914 211.679L351.799 211.604C351.453 211.374 351.362 210.908 351.593 210.562C351.824 210.216 352.291 210.126 352.637 210.356L352.748 210.431C353.094 210.662 353.184 211.128 352.953 211.474C352.813 211.684 352.572 211.805 352.331 211.805ZM347.166 208.451C347.03 208.451 346.89 208.416 346.764 208.336C345.113 207.298 343.391 206.246 341.639 205.208C341.283 204.998 341.162 204.536 341.378 204.176C341.589 203.82 342.051 203.699 342.412 203.915C344.174 204.957 345.906 206.02 347.567 207.063C347.919 207.283 348.024 207.75 347.803 208.1C347.658 208.331 347.412 208.451 347.166 208.451ZM336.81 202.301C336.685 202.301 336.559 202.271 336.439 202.206C334.737 201.243 332.965 200.271 331.178 199.303C330.812 199.108 330.676 198.652 330.872 198.286C331.068 197.92 331.524 197.784 331.891 197.98C333.688 198.947 335.465 199.93 337.177 200.892C337.538 201.098 337.669 201.554 337.463 201.915C337.327 202.16 337.071 202.301 336.81 202.301ZM326.209 196.586C326.093 196.586 325.973 196.561 325.862 196.501C324.11 195.599 322.303 194.687 320.496 193.789C320.125 193.604 319.974 193.153 320.155 192.782C320.341 192.411 320.792 192.26 321.164 192.441C322.976 193.338 324.788 194.255 326.55 195.163C326.921 195.353 327.062 195.809 326.871 196.175C326.746 196.436 326.485 196.586 326.209 196.586ZM315.421 191.238C315.311 191.238 315.2 191.213 315.095 191.163C313.323 190.316 311.491 189.458 309.649 188.611C309.272 188.436 309.107 187.99 309.277 187.614C309.453 187.238 309.9 187.072 310.276 187.243C312.123 188.09 313.961 188.952 315.743 189.799C316.119 189.98 316.275 190.426 316.099 190.802C315.968 191.077 315.702 191.238 315.421 191.238ZM304.478 186.2C304.378 186.2 304.273 186.18 304.172 186.135C302.365 185.333 300.508 184.521 298.661 183.729C298.279 183.563 298.104 183.122 298.264 182.741C298.43 182.36 298.872 182.185 299.253 182.345C301.105 183.142 302.968 183.954 304.78 184.756C305.161 184.927 305.332 185.368 305.161 185.749C305.041 186.035 304.765 186.2 304.478 186.2ZM293.405 181.453C293.31 181.453 293.209 181.433 293.114 181.393C291.292 180.636 289.42 179.874 287.547 179.117C287.161 178.962 286.975 178.526 287.131 178.14C287.286 177.754 287.723 177.568 288.109 177.724C289.987 178.481 291.869 179.248 293.691 180.005C294.073 180.165 294.258 180.606 294.098 180.987C293.982 181.278 293.701 181.453 293.405 181.453ZM282.231 176.957C282.141 176.957 282.046 176.942 281.96 176.907C280.108 176.185 278.236 175.468 276.343 174.751C275.952 174.606 275.756 174.17 275.907 173.784C276.052 173.393 276.489 173.202 276.875 173.348C278.773 174.065 280.645 174.781 282.507 175.508C282.894 175.659 283.085 176.095 282.934 176.481C282.819 176.776 282.533 176.957 282.231 176.957ZM270.962 172.701C270.877 172.701 270.787 172.686 270.701 172.656C268.829 171.969 266.946 171.293 265.044 170.616C264.652 170.475 264.447 170.044 264.587 169.653C264.728 169.262 265.154 169.057 265.551 169.197C267.458 169.874 269.351 170.556 271.223 171.242C271.615 171.388 271.816 171.819 271.67 172.205C271.56 172.511 271.268 172.701 270.962 172.701Z" fill="white"/>
<path d="M172.627 145.176C172.577 145.176 172.531 145.171 172.481 145.161C170.498 144.77 168.526 144.395 166.573 144.034C166.166 143.958 165.895 143.567 165.971 143.156C166.046 142.75 166.438 142.48 166.849 142.555C168.812 142.916 170.785 143.297 172.772 143.683C173.179 143.763 173.445 144.159 173.365 144.565C173.294 144.926 172.978 145.176 172.627 145.176ZM160.78 142.981C160.735 142.981 160.695 142.976 160.65 142.971C158.672 142.625 156.679 142.294 154.717 141.973C154.305 141.908 154.029 141.522 154.094 141.111C154.159 140.7 154.551 140.424 154.958 140.49C156.925 140.81 158.923 141.146 160.906 141.487C161.317 141.557 161.589 141.948 161.518 142.359C161.458 142.725 161.142 142.981 160.78 142.981ZM148.889 141.051C148.854 141.051 148.813 141.046 148.778 141.041C146.786 140.74 144.783 140.455 142.825 140.189C142.413 140.134 142.127 139.753 142.182 139.342C142.238 138.931 142.619 138.64 143.031 138.7C144.999 138.971 147.006 139.257 149.004 139.557C149.416 139.617 149.697 140.003 149.637 140.414C149.576 140.785 149.255 141.051 148.889 141.051ZM136.957 139.422C136.927 139.422 136.897 139.422 136.862 139.417C134.859 139.171 132.851 138.936 130.888 138.725C130.477 138.68 130.175 138.309 130.221 137.898C130.266 137.487 130.642 137.186 131.049 137.231C133.017 137.447 135.034 137.678 137.042 137.928C137.454 137.978 137.75 138.354 137.695 138.765C137.655 139.141 137.328 139.422 136.957 139.422ZM124.98 138.119C124.955 138.119 124.935 138.119 124.91 138.114C122.897 137.928 120.884 137.753 118.921 137.607C118.505 137.577 118.198 137.216 118.229 136.8C118.259 136.384 118.625 136.079 119.037 136.109C121.01 136.259 123.032 136.429 125.05 136.62C125.462 136.66 125.768 137.026 125.728 137.437C125.688 137.828 125.362 138.119 124.98 138.119Z" fill="white"/>
<path d="M292.361 272.383C292.331 272.383 292.306 272.383 292.276 272.378C290.303 272.152 288.285 271.911 286.282 271.656C285.871 271.606 285.579 271.225 285.63 270.814C285.68 270.403 286.061 270.112 286.473 270.162C288.466 270.418 290.474 270.658 292.441 270.879C292.853 270.924 293.149 271.3 293.104 271.711C293.069 272.102 292.742 272.383 292.361 272.383ZM280.414 270.864C280.379 270.864 280.344 270.864 280.309 270.859C278.341 270.583 276.333 270.287 274.34 269.982C273.929 269.916 273.648 269.535 273.713 269.124C273.778 268.713 274.165 268.433 274.571 268.498C276.559 268.804 278.562 269.099 280.52 269.375C280.931 269.435 281.217 269.811 281.162 270.222C281.102 270.593 280.781 270.864 280.414 270.864ZM268.502 269.039C268.462 269.039 268.422 269.034 268.377 269.029C266.414 268.703 264.411 268.362 262.434 268.012C262.022 267.941 261.751 267.55 261.826 267.139C261.897 266.728 262.293 266.458 262.7 266.533C264.677 266.884 266.67 267.225 268.628 267.55C269.04 267.621 269.316 268.007 269.245 268.418C269.185 268.779 268.869 269.039 268.502 269.039ZM256.641 266.939C256.596 266.939 256.546 266.934 256.5 266.924C254.538 266.553 252.565 266.172 250.577 265.776C250.171 265.696 249.905 265.3 249.985 264.894C250.065 264.488 250.462 264.222 250.868 264.302C252.851 264.698 254.819 265.079 256.771 265.445C257.178 265.52 257.449 265.916 257.374 266.322C257.314 266.688 256.997 266.939 256.641 266.939ZM244.825 264.583C244.775 264.583 244.719 264.578 244.669 264.568C242.716 264.157 240.749 263.736 238.771 263.3C238.364 263.21 238.108 262.808 238.199 262.402C238.289 261.996 238.686 261.741 239.097 261.831C241.07 262.267 243.028 262.688 244.98 263.094C245.387 263.179 245.648 263.58 245.563 263.986C245.487 264.342 245.176 264.583 244.825 264.583ZM233.064 261.996C233.008 261.996 232.953 261.991 232.893 261.976C230.945 261.53 228.988 261.069 227.02 260.598C226.613 260.503 226.367 260.097 226.463 259.691C226.558 259.285 226.965 259.039 227.371 259.134C229.334 259.605 231.287 260.062 233.229 260.513C233.636 260.608 233.887 261.009 233.791 261.415C233.716 261.761 233.405 261.996 233.064 261.996ZM221.348 259.184C221.287 259.184 221.227 259.179 221.162 259.159C219.224 258.673 217.272 258.177 215.319 257.671C214.918 257.565 214.677 257.154 214.777 256.753C214.882 256.352 215.294 256.112 215.696 256.217C217.648 256.723 219.591 257.219 221.528 257.701C221.93 257.801 222.176 258.212 222.076 258.613C221.99 258.954 221.684 259.184 221.348 259.184ZM209.687 256.157C209.622 256.157 209.557 256.147 209.491 256.132C207.559 255.61 205.621 255.084 203.678 254.543C203.277 254.432 203.046 254.016 203.156 253.615C203.267 253.214 203.684 252.984 204.085 253.094C206.023 253.635 207.96 254.162 209.888 254.683C210.289 254.793 210.525 255.204 210.42 255.605C210.325 255.936 210.018 256.157 209.687 256.157ZM198.082 252.929C198.011 252.929 197.941 252.919 197.871 252.898C195.928 252.342 194.001 251.776 192.083 251.204C191.686 251.084 191.456 250.668 191.576 250.267C191.697 249.871 192.113 249.64 192.515 249.761C194.427 250.332 196.355 250.893 198.287 251.45C198.689 251.565 198.92 251.981 198.804 252.382C198.714 252.713 198.413 252.929 198.082 252.929ZM186.536 249.495C186.461 249.495 186.391 249.485 186.315 249.46C184.383 248.868 182.465 248.267 180.558 247.665C180.161 247.54 179.94 247.119 180.066 246.723C180.191 246.327 180.618 246.106 181.01 246.232C182.912 246.833 184.83 247.43 186.752 248.021C187.149 248.141 187.375 248.563 187.249 248.959C187.154 249.284 186.858 249.495 186.536 249.495ZM175.051 245.856C174.976 245.856 174.896 245.846 174.815 245.816C172.893 245.189 170.985 244.552 169.093 243.916C168.696 243.78 168.486 243.354 168.621 242.963C168.752 242.572 169.178 242.357 169.575 242.492C171.467 243.129 173.37 243.76 175.287 244.387C175.684 244.517 175.9 244.938 175.769 245.334C175.664 245.655 175.368 245.856 175.051 245.856ZM163.632 242.006C163.551 242.006 163.466 241.991 163.386 241.966C161.473 241.299 159.581 240.633 157.698 239.956C157.307 239.815 157.106 239.384 157.242 238.993C157.382 238.602 157.809 238.397 158.205 238.537C160.083 239.209 161.97 239.876 163.878 240.542C164.269 240.678 164.48 241.109 164.339 241.5C164.234 241.81 163.943 242.006 163.632 242.006ZM152.292 237.941C152.207 237.941 152.116 237.926 152.031 237.896C150.134 237.194 148.251 236.487 146.384 235.775C145.997 235.625 145.802 235.194 145.947 234.803C146.093 234.417 146.53 234.221 146.921 234.367C148.783 235.073 150.661 235.78 152.553 236.482C152.945 236.627 153.14 237.058 153 237.449C152.884 237.755 152.598 237.941 152.292 237.941ZM141.038 233.65C140.948 233.65 140.852 233.635 140.762 233.595C138.875 232.853 137.007 232.106 135.16 231.354C134.774 231.199 134.588 230.758 134.748 230.377C134.904 229.991 135.341 229.805 135.727 229.966C137.569 230.712 139.432 231.459 141.314 232.196C141.701 232.347 141.891 232.783 141.741 233.174C141.62 233.469 141.334 233.65 141.038 233.65ZM129.874 229.113C129.779 229.113 129.679 229.093 129.583 229.053C127.721 228.271 125.854 227.474 124.036 226.687C123.655 226.522 123.479 226.081 123.645 225.7C123.811 225.319 124.252 225.143 124.634 225.309C126.446 226.096 128.308 226.888 130.165 227.67C130.547 227.83 130.728 228.271 130.567 228.652C130.447 228.938 130.165 229.113 129.874 229.113ZM118.821 224.316C118.716 224.316 118.615 224.296 118.515 224.251C116.673 223.424 114.825 222.582 113.028 221.745C112.652 221.569 112.486 221.123 112.662 220.747C112.838 220.371 113.284 220.206 113.661 220.381C115.453 221.213 117.29 222.056 119.132 222.883C119.509 223.053 119.679 223.499 119.509 223.875C119.383 224.151 119.112 224.316 118.821 224.316ZM107.898 219.239C107.788 219.239 107.677 219.213 107.572 219.163C105.745 218.281 103.923 217.384 102.156 216.497C101.784 216.311 101.634 215.86 101.819 215.489C102.005 215.118 102.457 214.968 102.828 215.153C104.585 216.035 106.402 216.928 108.224 217.805C108.601 217.985 108.757 218.436 108.576 218.807C108.45 219.078 108.179 219.239 107.898 219.239ZM97.136 213.83C97.0206 213.83 96.9001 213.8 96.7847 213.745C94.9826 212.802 93.1956 211.845 91.4588 210.897C91.0924 210.697 90.9618 210.241 91.1576 209.875C91.3584 209.509 91.8152 209.379 92.1816 209.574C93.9084 210.516 95.6904 211.469 97.4824 212.406C97.8488 212.597 97.9944 213.053 97.7986 213.419C97.6681 213.684 97.4071 213.83 97.136 213.83ZM86.5646 208.05C86.4391 208.05 86.3086 208.02 86.1881 207.95C84.4162 206.937 82.6643 205.905 80.9827 204.887C80.6264 204.672 80.5109 204.211 80.7267 203.855C80.9426 203.499 81.4044 203.383 81.7608 203.599C83.4374 204.612 85.1792 205.634 86.9361 206.642C87.2975 206.847 87.423 207.308 87.2122 207.669C87.0766 207.915 86.8256 208.05 86.5646 208.05ZM76.2592 201.82C76.1187 201.82 75.9781 201.779 75.8526 201.699C74.1209 200.586 72.4242 199.469 70.8129 198.366C70.4716 198.13 70.3812 197.664 70.6171 197.318C70.8531 196.977 71.3199 196.887 71.6662 197.123C73.2675 198.215 74.9491 199.328 76.6709 200.431C77.0222 200.657 77.1226 201.123 76.8967 201.469C76.7512 201.694 76.5052 201.82 76.2592 201.82ZM66.3253 195.007C66.1697 195.007 66.0141 194.957 65.8786 194.862C64.207 193.624 62.5957 192.381 61.0898 191.158C60.7685 190.897 60.7183 190.421 60.9794 190.1C61.2404 189.779 61.7173 189.729 62.0385 189.99C63.5243 191.198 65.1206 192.431 66.7771 193.654C67.1134 193.9 67.1837 194.371 66.9327 194.707C66.7871 194.902 66.5562 195.007 66.3253 195.007ZM56.9938 187.403C56.813 187.403 56.6323 187.338 56.4868 187.208C54.9156 185.774 53.4549 184.345 52.1498 182.952C51.8637 182.651 51.8787 182.175 52.1849 181.889C52.4861 181.604 52.963 181.619 53.2491 181.924C54.5291 183.288 55.9597 184.691 57.5058 186.095C57.812 186.376 57.8371 186.852 57.556 187.158C57.4003 187.323 57.1996 187.403 56.9938 187.403Z" fill="white"/>
<path d="M325.717 274.553H325.712C323.749 274.538 321.716 274.498 319.673 274.433C319.257 274.418 318.93 274.072 318.945 273.656C318.96 273.24 319.312 272.914 319.723 272.929C321.756 272.994 323.779 273.034 325.727 273.049C326.144 273.054 326.48 273.39 326.475 273.806C326.465 274.222 326.128 274.553 325.717 274.553ZM331.74 274.523C331.334 274.523 330.998 274.197 330.988 273.786C330.977 273.37 331.309 273.029 331.725 273.019C333.773 272.979 335.791 272.909 337.719 272.809C338.151 272.789 338.487 273.104 338.512 273.52C338.532 273.936 338.216 274.287 337.799 274.312C335.852 274.413 333.819 274.483 331.756 274.523C331.75 274.523 331.745 274.523 331.74 274.523ZM343.768 273.891C343.381 273.891 343.055 273.596 343.02 273.21C342.985 272.794 343.286 272.433 343.702 272.392C345.755 272.207 347.758 271.981 349.651 271.716C350.062 271.661 350.444 271.946 350.499 272.357C350.554 272.768 350.268 273.149 349.856 273.205C347.939 273.47 345.916 273.701 343.838 273.886C343.813 273.886 343.793 273.891 343.768 273.891ZM355.689 272.207C355.338 272.207 355.027 271.961 354.951 271.606C354.871 271.2 355.132 270.803 355.539 270.718C357.592 270.302 359.539 269.826 361.326 269.3C361.723 269.184 362.145 269.41 362.26 269.811C362.376 270.207 362.15 270.628 361.748 270.743C359.921 271.28 357.933 271.766 355.835 272.192C355.79 272.202 355.74 272.207 355.689 272.207Z" fill="white"/>
<path d="M349.59 221.058C349.445 221.058 349.299 221.018 349.174 220.933L349.058 220.857C348.712 220.627 348.621 220.161 348.852 219.815C349.083 219.469 349.55 219.379 349.896 219.609L350.007 219.684C350.353 219.915 350.444 220.381 350.213 220.727C350.067 220.943 349.831 221.058 349.59 221.058ZM344.42 217.709C344.284 217.709 344.144 217.674 344.018 217.594C342.367 216.557 340.645 215.504 338.893 214.466C338.537 214.256 338.416 213.795 338.632 213.434C338.843 213.078 339.305 212.957 339.666 213.173C341.428 214.221 343.16 215.278 344.822 216.321C345.173 216.542 345.278 217.008 345.057 217.359C344.917 217.584 344.671 217.709 344.42 217.709ZM334.069 211.554C333.944 211.554 333.818 211.524 333.698 211.459C331.996 210.496 330.224 209.524 328.437 208.561C328.071 208.366 327.935 207.91 328.131 207.544C328.327 207.178 328.784 207.043 329.15 207.238C330.947 208.205 332.724 209.188 334.436 210.15C334.797 210.356 334.928 210.812 334.722 211.173C334.586 211.419 334.33 211.554 334.069 211.554ZM323.468 205.84C323.352 205.84 323.232 205.814 323.122 205.754C321.37 204.852 319.563 203.94 317.756 203.042C317.384 202.857 317.233 202.406 317.414 202.035C317.6 201.664 318.052 201.514 318.423 201.694C320.235 202.591 322.047 203.509 323.809 204.416C324.181 204.606 324.321 205.063 324.13 205.428C324.005 205.689 323.739 205.84 323.468 205.84ZM312.676 200.491C312.565 200.491 312.455 200.466 312.349 200.416C310.577 199.569 308.745 198.712 306.903 197.864C306.527 197.689 306.361 197.243 306.532 196.867C306.707 196.491 307.154 196.326 307.53 196.496C309.378 197.343 311.215 198.205 312.997 199.052C313.373 199.233 313.529 199.679 313.353 200.055C313.228 200.331 312.957 200.491 312.676 200.491ZM301.733 195.458C301.632 195.458 301.527 195.438 301.427 195.393C299.624 194.596 297.772 193.784 295.915 192.987C295.533 192.822 295.358 192.381 295.518 192C295.684 191.619 296.126 191.443 296.507 191.604C298.37 192.401 300.232 193.213 302.034 194.015C302.415 194.185 302.586 194.626 302.415 195.007C302.3 195.293 302.024 195.458 301.733 195.458ZM290.664 190.706C290.569 190.706 290.469 190.686 290.373 190.646C288.551 189.889 286.679 189.127 284.806 188.37C284.42 188.215 284.234 187.779 284.39 187.393C284.545 187.007 284.982 186.822 285.369 186.977C287.246 187.734 289.128 188.501 290.95 189.258C291.332 189.418 291.518 189.859 291.357 190.24C291.242 190.531 290.961 190.706 290.664 190.706ZM279.491 186.21C279.4 186.21 279.305 186.195 279.22 186.16C277.367 185.438 275.495 184.721 273.603 184.004C273.211 183.859 273.015 183.423 273.166 183.037C273.311 182.646 273.748 182.456 274.135 182.601C276.032 183.318 277.904 184.035 279.767 184.761C280.153 184.912 280.344 185.348 280.193 185.734C280.078 186.03 279.792 186.21 279.491 186.21ZM268.221 181.954C268.136 181.954 268.046 181.939 267.96 181.909C266.088 181.222 264.206 180.546 262.303 179.869C261.912 179.729 261.706 179.298 261.846 178.907C261.987 178.516 262.414 178.31 262.81 178.45C264.718 179.127 266.61 179.809 268.482 180.496C268.874 180.641 269.075 181.072 268.929 181.458C268.819 181.769 268.528 181.954 268.221 181.954Z" fill="white"/>
<path d="M169.886 154.43C169.836 154.43 169.791 154.425 169.741 154.415C167.758 154.024 165.785 153.648 163.832 153.287C163.426 153.212 163.155 152.821 163.23 152.41C163.305 152.004 163.697 151.733 164.109 151.808C166.071 152.169 168.044 152.55 170.032 152.936C170.438 153.016 170.704 153.412 170.624 153.818C170.554 154.179 170.238 154.43 169.886 154.43ZM158.04 152.234C157.995 152.234 157.954 152.229 157.909 152.224C155.931 151.878 153.939 151.548 151.976 151.227C151.564 151.162 151.288 150.776 151.354 150.365C151.419 149.953 151.81 149.678 152.217 149.743C154.185 150.064 156.182 150.4 158.165 150.74C158.577 150.811 158.848 151.202 158.778 151.613C158.717 151.979 158.401 152.234 158.04 152.234ZM146.148 150.309C146.113 150.309 146.073 150.304 146.038 150.299C144.045 149.999 142.042 149.713 140.084 149.447C139.673 149.392 139.387 149.011 139.442 148.6C139.497 148.189 139.879 147.898 140.29 147.958C142.258 148.229 144.266 148.515 146.264 148.816C146.675 148.876 146.956 149.262 146.896 149.673C146.836 150.039 146.515 150.309 146.148 150.309ZM134.211 148.675C134.181 148.675 134.151 148.675 134.116 148.67C132.113 148.425 130.105 148.189 128.143 147.979C127.731 147.933 127.43 147.562 127.475 147.151C127.52 146.74 127.897 146.44 128.303 146.485C130.271 146.7 132.289 146.931 134.297 147.181C134.708 147.232 135.004 147.608 134.949 148.019C134.914 148.395 134.588 148.675 134.211 148.675ZM122.234 147.377C122.209 147.377 122.189 147.377 122.164 147.372C120.151 147.187 118.138 147.011 116.176 146.866C115.759 146.836 115.453 146.475 115.483 146.059C115.513 145.643 115.88 145.337 116.291 145.367C118.264 145.517 120.287 145.688 122.305 145.878C122.716 145.918 123.023 146.284 122.982 146.695C122.947 147.081 122.621 147.377 122.234 147.377Z" fill="white"/>
<path d="M95.0776 359.307C93.7172 359.307 92.3569 359.076 91.0468 358.605C64.6484 349.096 42.8129 338.349 27.9046 327.527C12.4139 316.283 5.30106 305.521 7.33904 296.408C7.4294 296.002 7.83097 295.747 8.23756 295.837C8.64415 295.927 8.90015 296.328 8.8098 296.734C4.95973 313.968 37.4419 337.697 91.5588 357.187C94.3597 358.194 97.4619 357.954 100.072 356.52C102.677 355.091 104.54 352.61 105.187 349.713L157.838 115.497C158.978 110.399 156.117 105.241 151.187 103.501C124.066 93.9272 101.583 83.0447 86.1626 72.0219C70.16 60.583 62.7911 49.6354 64.8643 40.372C64.9546 39.966 65.3512 39.7104 65.7628 39.8006C66.1694 39.8908 66.4254 40.2918 66.335 40.6978C64.4075 49.3246 71.5655 59.7359 87.0411 70.7938C102.346 81.7364 124.704 92.5537 151.689 102.078C157.336 104.073 160.614 109.978 159.309 115.822L106.658 350.044C105.915 353.362 103.782 356.199 100.795 357.838C99.028 358.811 97.0553 359.307 95.0776 359.307Z" fill="black"/>
<path d="M136.485 152.234C135.682 152.234 134.874 152.099 134.101 151.833C95.9111 138.56 67.3592 122.544 55.7688 107.903C55.5128 107.577 55.568 107.106 55.8943 106.845C56.2205 106.589 56.6924 106.644 56.9534 106.97C68.3731 121.397 96.6741 137.232 134.598 150.415C136.144 150.951 137.855 150.806 139.291 150.009C140.732 149.212 141.761 147.838 142.117 146.239L143.106 141.823L146.906 120.92L147.538 118.078C148.261 114.845 146.439 111.587 143.297 110.499C105.745 97.5263 77.2228 81.7966 65.0501 67.3401C64.7841 67.0244 64.8242 66.5482 65.1405 66.2825C65.4567 66.0168 65.9336 66.0569 66.1996 66.3727C78.2067 80.6287 106.488 96.193 143.789 109.081C147.654 110.414 149.898 114.424 149.009 118.409L148.382 121.221L144.582 142.124L143.588 146.57C143.136 148.585 141.841 150.315 140.024 151.322C138.93 151.924 137.71 152.234 136.485 152.234Z" fill="black"/>
<path d="M105.449 282.333C104.646 282.333 103.838 282.197 103.065 281.932C68.2782 269.841 41.7341 255.665 28.3114 242.021C28.0203 241.725 28.0253 241.249 28.3215 240.958C28.6176 240.667 29.0945 240.672 29.3857 240.968C42.4569 254.257 69.493 268.668 103.562 280.508C105.108 281.044 106.819 280.899 108.255 280.102C109.696 279.305 110.725 277.932 111.081 276.332L112.07 271.916L135.693 174.009L136.32 171.207C137.043 167.974 135.221 164.716 132.078 163.628C94.5262 150.655 66.0043 134.926 53.8316 120.469C53.5655 120.153 53.6057 119.677 53.9219 119.411C54.2382 119.146 54.715 119.186 54.9811 119.502C66.9882 133.753 95.2691 149.322 132.57 162.209C136.436 163.543 138.679 167.553 137.791 171.538L137.163 174.35L113.541 272.257L112.557 276.663C112.105 278.678 110.81 280.408 108.993 281.415C107.894 282.027 106.674 282.333 105.449 282.333Z" fill="black"/>
<path d="M91.795 338.946C90.9918 338.946 90.1837 338.81 89.4106 338.545C58.7254 327.878 33.8581 315.256 19.3914 303.005C19.0752 302.734 19.035 302.263 19.3061 301.947C19.5721 301.631 20.049 301.591 20.3652 301.862C34.6913 313.993 59.3881 326.519 89.9076 337.126C91.4536 337.662 93.1654 337.517 94.601 336.72C96.0416 335.923 97.0706 334.549 97.427 332.95L98.4159 328.534L104.063 303.802L104.69 300.995C105.413 297.762 103.591 294.503 100.449 293.416C67.6856 282.097 41.7992 268.728 27.5584 255.766C27.2522 255.485 27.2271 255.009 27.5082 254.703C27.7893 254.397 28.2662 254.372 28.5723 254.653C42.6676 267.48 68.3682 280.739 100.941 291.992C104.806 293.325 107.05 297.336 106.161 301.321L105.534 304.133L99.8867 328.865L98.8978 333.281C98.446 335.296 97.151 337.031 95.3338 338.033C94.2396 338.635 93.0198 338.946 91.795 338.946Z" fill="black"/>
<path d="M231.668 382.395C231.417 382.395 231.161 382.375 230.9 382.335C219.254 380.525 207.337 378.27 195.476 375.623C193.317 375.142 191.962 373.001 192.444 370.851L199.05 341.296C199.13 340.935 199.356 340.615 199.667 340.419C199.983 340.219 200.36 340.154 200.726 340.234L200.977 340.289C213.391 343.056 225.865 345.397 238.053 347.246C239.418 347.452 240.648 348.224 241.426 349.357C242.204 350.495 242.48 351.913 242.179 353.262L236.542 378.49C236.025 380.801 233.962 382.395 231.668 382.395ZM200.496 341.732L193.915 371.182C193.614 372.525 194.457 373.859 195.797 374.154C207.633 376.791 219.52 379.042 231.136 380.846C232.948 381.127 234.674 379.949 235.071 378.17L240.708 352.941C240.919 352.003 240.728 351.011 240.181 350.214C239.639 349.422 238.781 348.886 237.827 348.74C225.604 346.885 213.095 344.535 200.651 341.763L200.496 341.732Z" fill="black"/>
<path d="M242.746 332.815C242.5 332.815 242.249 332.795 242.003 332.76C229.69 330.895 217.081 328.534 204.531 325.737C203.477 325.502 202.815 324.459 203.051 323.406L209.35 295.21C209.551 294.313 210.088 293.551 210.861 293.06C211.639 292.569 212.558 292.408 213.451 292.614L214.49 292.849C225.955 295.406 237.491 297.601 248.775 299.376C250.135 299.591 251.355 300.363 252.128 301.496C252.901 302.629 253.172 304.048 252.876 305.386L247.615 328.925C247.108 331.216 245.045 332.815 242.746 332.815ZM212.698 294.027C212.337 294.027 211.986 294.127 211.669 294.328C211.233 294.604 210.931 295.03 210.821 295.536L204.521 323.732C204.466 323.973 204.622 324.213 204.863 324.269C217.377 327.056 229.951 329.412 242.229 331.271C244.026 331.542 245.753 330.369 246.154 328.595L251.415 305.055C251.626 304.118 251.435 303.13 250.893 302.338C250.356 301.546 249.498 301.01 248.549 300.859C237.235 299.08 225.664 296.874 214.169 294.313L213.125 294.077C212.985 294.042 212.839 294.027 212.698 294.027Z" fill="black"/>
<path d="M313.438 290.884C313.413 290.884 313.393 290.884 313.368 290.884C284.977 290.493 252.218 286.328 218.632 278.844C217.201 278.523 215.981 277.666 215.193 276.433C214.405 275.195 214.149 273.731 214.471 272.297L219.952 247.785C220.243 246.482 221.026 245.369 222.151 244.658C223.28 243.941 224.62 243.71 225.925 244.001C258.885 251.344 291.101 255.49 319.095 255.986C320.601 256.011 322.002 256.703 322.93 257.886C323.864 259.069 324.21 260.588 323.879 262.056L318.307 286.994C317.805 289.255 315.762 290.884 313.438 290.884ZM224.826 245.374C224.169 245.374 223.526 245.56 222.959 245.921C222.171 246.422 221.624 247.199 221.423 248.106L215.941 272.623C215.71 273.661 215.896 274.728 216.468 275.621C217.041 276.518 217.924 277.14 218.963 277.37C252.449 284.834 285.102 288.984 313.388 289.375C313.403 289.375 313.418 289.375 313.438 289.375C315.06 289.375 316.485 288.238 316.842 286.659L322.413 261.721C322.644 260.693 322.398 259.635 321.751 258.808C321.098 257.981 320.124 257.5 319.07 257.48C290.975 256.984 258.649 252.828 225.594 245.46C225.338 245.404 225.082 245.374 224.826 245.374Z" fill="black"/>
<path d="M294.625 387.719C280.439 387.719 264.637 386.711 247.726 384.666C246.466 384.515 245.322 383.834 244.589 382.801C243.856 381.763 243.59 380.46 243.871 379.222L249.639 353.412C250.196 350.916 252.535 349.256 255.09 349.552C299.188 354.69 335.445 352.705 354.57 344.098C355.669 343.602 356.934 343.768 357.873 344.529C358.811 345.291 359.228 346.494 358.962 347.672L352.637 375.964C352.296 377.498 351.232 378.796 349.791 379.433C337.443 384.911 318.272 387.719 294.625 387.719ZM254.503 351.016C252.886 351.016 251.471 352.124 251.109 353.733L245.342 379.543C245.156 380.365 245.332 381.237 245.819 381.924C246.305 382.611 247.068 383.067 247.912 383.167C292.747 388.586 329.662 386.721 349.184 378.049C350.188 377.603 350.93 376.696 351.171 375.623L357.496 347.332C357.632 346.715 357.416 346.083 356.924 345.682C356.437 345.286 355.769 345.196 355.192 345.457C335.826 354.174 299.278 356.204 254.919 351.036C254.774 351.026 254.638 351.016 254.503 351.016Z" fill="black"/>
<path d="M303.294 337.778C289.424 337.778 274.064 336.825 257.765 334.89C256.771 334.775 255.873 334.239 255.295 333.427C254.718 332.615 254.512 331.592 254.728 330.615L260.315 305.612C260.877 303.1 263.232 301.441 265.797 301.757C308.805 307.03 345.082 305.586 365.312 297.797C366.351 297.396 367.515 297.596 368.358 298.323C369.202 299.045 369.573 300.173 369.332 301.256L364.037 324.945C363.715 326.384 362.782 327.602 361.471 328.284C349.439 334.54 328.899 337.778 303.294 337.778ZM265.179 303.226C263.563 303.226 262.147 304.333 261.786 305.942L256.199 330.945C256.074 331.502 256.194 332.093 256.525 332.56C256.857 333.026 257.374 333.332 257.941 333.402C304.036 338.876 342.477 336.464 360.774 326.95C361.687 326.474 362.345 325.627 362.566 324.62L367.862 300.93C367.982 300.388 367.796 299.827 367.375 299.466C366.953 299.105 366.371 299.005 365.854 299.205C345.399 307.08 308.86 308.559 265.611 303.256C265.47 303.231 265.325 303.226 265.179 303.226Z" fill="black"/>
<path d="M329.782 290.649C328.683 290.649 327.619 290.157 326.911 289.315C326.163 288.428 325.872 287.225 326.123 286.097L332.031 259.66C332.523 257.47 334.43 255.871 336.679 255.771C353.154 255.034 366.461 252.803 376.239 249.134C377.268 248.748 378.423 248.953 379.251 249.67C380.079 250.392 380.446 251.505 380.21 252.573L374.106 279.876C373.75 281.481 372.62 282.809 371.094 283.42C361.105 287.431 347.261 289.857 329.948 290.644C329.898 290.649 329.842 290.649 329.782 290.649ZM336.75 257.269C335.178 257.34 333.843 258.457 333.502 259.986L327.594 286.423C327.443 287.1 327.619 287.817 328.066 288.348C328.512 288.879 329.195 289.175 329.883 289.145C346.789 288.378 360.844 285.917 370.537 282.027C371.601 281.601 372.389 280.674 372.64 279.551L378.744 252.247C378.865 251.715 378.679 251.164 378.267 250.803C377.856 250.447 377.283 250.347 376.771 250.537C366.847 254.262 353.38 256.528 336.75 257.269Z" fill="black"/>
<path d="M290.026 404.321C262.102 404.321 228.907 400.295 194.718 392.676C191.636 391.989 188.513 391.263 185.436 390.526C179.277 389.042 175.387 382.816 176.762 376.646L207.402 239.565C208.08 236.532 209.983 233.855 212.618 232.211C215.253 230.567 218.501 230.046 221.523 230.768C224.474 231.474 227.471 232.171 230.443 232.833C271.062 241.886 310.255 245.851 340.81 243.996C355.618 243.099 367.57 240.878 376.334 237.404C385.239 233.875 390.394 229.214 391.659 223.564C391.75 223.158 392.151 222.903 392.558 222.993C392.964 223.083 393.22 223.484 393.13 223.89C390.435 235.946 371.887 243.615 340.906 245.5C310.22 247.364 270.876 243.384 230.121 234.301C227.145 233.64 224.133 232.943 221.176 232.231C218.546 231.6 215.72 232.056 213.421 233.484C211.127 234.913 209.471 237.249 208.878 239.886L178.238 376.967C177.038 382.34 180.427 387.764 185.793 389.057C188.855 389.794 191.972 390.516 195.049 391.202C235.668 400.255 274.867 404.22 305.416 402.366C320.224 401.468 332.176 399.248 340.941 395.774C349.846 392.245 355.001 387.583 356.266 381.934C356.356 381.528 356.758 381.272 357.164 381.363C357.571 381.453 357.827 381.854 357.736 382.26C355.041 394.315 336.493 401.985 305.512 403.869C300.562 404.175 295.392 404.321 290.026 404.321Z" fill="black"/>
<path d="M409.246 150.465C409.191 150.465 409.136 150.46 409.081 150.445C408.674 150.355 408.418 149.954 408.509 149.548C411.872 134.5 386.529 113.958 342.368 95.9423C341.982 95.7869 341.801 95.3458 341.957 94.9599C342.112 94.5739 342.554 94.3934 342.94 94.5488C388.506 113.141 413.568 133.823 409.984 149.873C409.899 150.224 409.588 150.465 409.246 150.465Z" fill="#FDAD00"/>
<path d="M326.118 171.503C326.103 171.503 326.093 171.503 326.078 171.503C312.545 170.821 298.113 169.333 283.185 167.077C282.773 167.017 282.492 166.631 282.552 166.22C282.612 165.809 282.999 165.528 283.41 165.588C298.289 167.834 312.67 169.323 326.153 169.999C326.57 170.019 326.886 170.375 326.866 170.786C326.851 171.187 326.519 171.503 326.118 171.503Z" fill="black"/>
<path d="M351.148 171.789C350.741 171.789 350.41 171.468 350.395 171.062C350.38 170.646 350.706 170.3 351.123 170.285C372.226 169.598 388.57 166.38 398.393 160.966C398.755 160.766 399.216 160.896 399.417 161.262C399.618 161.628 399.487 162.084 399.121 162.285C389.092 167.814 372.512 171.102 351.173 171.794C351.163 171.789 351.153 171.789 351.148 171.789Z" fill="black"/>
<path d="M414.682 130.013C414.626 130.013 414.571 130.008 414.516 129.993C414.109 129.903 413.853 129.502 413.944 129.096C417.729 112.153 385.788 88.8242 332.57 69.6558C332.178 69.5155 331.978 69.0844 332.118 68.6934C332.259 68.3024 332.69 68.1019 333.082 68.2423C359.044 77.5909 380.518 88.1625 395.185 98.8044C410.425 109.867 417.422 120.454 415.414 129.422C415.339 129.773 415.028 130.013 414.682 130.013Z" fill="#FDAD00"/>
<path d="M310.376 149.397C310.351 149.397 310.326 149.397 310.296 149.392C291.653 147.457 272.176 144.239 252.404 139.833C251.997 139.743 251.741 139.342 251.832 138.936C251.922 138.53 252.319 138.274 252.73 138.364C272.447 142.76 291.863 145.963 310.451 147.893C310.863 147.938 311.164 148.304 311.124 148.72C311.084 149.111 310.758 149.397 310.376 149.397Z" fill="black"/>
<path d="M348.051 151.477C344.979 151.477 341.821 151.427 338.578 151.332C338.162 151.322 337.836 150.971 337.851 150.56C337.866 150.144 338.202 149.818 338.624 149.833C373.033 150.861 398.714 146.144 409.065 136.88C409.376 136.605 409.853 136.63 410.129 136.941C410.405 137.251 410.38 137.728 410.069 138.003C400.27 146.765 378.425 151.477 348.051 151.477Z" fill="black"/>
<path d="M32.5725 36.0711C32.3818 36.0711 32.1861 35.9959 32.0405 35.8506L30.1181 33.9307C29.822 33.635 29.822 33.1588 30.1181 32.8681C30.4142 32.5723 30.8911 32.5723 31.1822 32.8681L33.1046 34.7829C33.4007 35.0786 33.4007 35.5548 33.1046 35.8456C32.959 35.9959 32.7683 36.0711 32.5725 36.0711Z" fill="black"/>
<path d="M39.299 42.778C39.1082 42.778 38.9125 42.7029 38.7669 42.5575L36.8442 40.6426C36.548 40.3469 36.548 39.8707 36.8442 39.58C37.1354 39.2842 37.6173 39.2842 37.9084 39.58L39.8311 41.4948C40.1273 41.7905 40.1273 42.2667 39.8311 42.5575C39.6805 42.7029 39.4898 42.778 39.299 42.778Z" fill="black"/>
<path d="M30.6503 42.778C30.4596 42.778 30.2638 42.7029 30.1183 42.5575C29.8271 42.2617 29.8271 41.7855 30.1183 41.4948L32.0408 39.58C32.337 39.2842 32.8138 39.2842 33.105 39.58C33.3961 39.8757 33.3961 40.3519 33.105 40.6426L31.1824 42.5575C31.0369 42.7029 30.8461 42.778 30.6503 42.778Z" fill="black"/>
<path d="M37.3763 36.0713C37.1856 36.0713 36.9898 35.9961 36.8442 35.8507C36.548 35.5549 36.548 35.0787 36.8442 34.788L38.7669 32.8732C39.0631 32.5774 39.54 32.5774 39.8311 32.8732C40.1273 33.1689 40.1273 33.6451 39.8311 33.9359L37.9084 35.8507C37.7629 35.9961 37.5671 36.0713 37.3763 36.0713Z" fill="black"/>
<path d="M252.259 80.8942C252.068 80.8942 251.872 80.819 251.727 80.6736L250.185 79.1347C249.889 78.839 249.889 78.3628 250.185 78.072C250.482 77.7763 250.959 77.7763 251.25 78.072L252.791 79.6109C253.087 79.9067 253.087 80.3829 252.791 80.6736C252.645 80.824 252.454 80.8942 252.259 80.8942Z" fill="black"/>
<path d="M257.66 86.2827C257.469 86.2827 257.273 86.2075 257.127 86.0621L255.586 84.5233C255.29 84.2275 255.29 83.7513 255.586 83.4606C255.883 83.1648 256.359 83.1648 256.651 83.4606L258.192 84.9995C258.488 85.2952 258.488 85.7714 258.192 86.0621C258.041 86.2075 257.85 86.2827 257.66 86.2827Z" fill="black"/>
<path d="M250.717 86.2827C250.526 86.2827 250.331 86.2075 250.185 86.0621C249.894 85.7664 249.894 85.2902 250.185 84.9994L251.726 83.4605C252.022 83.1698 252.499 83.1648 252.79 83.4605C253.087 83.7563 253.087 84.2325 252.79 84.5232L251.249 86.0621C251.104 86.2075 250.908 86.2827 250.717 86.2827Z" fill="black"/>
<path d="M256.113 80.8942C255.922 80.8942 255.727 80.819 255.581 80.6736C255.29 80.3779 255.29 79.9017 255.581 79.6109L257.122 78.072C257.418 77.7763 257.895 77.7763 258.186 78.072C258.477 78.3678 258.477 78.844 258.186 79.1347L256.645 80.6736C256.5 80.824 256.309 80.8942 256.113 80.8942Z" fill="black"/>
<path d="M370.728 50.1164C370.728 48.2667 372.234 46.7679 374.086 46.7679C375.938 46.7679 377.444 48.2667 377.444 50.1164C377.444 51.9661 375.938 53.4649 374.086 53.4649C372.229 53.4649 370.728 51.9661 370.728 50.1164Z" fill="#003185" stroke="black" stroke-width="2" stroke-linejoin="bevel"/>
<path d="M61.6665 375.513C61.6665 373.663 63.1724 372.164 65.0247 372.164C66.8769 372.164 68.3828 373.663 68.3828 375.513C68.3828 377.362 66.8769 378.861 65.0247 378.861C63.1724 378.861 61.6665 377.362 61.6665 375.513Z" fill="#003185" stroke="black" stroke-width="2" stroke-linejoin="bevel"/>
<path d="M394.14 70.1519C391.52 70.1519 389.386 68.0265 389.386 65.4099C389.386 62.7933 391.52 60.668 394.14 60.668C396.76 60.668 398.893 62.7933 398.893 65.4099C398.888 68.0265 396.76 70.1519 394.14 70.1519ZM394.14 62.1718C392.348 62.1718 390.892 63.6254 390.892 65.4099C390.892 67.1944 392.348 68.6481 394.14 68.6481C395.932 68.6481 397.388 67.1944 397.388 65.4099C397.383 63.6254 395.927 62.1718 394.14 62.1718Z" fill="black"/>
<path d="M22.458 65.1543C19.8025 65.1543 17.644 62.9988 17.644 60.3522C17.644 57.7055 19.8025 55.55 22.458 55.55C25.1134 55.55 27.2719 57.7055 27.2719 60.3522C27.2719 62.9988 25.1134 65.1543 22.458 65.1543ZM22.458 57.0538C20.6358 57.0538 19.15 58.5326 19.15 60.3522C19.15 62.1718 20.6308 63.6505 22.458 63.6505C24.2801 63.6505 25.766 62.1718 25.766 60.3522C25.766 58.5326 24.2801 57.0538 22.458 57.0538Z" fill="black"/>
<path d="M23.6475 87.7665C21.7601 87.7665 20.2241 86.2326 20.2241 84.3478C20.2241 82.4631 21.7601 80.9292 23.6475 80.9292C25.5349 80.9292 27.0709 82.4631 27.0709 84.3478C27.0709 86.2326 25.5349 87.7665 23.6475 87.7665ZM23.6475 82.433C22.5884 82.433 21.73 83.2902 21.73 84.3478C21.73 85.4055 22.5884 86.2627 23.6475 86.2627C24.7067 86.2627 25.565 85.4055 25.565 84.3478C25.565 83.2902 24.7067 82.433 23.6475 82.433Z" fill="black"/>
<path d="M324.051 120.499C323.86 120.499 323.664 120.424 323.519 120.278L321.33 118.093C321.034 117.797 321.034 117.321 321.33 117.03C321.626 116.734 322.103 116.734 322.394 117.03L324.583 119.216C324.879 119.511 324.879 119.988 324.583 120.278C324.437 120.429 324.246 120.499 324.051 120.499Z" fill="black"/>
<path d="M331.715 128.148C331.524 128.148 331.329 128.073 331.183 127.928L328.995 125.742C328.698 125.447 328.698 124.97 328.995 124.68C329.291 124.384 329.768 124.384 330.059 124.68L332.247 126.865C332.543 127.161 332.543 127.637 332.247 127.928C332.102 128.073 331.911 128.148 331.715 128.148Z" fill="black"/>
<path d="M321.862 128.148C321.671 128.148 321.475 128.073 321.33 127.928C321.033 127.632 321.033 127.156 321.33 126.865L323.518 124.68C323.814 124.389 324.291 124.384 324.582 124.68C324.878 124.975 324.878 125.451 324.582 125.742L322.394 127.928C322.248 128.073 322.052 128.148 321.862 128.148Z" fill="black"/>
<path d="M329.527 120.499C329.336 120.499 329.14 120.424 328.995 120.278C328.704 119.983 328.704 119.506 328.995 119.216L331.183 117.03C331.479 116.739 331.956 116.734 332.247 117.03C332.544 117.326 332.544 117.802 332.247 118.093L330.059 120.278C329.913 120.429 329.718 120.499 329.527 120.499Z" fill="black"/>
<path d="M287.432 68.8237C287.366 68.8237 287.296 68.8136 287.226 68.7936C286.824 68.6783 286.593 68.2672 286.704 67.8662L300.257 19.8952C300.367 19.4941 300.789 19.2636 301.186 19.3738C301.587 19.4891 301.818 19.9002 301.708 20.3012L288.155 68.2723C288.064 68.6081 287.758 68.8237 287.432 68.8237Z" fill="black"/>
<path d="M293.254 73.3301C293.059 73.3301 292.863 73.2549 292.712 73.0996C292.421 72.7988 292.431 72.3226 292.732 72.0369L319.964 45.7405C320.26 45.4498 320.742 45.4598 321.028 45.7605C321.319 46.0613 321.309 46.5375 321.008 46.8232L293.776 73.1196C293.636 73.26 293.445 73.3301 293.254 73.3301Z" fill="black"/>
<path d="M279.29 57.45C278.883 57.45 278.547 57.1241 278.537 56.7131L277.925 24.6171C277.914 24.201 278.246 23.8602 278.662 23.8502C279.059 23.8451 279.42 24.171 279.43 24.587L280.043 56.683C280.053 57.0991 279.722 57.4399 279.305 57.45C279.295 57.45 279.29 57.45 279.29 57.45Z" fill="black"/>
<path d="M58.439 365.031C58.439 363.848 59.4027 362.886 60.5874 362.886C61.777 362.886 62.7358 363.848 62.7358 365.031C62.7358 366.214 61.772 367.177 60.5874 367.177C59.3977 367.172 58.439 366.214 58.439 365.031Z" fill="#003185" stroke="black" stroke-width="2" stroke-linejoin="bevel"/>
</g>
<defs>
<clipPath id="clip0">
<rect width="416" height="416" fill="white"/>
</clipPath>
</defs>
</svg>
