<svg width="45" height="80" viewBox="0 0 45 80" fill="none" xmlns="http://www.w3.org/2000/svg">
    <g clip-path="url(#clip0)">
        <path d="M0.400311 75.3907C4.94084 73.2699 9.93906 72.2383 14.9737 72.3775C18.0774 72.404 24.8131 74.412 24.6742 75.4569C24.4442 77.1911 15.6682 79.6365 12.9289 79.6432C2.4497 79.6432 0.732769 76.5372 0.452686 75.6359C0.429916 75.5564 0.40942 75.4724 0.400311 75.3907Z" fill="#FDBD33"/>
        <path d="M25.717 60.7179C28.7137 59.7923 35.9298 59.6134 36.1757 60.6251C36.581 62.3107 29.0211 67.2679 26.3819 68.1051C14.5888 71.8429 12.7808 67.9726 12.7808 67.9726C16.4287 64.5794 20.8668 62.0898 25.717 60.7179Z" fill="#FDBD33"/>
        <path d="M14.7256 58.9772C16.6202 58.4558 21.1835 58.3542 21.3383 58.9264C21.5934 59.8763 16.8137 62.673 15.1469 63.1457C7.6894 65.2554 6.54857 63.0706 6.54857 63.0706C8.85299 61.1554 11.6584 59.7504 14.7256 58.9772Z" fill="#FDBD33"/>
        <path d="M32.7124 46.7034C35.5565 44.9582 42.9707 42.8729 43.5104 43.8559C44.4007 45.4928 37.9634 52.6105 35.4654 54.1724C24.3053 61.1464 21.352 57.6141 21.352 57.6141C24.1778 53.1451 28.0739 49.3985 32.7124 46.7034Z" fill="#FDBD33"/>
        <path d="M19.3432 49.6437C21.2355 48.5568 26.1699 47.2601 26.5297 47.872C27.1218 48.8904 22.8385 53.3218 21.1763 54.2938C13.7484 58.6347 11.7855 56.4367 11.7855 56.4367C13.6641 53.6532 16.2577 51.3226 19.3432 49.6437Z" fill="#FDBD33"/>
        <path d="M34.0465 32.521C36.5217 30.281 43.4418 26.879 44.1637 27.7516C45.3592 29.2052 40.3723 37.4053 38.2045 39.4001C28.5223 48.3094 24.929 45.3581 24.929 45.3581C26.86 40.4296 29.9842 36.0246 34.0465 32.521Z" fill="#FDBD33"/>
        <path d="M19.9422 39.9701C21.5384 38.6667 26.0015 36.6852 26.4661 37.1933C27.238 38.0394 24.0204 42.8132 22.6223 43.9752C16.3785 49.1621 14.0604 47.4435 14.0604 47.4435C15.306 44.5716 17.3212 42.0091 19.9422 39.9701Z" fill="#FDBD33"/>
        <path d="M28.4789 21.0316C30.1503 18.3453 35.6404 13.3837 36.558 13.9625C38.0837 14.9279 35.7701 23.6295 34.3128 26.0241C27.8117 36.672 23.6241 35.0328 23.6241 35.0328C24.034 30.0469 25.6986 25.2399 28.4743 21.0382L28.4789 21.0316Z" fill="#FDBD33"/>
        <path d="M18.0976 29.4791C19.1724 27.9394 22.7087 25.0963 23.3007 25.4299C24.2844 25.9821 22.7929 30.968 21.8548 32.3399C17.6672 38.4414 14.9711 37.5003 14.9711 37.5003C15.2353 34.644 16.3078 31.8892 18.0953 29.4835L18.0976 29.4791Z" fill="#FDBD33"/>
        <path d="M20.5956 12.4448C21.2446 10.0148 24.3141 4.90079 25.168 5.08415C26.5844 5.40005 26.8758 12.4669 26.3202 14.6142C23.8336 24.2061 20.1926 24.0868 20.1926 24.0868C19.3091 20.2385 19.4457 16.2334 20.5911 12.4493L20.5956 12.4448Z" fill="#FDBD33"/>
        <path d="M13.562 22.0875C13.9878 20.7024 15.9917 17.7908 16.5496 17.8969C17.4764 18.0758 17.6654 22.1008 17.3033 23.3246C15.6774 28.7877 13.2979 28.7192 13.2979 28.7192C12.7218 26.5278 12.8106 24.2458 13.5575 22.0919L13.562 22.0875Z" fill="#FDBD33"/>
        <path d="M11.0865 7.0679C10.9818 4.9781 12.0816 0.0982118 12.7898 0.00322079C13.967 -0.151416 15.9527 5.30504 16.0597 7.14301C16.5311 15.3675 13.6801 16.3107 13.6801 16.3107C12.0156 13.4964 11.1229 10.3175 11.0842 7.07674L11.0865 7.0679Z" fill="#FDBD33"/>
    </g>
    <defs>
        <clipPath id="clip0">
            <rect width="44" height="80" fill="white" transform="matrix(-1 0 0 1 44.3462 0)"/>
        </clipPath>
    </defs>
</svg>
