<svg width="45" height="80" viewBox="0 0 45 80" fill="none" xmlns="http://www.w3.org/2000/svg">
    <g clip-path="url(#clip0)">
        <path d="M44.2921 75.3907C39.7515 73.2699 34.7533 72.2383 29.7187 72.3775C26.615 72.404 19.8793 74.412 20.0182 75.4569C20.2482 77.1911 29.0241 79.6365 31.7635 79.6432C42.2427 79.6432 43.9596 76.5372 44.2397 75.6359C44.2625 75.5564 44.283 75.4724 44.2921 75.3907Z" fill="#FDBD33"/>
        <path d="M18.9754 60.7179C15.9787 59.7923 8.76259 59.6134 8.51666 60.6251C8.11134 62.3107 15.6713 67.2679 18.3105 68.1051C30.1035 71.8429 31.9116 67.9726 31.9116 67.9726C28.2636 64.5794 23.8256 62.0898 18.9754 60.7179Z" fill="#FDBD33"/>
        <path d="M29.9668 58.9772C28.0722 58.4558 23.5089 58.3542 23.3541 58.9264C23.099 59.8763 27.8787 62.673 29.5455 63.1457C37.003 65.2554 38.1438 63.0706 38.1438 63.0706C35.8394 61.1554 33.034 59.7504 29.9668 58.9772Z" fill="#FDBD33"/>
        <path d="M11.98 46.7034C9.1359 44.9582 1.72167 42.8729 1.182 43.8559C0.291657 45.4928 6.72901 52.6105 9.22698 54.1724C20.387 61.1464 23.3404 57.6141 23.3404 57.6141C20.5146 53.1451 16.6184 49.3985 11.98 46.7034Z" fill="#FDBD33"/>
        <path d="M25.3492 49.6437C23.4569 48.5568 18.5224 47.2601 18.1627 47.872C17.5706 48.8904 21.8538 53.3218 23.5161 54.2938C30.944 58.6347 32.9069 56.4367 32.9069 56.4367C31.0283 53.6532 28.4346 51.3226 25.3492 49.6437Z" fill="#FDBD33"/>
        <path d="M10.6458 32.521C8.17065 30.281 1.25055 26.879 0.528708 27.7516C-0.666768 29.2052 4.32007 37.4053 6.48787 39.4001C16.1701 48.3094 19.7633 45.3581 19.7633 45.3581C17.8324 40.4296 14.7082 36.0246 10.6458 32.521Z" fill="#FDBD33"/>
        <path d="M24.7502 39.9701C23.154 38.6667 18.6909 36.6852 18.2263 37.1933C17.4544 38.0394 20.6719 42.8132 22.0701 43.9752C28.3139 49.1621 30.632 47.4435 30.632 47.4435C29.3864 44.5716 27.3712 42.0091 24.7502 39.9701Z" fill="#FDBD33"/>
        <path d="M16.2135 21.0316C14.5421 18.3453 9.05203 13.3837 8.13436 13.9625C6.6087 14.9279 8.92223 23.6295 10.3796 26.0241C16.8807 36.672 21.0683 35.0328 21.0683 35.0328C20.6584 30.0469 18.9938 25.2399 16.2181 21.0382L16.2135 21.0316Z" fill="#FDBD33"/>
        <path d="M26.5948 29.4791C25.52 27.9394 21.9837 25.0963 21.3917 25.4299C20.4079 25.9821 21.8994 30.968 22.8376 32.3399C27.0252 38.4414 29.7213 37.5003 29.7213 37.5003C29.4571 34.644 28.3846 31.8892 26.5971 29.4835L26.5948 29.4791Z" fill="#FDBD33"/>
        <path d="M24.0968 12.4448C23.4478 10.0148 20.3783 4.90079 19.5244 5.08415C18.108 5.40005 17.8165 12.4669 18.3722 14.6142C20.8587 24.2061 24.4998 24.0868 24.4998 24.0868C25.3833 20.2385 25.2467 16.2334 24.1013 12.4493L24.0968 12.4448Z" fill="#FDBD33"/>
        <path d="M31.1304 22.0875C30.7045 20.7024 28.7007 17.7908 28.1428 17.8969C27.216 18.0758 27.027 22.1008 27.3891 23.3246C29.0149 28.7877 31.3945 28.7192 31.3945 28.7192C31.9706 26.5278 31.8818 24.2458 31.1349 22.0919L31.1304 22.0875Z" fill="#FDBD33"/>
        <path d="M33.6059 7.0679C33.7106 4.9781 32.6108 0.0982118 31.9026 0.00322079C30.7253 -0.151416 28.7397 5.30504 28.6327 7.14301C28.1613 15.3675 31.0123 16.3107 31.0123 16.3107C32.6768 13.4964 33.5694 10.3175 33.6082 7.07674L33.6059 7.0679Z" fill="#FDBD33"/>
    </g>
    <defs>
        <clipPath id="clip0">
            <rect width="44" height="80" fill="white" transform="translate(0.346191)"/>
        </clipPath>
    </defs>
</svg>
